<svg xmlns="http://www.w3.org/2000/svg" xmlns:xlink="http://www.w3.org/1999/xlink" width="108" height="108" viewBox="0 0 108 108">
  <defs>
    <filter id="Trazado_904820" x="0" y="0" width="108" height="108" filterUnits="userSpaceOnUse">
      <feOffset dy="3" input="SourceAlpha"/>
      <feGaussianBlur stdDeviation="3" result="blur"/>
      <feFlood flood-opacity="0.161"/>
      <feComposite operator="in" in2="blur"/>
      <feComposite in="SourceGraphic"/>
    </filter>
  </defs>
  <g id="Grupo_1224733" data-name="Grupo 1224733" transform="translate(-614.117 -1294)">
    <g id="Grupo_1222785" data-name="Grupo 1222785" transform="translate(0 -4209)">
      <g id="Grupo_1221054" data-name="Grupo 1221054" transform="translate(623.117 5509)">
        <g id="Grupo_1203639" data-name="Grupo 1203639" transform="translate(0 0)">
          <g id="Grupo_1202437" data-name="Grupo 1202437" transform="translate(0 0)">
            <g id="Grupo_1177315" data-name="Grupo 1177315" transform="translate(0 0)">
              <g id="Grupo_1173585" data-name="Grupo 1173585" transform="translate(0 0)">
                <g id="Grupo_1173428" data-name="Grupo 1173428">
                  <g id="Grupo_1171958" data-name="Grupo 1171958">
                    <g id="Grupo_1167341" data-name="Grupo 1167341">
                      <g id="Grupo_1166792" data-name="Grupo 1166792">
                        <g transform="matrix(1, 0, 0, 1, -9, -6)" filter="url(#Trazado_904820)">
                          <g id="Trazado_904820-2" data-name="Trazado 904820" transform="translate(9 6)" fill="#fdfaeb">
                            <path d="M 44.99999618530273 88.49994659423828 C 39.12687301635742 88.49994659423828 33.43022155761719 87.35002136230469 28.06829643249512 85.08212280273438 C 22.88852119445801 82.89125823974609 18.23629570007324 79.75454711914062 14.24084663391113 75.75910186767578 C 10.24540901184082 71.76364898681641 7.108683586120605 67.11143493652344 4.917821407318115 61.93165969848633 C 2.649921178817749 56.56973648071289 1.499996185302734 50.87309646606445 1.499996185302734 44.99997329711914 C 1.499996185302734 39.12685012817383 2.649921178817749 33.43021011352539 4.917821407318115 28.06828498840332 C 7.108683586120605 22.88851165771484 10.24540901184082 18.23629760742188 14.24084663391113 14.24084854125977 C 18.23629570007324 10.24539852142334 22.88852119445801 7.108685970306396 28.06829643249512 4.917823314666748 C 33.43022155761719 2.649923324584961 39.12687301635742 1.499998331069946 44.99999618530273 1.499998331069946 C 50.87311935424805 1.499998331069946 56.56977081298828 2.649923324584961 61.93169784545898 4.917823314666748 C 67.11147308349609 7.108685970306396 71.76369476318359 10.24539852142334 75.75914764404297 14.24084854125977 C 79.75458526611328 18.23629760742188 82.89131164550781 22.88851165771484 85.08216857910156 28.06828498840332 C 87.35007476806641 33.43021011352539 88.5 39.12685012817383 88.5 44.99997329711914 C 88.5 50.87309646606445 87.35007476806641 56.56973648071289 85.08216857910156 61.93165969848633 C 82.89131164550781 67.11143493652344 79.75458526611328 71.76364898681641 75.75914764404297 75.75910186767578 C 71.76369476318359 79.75454711914062 67.11147308349609 82.89125823974609 61.93169784545898 85.08212280273438 C 56.56977081298828 87.35002136230469 50.87311935424805 88.49994659423828 44.99999618530273 88.49994659423828 Z" stroke="none"/>
                            <path d="M 44.99999618530273 3 C 39.32870864868164 3 33.82865142822266 4.110061645507812 28.65262603759766 6.299331665039062 C 23.65165710449219 8.414573669433594 19.15968322753906 11.44332885742188 15.301513671875 15.30149841308594 C 11.44333648681641 19.15969085693359 8.414566040039062 23.65164184570312 6.299339294433594 28.65261459350586 C 4.110054016113281 33.82864379882812 2.999992370605469 39.32868576049805 2.999992370605469 44.99997329711914 C 2.999992370605469 50.67126083374023 4.110054016113281 56.17130279541016 6.299339294433594 61.34732818603516 C 8.414566040039062 66.34829711914062 11.44333648681641 70.84025573730469 15.301513671875 74.69844055175781 C 19.15968322753906 78.55661773681641 23.65165710449219 81.58537292480469 28.65262603759766 83.70061492919922 C 33.82865142822266 85.88988494873047 39.32870864868164 86.99994659423828 44.99999618530273 86.99994659423828 C 50.67128372192383 86.99994659423828 56.17134094238281 85.88988494873047 61.34736633300781 83.70061492919922 C 66.34834289550781 81.58537292480469 70.84030914306641 78.55661773681641 74.69847869873047 74.69844055175781 C 78.55665588378906 70.84025573730469 81.58542633056641 66.34829711914062 83.70065307617188 61.34732818603516 C 85.88993835449219 56.17130279541016 87 50.67126083374023 87 44.99997329711914 C 87 39.32868576049805 85.88993835449219 33.82864379882812 83.70065307617188 28.65261459350586 C 81.58542633056641 23.65164184570312 78.55665588378906 19.15969085693359 74.69847869873047 15.30149841308594 C 70.84030914306641 11.44332885742188 66.34834289550781 8.414573669433594 61.34736633300781 6.299331665039062 C 56.17134094238281 4.110061645507812 50.67128372192383 3 44.99999618530273 3 M 44.99999618530273 0 C 69.85281372070312 0 90 20.14717102050781 90 44.99997329711914 C 90 69.85277557373047 69.85281372070312 89.99994659423828 44.99999618530273 89.99994659423828 C 20.14717864990234 89.99994659423828 -7.62939453125e-06 69.85277557373047 -7.62939453125e-06 44.99997329711914 C -7.62939453125e-06 20.14717102050781 20.14717864990234 0 44.99999618530273 0 Z" stroke="none" fill="#847625"/>
                          </g>
                        </g>
                      </g>
                    </g>
                  </g>
                </g>
              </g>
            </g>
          </g>
        </g>
      </g>
    </g>
    <g id="equilibrar_1_" data-name="equilibrar (1)" transform="translate(639.382 1316.594)">
      <path id="Trazado_1177329" data-name="Trazado 1177329" d="M40.371,152.742H87.949V183.85H40.371Zm0,0" transform="translate(-35.425 -135.273)" fill="#e6e9ed"/>
      <path id="Trazado_1177330" data-name="Trazado 1177330" d="M63.268,200.742v27.449a1.835,1.835,0,0,1-1.83,1.83H39.479a3.66,3.66,0,1,1-7.32,0H10.2a1.835,1.835,0,0,1-1.83-1.83V200.742h3.66v25.619H59.608V200.742Zm0,0" transform="translate(-7.085 -177.783)" fill="#b4dd7f"/>
      <path id="Trazado_1177331" data-name="Trazado 1177331" d="M310.1,248.742h.915v.915l-.393.65a8.074,8.074,0,0,1-13.853,0l-.394-.65v-.915Zm0,0" transform="translate(-262.147 -220.294)" fill="#fcd770"/>
      <path id="Trazado_1177332" data-name="Trazado 1177332" d="M86.1,184.742h.915v.915l-.393.65a8.074,8.074,0,0,1-13.852,0l-.394-.65v-.915Zm0,0" transform="translate(-63.765 -163.613)" fill="#fcd770"/>
      <path id="Trazado_1177333" data-name="Trazado 1177333" d="M137.309,12.4l-.915,3.66-2.553-.293-.366-.037L122.67,14.5l-3.66-.421L108.2,12.842l-.329-.037-3.5-.4.915-3.66Zm0,0" transform="translate(-92.106 -7.742)" fill="#aab2bd"/>
      <path id="Trazado_1177334" data-name="Trazado 1177334" d="M236.031,86.647v3.66h-3.66V55.383l3.66.421Zm0,0" transform="translate(-205.466 -49.049)" fill="#fcd770"/>
      <path id="Trazado_1177335" data-name="Trazado 1177335" d="M199.01,364.4H184.371a3.655,3.655,0,0,1,3.66-3.66h7.32A3.659,3.659,0,0,1,199.01,364.4Zm0,0" transform="translate(-162.956 -319.484)" fill="#aab2bd"/>
      <path id="Trazado_1177336" data-name="Trazado 1177336" d="M53.438,22.044v-5.49H45.285L43.015,9.1l1.967.225,1.362-5.451L12.488,0,11.125,5.451l3.362.384-4.17,10.719H4.031v5.49H.371V50.407a2.748,2.748,0,0,0,2.745,2.745H24.252a4.575,4.575,0,0,0,8.965,0H54.353A2.748,2.748,0,0,0,57.1,50.407V22.044ZM47.8,29.363l-.109.181a7.165,7.165,0,0,1-12.287,0l-.108-.181Zm-11.422-1.83,5.17-16.987,5.17,16.987ZM31.479,7.777l8.693.994L37.8,16.554H31.479ZM13.873,2,44.063,5.45,43.6,7.319,13.407,3.869Zm8.3,20.044-.109.181a7.165,7.165,0,0,1-12.287,0l-.108-.181Zm-11.319-1.83,5.067-13.03,5.067,13.03Zm44.41,30.193a.916.916,0,0,1-.915.915H31.48v.915a2.745,2.745,0,1,1-5.49,0v-.915H3.116a.916.916,0,0,1-.915-.915V23.874h1.83V49.492H53.438V25.7h-1.83V47.662H5.861V18.384H9.607l-.712,1.83h-1.2V22.3l.522.869a8.995,8.995,0,0,0,15.426,0l.521-.869V20.214h-1.2l-.712-1.83H25.99V40.343h-.915A4.58,4.58,0,0,0,20.5,44.917v.915H36.969v-.915a4.58,4.58,0,0,0-4.575-4.575H31.48V20.214H29.65V40.343H27.82V16.554H21.533L17.5,6.178l8.491.971v7.575h1.83V7.359l1.83.21V18.384h7.6l-2.784,9.15H33.309v2.084l.522.869a8.995,8.995,0,0,0,15.426,0l.521-.869V27.533H48.627l-2.785-9.15h5.767v5.49h3.66ZM32.394,42.173A2.751,2.751,0,0,1,34.983,44h-12.5a2.751,2.751,0,0,1,2.588-1.83Zm0,0" transform="translate(0 0)"/>
      <path id="Trazado_1177337" data-name="Trazado 1177337" d="M64.371,256.742H66.2v1.83h-1.83Zm0,0" transform="translate(-56.68 -227.379)"/>
      <path id="Trazado_1177338" data-name="Trazado 1177338" d="M96.371,256.742H109.18v1.83H96.371Zm0,0" transform="translate(-85.021 -227.379)"/>
      <path id="Trazado_1177339" data-name="Trazado 1177339" d="M64.371,288.742H66.2v1.83h-1.83Zm0,0" transform="translate(-56.68 -255.719)"/>
      <path id="Trazado_1177340" data-name="Trazado 1177340" d="M96.371,288.742H109.18v1.83H96.371Zm0,0" transform="translate(-85.021 -255.719)"/>
      <path id="Trazado_1177341" data-name="Trazado 1177341" d="M64.371,320.742H66.2v1.83h-1.83Zm0,0" transform="translate(-56.68 -284.059)"/>
      <path id="Trazado_1177342" data-name="Trazado 1177342" d="M96.371,320.742H109.18v1.83H96.371Zm0,0" transform="translate(-85.021 -284.059)"/>
      <path id="Trazado_1177343" data-name="Trazado 1177343" d="M64.371,352.742H66.2v1.83h-1.83Zm0,0" transform="translate(-56.68 -312.399)"/>
      <path id="Trazado_1177344" data-name="Trazado 1177344" d="M96.371,352.742h7.32v1.83h-7.32Zm0,0" transform="translate(-85.021 -312.399)"/>
      <path id="Trazado_1177345" data-name="Trazado 1177345" d="M64.371,384.742H66.2v1.83h-1.83Zm0,0" transform="translate(-56.68 -340.74)"/>
      <path id="Trazado_1177346" data-name="Trazado 1177346" d="M96.371,384.742h7.32v1.83h-7.32Zm0,0" transform="translate(-85.021 -340.74)"/>
      <path id="Trazado_1177347" data-name="Trazado 1177347" d="M288.371,320.742H304.84v1.83H288.371Zm0,0" transform="translate(-255.062 -284.059)"/>
      <path id="Trazado_1177348" data-name="Trazado 1177348" d="M336.371,352.742H347.35v1.83H336.371Zm0,0" transform="translate(-297.572 -312.399)"/>
      <path id="Trazado_1177349" data-name="Trazado 1177349" d="M336.371,384.742H347.35v1.83H336.371Zm0,0" transform="translate(-297.572 -340.74)"/>
    </g>
  </g>
</svg>
