<svg xmlns="http://www.w3.org/2000/svg" xmlns:xlink="http://www.w3.org/1999/xlink" width="93.934" height="93.934" viewBox="0 0 93.934 93.934">
  <defs>
    <filter id="Trazado_982547" x="0" y="-0.001" width="93.934" height="93.934" filterUnits="userSpaceOnUse">
      <feOffset dy="3" input="SourceAlpha"/>
      <feGaussianBlur stdDeviation="3" result="blur"/>
      <feFlood flood-opacity="0.161"/>
      <feComposite operator="in" in2="blur"/>
      <feComposite in="SourceGraphic"/>
    </filter>
  </defs>
  <g id="Grupo_1224717" data-name="Grupo 1224717" transform="translate(-191.066 -1276.501)">
    <g id="Grupo_1220442" data-name="Grupo 1220442" transform="translate(0 -6930.5)">
      <g id="Grupo_1219557" data-name="Grupo 1219557" transform="translate(0 -394.578)">
        <g id="Grupo_1214714" data-name="Grupo 1214714" transform="translate(-0.229 3473.578)">
          <g id="Grupo_1214432" data-name="Grupo 1214432" transform="translate(-0.771 -2738.674)">
            <g id="Grupo_1183196" data-name="Grupo 1183196" transform="translate(1 1016.674)">
              <g id="Grupo_1179610" data-name="Grupo 1179610" transform="translate(8 4723.467)">
                <g id="Grupo_1175227" data-name="Grupo 1175227" transform="translate(-5.967 140.533)">
                  <g id="Grupo_1167337" data-name="Grupo 1167337" transform="translate(198.033 1992)">
                    <g id="Grupo_1166720" data-name="Grupo 1166720">
                      <g id="Grupo_1164305" data-name="Grupo 1164305">
                        <g id="Grupo_1163948" data-name="Grupo 1163948">
                          <g id="Grupo_1158168" data-name="Grupo 1158168">
                            <g id="Grupo_1152576" data-name="Grupo 1152576">
                              <g id="Grupo_1148633" data-name="Grupo 1148633">
                                <g id="Grupo_1148525" data-name="Grupo 1148525">
                                  <g transform="matrix(1, 0, 0, 1, -9, -6)" filter="url(#Trazado_982547)">
                                    <g id="Trazado_982547-2" data-name="Trazado 982547" transform="translate(9 6)" fill="#f7f4ed">
                                      <path d="M 37.966796875 74.43359375 C 33.04315185546875 74.43359375 28.26757431030273 73.46962738037109 23.77274131774902 71.56847381591797 C 19.43047523498535 69.73184967041016 15.53040790557861 67.10224914550781 12.18087482452393 63.75271987915039 C 8.831341743469238 60.4031867980957 6.201741218566895 56.50312042236328 4.365118980407715 52.16086196899414 C 2.463963508605957 47.66601943969727 1.499996900558472 42.89044189453125 1.499996900558472 37.966796875 C 1.499996900558472 33.04315185546875 2.463963508605957 28.26757431030273 4.365118980407715 23.77274131774902 C 6.201741218566895 19.43047523498535 8.831341743469238 15.53040790557861 12.18087482452393 12.18087482452393 C 15.53040790557861 8.831341743469238 19.43047523498535 6.201741218566895 23.77274131774902 4.365118980407715 C 28.26757431030273 2.463963508605957 33.04315185546875 1.499996900558472 37.966796875 1.499996900558472 C 42.89044189453125 1.499996900558472 47.66601943969727 2.463963508605957 52.16086196899414 4.365118980407715 C 56.50312042236328 6.201741218566895 60.4031867980957 8.831341743469238 63.75271987915039 12.18087482452393 C 67.10224914550781 15.53040790557861 69.73184967041016 19.43047523498535 71.56847381591797 23.77274131774902 C 73.46962738037109 28.26757431030273 74.43359375 33.04315185546875 74.43359375 37.966796875 C 74.43359375 42.89044189453125 73.46962738037109 47.66601943969727 71.56847381591797 52.16086196899414 C 69.73184967041016 56.50313186645508 67.10224914550781 60.4031867980957 63.75271987915039 63.75271987915039 C 60.4031867980957 67.10224914550781 56.50313186645508 69.73184967041016 52.16086196899414 71.56847381591797 C 47.66601943969727 73.46962738037109 42.89044189453125 74.43359375 37.966796875 74.43359375 Z" stroke="none"/>
                                      <path d="M 37.966796875 3 C 33.2449836730957 3 28.66600799560547 3.924095153808594 24.35705947875977 5.746635437011719 C 20.19359588623047 7.507637023925781 16.45379638671875 10.02928161621094 13.24153518676758 13.24153518676758 C 10.02927398681641 16.45379638671875 7.507621765136719 20.19359588623047 5.746635437011719 24.35705947875977 C 3.924095153808594 28.66600799560547 3 33.2449836730957 3 37.966796875 C 3 42.6886100769043 3.924095153808594 47.26758575439453 5.746635437011719 51.57653427124023 C 7.507621765136719 55.73999786376953 10.02927398681641 59.47979736328125 13.24153518676758 62.69205856323242 C 16.45379638671875 65.90431976318359 20.19359588623047 68.42597198486328 24.35705947875977 70.18695831298828 C 28.66600799560547 72.00949859619141 33.2449836730957 72.93359375 37.966796875 72.93359375 C 42.6886100769043 72.93359375 47.26758575439453 72.00949859619141 51.57653427124023 70.18695831298828 C 55.73999786376953 68.42597198486328 59.47979736328125 65.90431976318359 62.69205856323242 62.69205856323242 C 65.90431976318359 59.47979736328125 68.42597198486328 55.73999786376953 70.18695831298828 51.57653427124023 C 72.00949859619141 47.26758575439453 72.93359375 42.6886100769043 72.93359375 37.966796875 C 72.93359375 33.2449836730957 72.00949859619141 28.66600799560547 70.18695831298828 24.35705947875977 C 68.42597198486328 20.19359588623047 65.90431976318359 16.45379638671875 62.69205856323242 13.24153518676758 C 59.47979736328125 10.02928161621094 55.73999786376953 7.507637023925781 51.57653427124023 5.746635437011719 C 47.26758575439453 3.924095153808594 42.6886100769043 3 37.966796875 3 M 37.966796875 0 C 58.93528366088867 0 75.93359375 16.99832153320312 75.93359375 37.966796875 C 75.93359375 58.93528366088867 58.93528366088867 75.93359375 37.966796875 75.93359375 C 16.99831008911133 75.93359375 0 58.93528366088867 0 37.966796875 C 0 16.99832153320312 16.99831008911133 0 37.966796875 0 Z" stroke="none" fill="#655531"/>
                                    </g>
                                  </g>
                                </g>
                              </g>
                            </g>
                          </g>
                        </g>
                      </g>
                    </g>
                  </g>
                </g>
              </g>
            </g>
          </g>
        </g>
      </g>
    </g>
    <g id="archivo" transform="translate(211.05 1294.687)">
      <path id="Trazado_1177206" data-name="Trazado 1177206" d="M12,27.579V2H37.579l6.395,7.194V27.579Z" transform="translate(-1.003 -0.201)" fill="#c7e2fb"/>
      <path id="Trazado_1177207" data-name="Trazado 1177207" d="M14,2V19.585a1.6,1.6,0,0,0,1.6,1.6h4.934a1.6,1.6,0,0,1,1.13.468l4.259,4.259a1.6,1.6,0,0,0,1.13.468H44.375V9.194L37.98,2Z" transform="translate(-1.405 -0.201)" fill="#ebf7fe"/>
      <path id="Trazado_1177208" data-name="Trazado 1177208" d="M8,29.6v23.98a1.6,1.6,0,0,0,1.6,1.6H44.769a1.6,1.6,0,0,0,1.6-1.6V34.395a1.6,1.6,0,0,0-1.6-1.6H23.987l-4.8-4.8H9.6A1.6,1.6,0,0,0,8,29.6Z" transform="translate(-0.201 -5.418)" fill="#f5b95b"/>
      <path id="Trazado_1177209" data-name="Trazado 1177209" d="M45.572,32.8H24.789l-4.8-4.8H12v8.422A15.558,15.558,0,0,0,27.558,51.98H47.171V34.395A1.6,1.6,0,0,0,45.572,32.8Z" transform="translate(-1.003 -5.418)" fill="#f9d18f"/>
      <path id="Trazado_1177210" data-name="Trazado 1177210" d="M44,2V9.194h6.395Z" transform="translate(-7.425 -0.201)" fill="#87a5cd"/>
      <path id="Trazado_1177211" data-name="Trazado 1177211" d="M16,6H35.184v4.8H16Z" transform="translate(-1.806 -1.003)" fill="#698ec0"/>
      <path id="Trazado_1177212" data-name="Trazado 1177212" d="M43.993,51A4,4,0,1,1,36,51Z" transform="translate(-5.819 -10.033)" fill="#976949"/>
      <path id="Trazado_1177213" data-name="Trazado 1177213" d="M40.6,54.957A3.984,3.984,0,0,0,44.194,51H37A3.984,3.984,0,0,0,40.6,54.957Z" transform="translate(-6.02 -10.033)" fill="#c18e5c"/>
      <ellipse id="Elipse_14633" data-name="Elipse 14633" cx="2" cy="1.5" rx="2" ry="1.5" transform="translate(24.967 30.559)" fill="#976949"/>
      <ellipse id="Elipse_14634" data-name="Elipse 14634" cx="1.199" cy="1.542" rx="1.199" ry="1.542" transform="translate(26.184 30.632)" fill="#c18e5c"/>
      <path id="Trazado_1177214" data-name="Trazado 1177214" d="M18,6.853A2.344,2.344,0,0,0,20.344,9.2H35.585V6H18Z" transform="translate(-2.207 -1.003)" fill="#87a5cd"/>
      <path id="Trazado_1177215" data-name="Trazado 1177215" d="M25.993,51A4,4,0,1,1,18,51Z" transform="translate(-2.207 -10.033)" fill="#976949"/>
      <path id="Trazado_1177216" data-name="Trazado 1177216" d="M22.6,54.957A3.984,3.984,0,0,0,26.194,51H19a3.984,3.984,0,0,0,3.6,3.957Z" transform="translate(-2.408 -10.033)" fill="#c18e5c"/>
      <path id="Trazado_1177217" data-name="Trazado 1177217" d="M44.569,26.579h-.8V8.993a.8.8,0,0,0-.2-.532L37.173,1.268a.8.8,0,0,0-.6-.268H11a.8.8,0,0,0-.8.8V21.783H9.4a2.4,2.4,0,0,0-2.4,2.4v23.98a2.4,2.4,0,0,0,2.4,2.4H44.569a2.4,2.4,0,0,0,2.4-2.4V28.977A2.4,2.4,0,0,0,44.569,26.579ZM37.375,3.9,41.19,8.194H37.375ZM11.8,2.6h23.98V8.993a.8.8,0,0,0,.8.8h5.6V26.579H24.117l-4.562-4.562a.8.8,0,0,0-.565-.234H11.8ZM45.368,48.161a.8.8,0,0,1-.8.8H9.4a.8.8,0,0,1-.8-.8V24.181a.8.8,0,0,1,.8-.8h9.261l4.562,4.562a.8.8,0,0,0,.565.234H44.569a.8.8,0,0,1,.8.8Z" transform="translate(0 0)"/>
      <path id="Trazado_1177218" data-name="Trazado 1177218" d="M15.8,11.395H34.983a.8.8,0,0,0,.8-.8V5.8a.8.8,0,0,0-.8-.8H15.8a.8.8,0,0,0-.8.8v4.8A.8.8,0,0,0,15.8,11.395Zm.8-4.8H34.184V9.8H16.6Z" transform="translate(-1.605 -0.803)"/>
      <path id="Trazado_1177219" data-name="Trazado 1177219" d="M15,15H42.177v1.6H15Z" transform="translate(-1.605 -2.809)"/>
      <path id="Trazado_1177220" data-name="Trazado 1177220" d="M15,19H38.98v1.6H15Z" transform="translate(-1.605 -3.612)"/>
      <path id="Trazado_1177221" data-name="Trazado 1177221" d="M15,23H42.177v1.6H15Z" transform="translate(-1.605 -4.415)"/>
      <path id="Trazado_1177222" data-name="Trazado 1177222" d="M27,27H41.388v1.6H27Z" transform="translate(-4.013 -5.217)"/>
      <path id="Trazado_1177223" data-name="Trazado 1177223" d="M47,19h1.6v1.6H47Z" transform="translate(-8.027 -3.612)"/>
      <path id="Trazado_1177224" data-name="Trazado 1177224" d="M47,27h1.6v1.6H47Z" transform="translate(-8.027 -5.217)"/>
      <path id="Trazado_1177225" data-name="Trazado 1177225" d="M40.879,47.8l-4-7.194a.8.8,0,0,0-.7-.411H31.241a2.371,2.371,0,0,0,.147-.8,2.4,2.4,0,1,0-4.8,0,2.371,2.371,0,0,0,.147.8H21.8a.8.8,0,0,0-.7.411l-4,7.194a.8.8,0,0,0-.1.388,4.8,4.8,0,0,0,9.592,0,.8.8,0,0,0-.1-.389L23.155,41.8h5.036V52.987h-3.2v1.6h7.993v-1.6h-3.2V41.8h5.036L31.489,47.8a.8.8,0,0,0-.1.388,4.8,4.8,0,0,0,9.592,0,.8.8,0,0,0-.1-.389ZM21.8,51.388a3.2,3.2,0,0,1-3.1-2.4h6.192A3.2,3.2,0,0,1,21.8,51.388Zm2.638-4H19.158L21.8,42.643ZM28.191,39.4a.8.8,0,1,1,.8.8A.8.8,0,0,1,28.191,39.4Zm7.993,3.244,2.638,4.749H33.546Zm0,8.746a3.2,3.2,0,0,1-3.1-2.4H39.28a3.2,3.2,0,0,1-3.1,2.4Z" transform="translate(-2.007 -7.224)"/>
    </g>
  </g>
</svg>
