<svg xmlns="http://www.w3.org/2000/svg" xmlns:xlink="http://www.w3.org/1999/xlink" width="108" height="108" viewBox="0 0 108 108">
  <defs>
    <filter id="Trazado_904820" x="0" y="0" width="108" height="108" filterUnits="userSpaceOnUse">
      <feOffset dy="3" input="SourceAlpha"/>
      <feGaussianBlur stdDeviation="3" result="blur"/>
      <feFlood flood-opacity="0.161"/>
      <feComposite operator="in" in2="blur"/>
      <feComposite in="SourceGraphic"/>
    </filter>
  </defs>
  <g id="Grupo_1224687" data-name="Grupo 1224687" transform="translate(-200.173 -317)">
    <g id="Grupo_1222710" data-name="Grupo 1222710" transform="translate(209.173 323)">
      <g id="Grupo_1220471" data-name="Grupo 1220471" transform="translate(0 0)">
        <g id="Grupo_1219977" data-name="Grupo 1219977">
          <g id="Grupo_1219603" data-name="Grupo 1219603">
            <g id="Grupo_1202655" data-name="Grupo 1202655">
              <g id="Grupo_1173585" data-name="Grupo 1173585">
                <g id="Grupo_1173428" data-name="Grupo 1173428">
                  <g id="Grupo_1171958" data-name="Grupo 1171958">
                    <g id="Grupo_1167341" data-name="Grupo 1167341">
                      <g id="Grupo_1166792" data-name="Grupo 1166792">
                        <g transform="matrix(1, 0, 0, 1, -9, -6)" filter="url(#Trazado_904820)">
                          <g id="Trazado_904820-2" data-name="Trazado 904820" transform="translate(9 6)" fill="#f7f4ed">
                            <path d="M 44.99999618530273 88.49999237060547 C 39.12687301635742 88.49999237060547 33.43022155761719 87.35006713867188 28.06829643249512 85.08216857910156 C 22.88852119445801 82.89130401611328 18.23629570007324 79.75457763671875 14.24084663391113 75.75914001464844 C 10.24540901184082 71.76369476318359 7.108683586120605 67.11146545410156 4.917821407318115 61.93169403076172 C 2.649921178817749 56.56976699829102 1.499996185302734 50.87311553955078 1.499996185302734 44.99999237060547 C 1.499996185302734 39.12686920166016 2.649921178817749 33.43021774291992 4.917821407318115 28.06829261779785 C 7.108683586120605 22.88851737976074 10.24540901184082 18.23630523681641 14.24084663391113 14.24085521697998 C 18.23629570007324 10.24540519714355 22.88852119445801 7.108692169189453 28.06829643249512 4.917829990386963 C 33.43022155761719 2.649929761886597 39.12687301635742 1.500004887580872 44.99999618530273 1.500004887580872 C 50.87311935424805 1.500004887580872 56.56977081298828 2.649929761886597 61.93169784545898 4.917829990386963 C 67.11147308349609 7.108692169189453 71.76369476318359 10.24540519714355 75.75914764404297 14.24085521697998 C 79.75458526611328 18.23630523681641 82.89131164550781 22.88851737976074 85.08216857910156 28.06829261779785 C 87.35007476806641 33.43021774291992 88.5 39.12686920166016 88.5 44.99999237060547 C 88.5 50.87311553955078 87.35007476806641 56.56976699829102 85.08216857910156 61.93169403076172 C 82.89131164550781 67.11146545410156 79.75458526611328 71.76369476318359 75.75914764404297 75.75914001464844 C 71.76369476318359 79.75457763671875 67.11147308349609 82.89130401611328 61.93169784545898 85.08216857910156 C 56.56977081298828 87.35006713867188 50.87311935424805 88.49999237060547 44.99999618530273 88.49999237060547 Z" stroke="none"/>
                            <path d="M 44.99999618530273 2.999992370605469 C 39.32870864868164 2.999992370605469 33.82865142822266 4.11004638671875 28.65262603759766 6.299331665039062 C 23.65165710449219 8.414566040039062 19.15968322753906 11.44333648681641 15.301513671875 15.30150604248047 C 11.44333648681641 19.15967559814453 8.414566040039062 23.65164947509766 6.299339294433594 28.65262222290039 C 4.110054016113281 33.82864761352539 2.999992370605469 39.32870483398438 2.999992370605469 44.99999237060547 C 2.999992370605469 50.67127990722656 4.110054016113281 56.17132186889648 6.299339294433594 61.34736633300781 C 8.414566040039062 66.34833526611328 11.44333648681641 70.84029388427734 15.301513671875 74.69846343994141 C 19.15968322753906 78.55663299560547 23.65165710449219 81.58540344238281 28.65262603759766 83.70063781738281 C 33.82865142822266 85.88992309570312 39.32870864868164 86.99997711181641 44.99999618530273 86.99997711181641 C 50.67128372192383 86.99997711181641 56.17134094238281 85.88992309570312 61.34736633300781 83.70063781738281 C 66.34834289550781 81.58540344238281 70.84030914306641 78.55663299560547 74.69847869873047 74.69846343994141 C 78.55665588378906 70.84029388427734 81.58542633056641 66.34833526611328 83.70065307617188 61.34736633300781 C 85.88993835449219 56.17132186889648 87 50.67127990722656 87 44.99999237060547 C 87 39.32870483398438 85.88993835449219 33.82864761352539 83.70065307617188 28.65262222290039 C 81.58542633056641 23.65164947509766 78.55665588378906 19.15967559814453 74.69847869873047 15.30150604248047 C 70.84030914306641 11.44333648681641 66.34834289550781 8.414566040039062 61.34736633300781 6.299331665039062 C 56.17134094238281 4.11004638671875 50.67128372192383 2.999992370605469 44.99999618530273 2.999992370605469 M 44.99999618530273 -7.62939453125e-06 C 69.85281372070312 -7.62939453125e-06 90 20.14717864990234 90 44.99999237060547 C 90 69.85279083251953 69.85281372070312 89.99997711181641 44.99999618530273 89.99997711181641 C 20.14717864990234 89.99997711181641 -7.62939453125e-06 69.85279083251953 -7.62939453125e-06 44.99999237060547 C -7.62939453125e-06 20.14717864990234 20.14717864990234 -7.62939453125e-06 44.99999618530273 -7.62939453125e-06 Z" stroke="none" fill="#ba9c5a"/>
                          </g>
                        </g>
                      </g>
                    </g>
                  </g>
                </g>
              </g>
            </g>
          </g>
        </g>
      </g>
    </g>
    <g id="juez_3_" data-name="juez (3)" transform="translate(199.115 335.435)">
      <g id="Grupo_1224686" data-name="Grupo 1224686" transform="translate(29.074 0.878)">
        <path id="Trazado_1177098" data-name="Trazado 1177098" d="M222.945,26.909a1.211,1.211,0,0,1-.412-1.393,4.1,4.1,0,0,0-.615-3.941,1.208,1.208,0,0,1,0-1.5,4.088,4.088,0,0,0-.811-5.823,8.868,8.868,0,0,1-2.275-2.532c-1.644-2.748-4.811-5.7-10.423-3.538a2.333,2.333,0,0,1-1.677,0l-.042-.016h-.746l-3.367,2.689-2.271,2.979-2.064,2.507L200,21.575v4.413l-3.14,2.123-.619,3.568.531,2.3,1.895,1.012a5.517,5.517,0,0,0,1.565-2.214l14.628-.159a5.457,5.457,0,0,0,4.755,3.662,5.21,5.21,0,0,0,3.334-9.372Z" transform="translate(-177.299 -7.439)" fill="#ccc6ce"/>
        <path id="Trazado_1177099" data-name="Trazado 1177099" d="M197.27,293.51l-7.091-2.746-1.541.5-5.018,3.285h-7.255l-4.764-3.81h-1.545l-1.106.432-1.421.771-1.986,2.81-.2.965v8.041l-.164.009.467,3.492,5.516,8.688H194.59l.8-1.179V300.792l4.013-4.556v-1.317A6.933,6.933,0,0,0,197.27,293.51Z" transform="translate(-149.907 -257.323)" fill="#7b6c79"/>
        <path id="Trazado_1177100" data-name="Trazado 1177100" d="M136.558,294.4l-5.98,2.336a7.084,7.084,0,0,0-2.119,1.421v1.055l3.926,4.748.33,2.468.437-.129v-6.562C133.151,297.446,135.045,295.552,136.558,294.4Z" transform="translate(-117.515 -260.553)" fill="#665e68"/>
        <g id="Grupo_1224685" data-name="Grupo 1224685" transform="translate(13.115 0)">
          <path id="Trazado_1177101" data-name="Trazado 1177101" d="M153.348,31.078a5.2,5.2,0,0,1,2.082-4.166,1.211,1.211,0,0,0,.412-1.393,4.1,4.1,0,0,1,.615-3.941,1.208,1.208,0,0,0,0-1.5,4.088,4.088,0,0,1,.811-5.823,8.868,8.868,0,0,0,2.275-2.532,9.1,9.1,0,0,1,3.607-3.554c-5.586-2.134-8.741.813-10.381,3.554a8.872,8.872,0,0,1-2.275,2.532,4.088,4.088,0,0,0-.811,5.823,1.208,1.208,0,0,1,0,1.5,4.1,4.1,0,0,0-.614,3.943,1.208,1.208,0,0,1-.413,1.391,5.221,5.221,0,0,0-1.782,2.426l.485.516h2.566V35.31l.748.859a5.244,5.244,0,0,0,1.316.115,5.16,5.16,0,0,0,3.133-1.289A5.2,5.2,0,0,1,153.348,31.078Z" transform="translate(-146.874 -7.443)" fill="#b7aeb8"/>
        </g>
        <path id="Trazado_1177102" data-name="Trazado 1177102" d="M294.574,243.134a.851.851,0,0,1-.544-.792l0-3.489a8.345,8.345,0,0,1-4.584,1.367c-.153,0-.3,0-.455-.012v6.872h3.47l2.123-2.516.1-1.389Z" transform="translate(-259.109 -211.556)" fill="#ffcebe"/>
        <path id="Trazado_1177103" data-name="Trazado 1177103" d="M251.612,240.126a8.788,8.788,0,0,1-4.7-1.378v3.5a.783.783,0,0,1-.363.689l-.3.117v.773l1.926,3.165h3.441v-6.863Z" transform="translate(-221.408 -211.463)" fill="#ffb1a0"/>
        <path id="Trazado_1177104" data-name="Trazado 1177104" d="M112.892,329.32l-3.019-3.086c-.164.156-.325.323-.482.5l-.409.4v5.55l-1.595,1.668v4.212l.73.588h5.249l1.306-.588v-4.882A6.241,6.241,0,0,0,112.892,329.32Z" transform="translate(-98.929 -288.629)" fill="#544e55"/>
        <path id="Trazado_1177105" data-name="Trazado 1177105" d="M420.238,347.174a1.535,1.535,0,0,0,1.535-1.535V331.877a8.011,8.011,0,0,0-2.475-5.734l-3.03,3.1a6.241,6.241,0,0,0-1.78,4.364v13.57Z" transform="translate(-369.805 -288.548)" fill="#665e68"/>
        <path id="Trazado_1177106" data-name="Trazado 1177106" d="M94.407,269.023V254.437H90.4v14.586a2,2,0,0,0,4.008,0Z" transform="translate(-83.945 -225.301)" fill="#bd7b62"/>
        <path id="Trazado_1177107" data-name="Trazado 1177107" d="M124.985,430.784H118.33l-.5.116-.96.757-.462,1.209v3.275H127.43v-2.912A2.445,2.445,0,0,0,124.985,430.784Z" transform="translate(-106.884 -380.846)" fill="#bd7b62"/>
        <path id="Trazado_1177108" data-name="Trazado 1177108" d="M65.164,430.784H57.813a2.445,2.445,0,0,0-2.445,2.445v2.912h7.351v-2.912A2.445,2.445,0,0,1,65.164,430.784Z" transform="translate(-53.047 -380.846)" fill="#ad6a50"/>
        <path id="Trazado_1177109" data-name="Trazado 1177109" d="M282.819,351.834l-4.3-14.092-2.644-.266-2.038,16.3a20.408,20.408,0,0,0,2.351.138,17.285,17.285,0,0,0,6.18-1.131A.759.759,0,0,0,282.819,351.834Z" transform="translate(-245.748 -298.545)" fill="#dbedff"/>
        <path id="Trazado_1177110" data-name="Trazado 1177110" d="M237.745,337.745l-4.29,14.076a.764.764,0,0,0,.468.952,18.518,18.518,0,0,0,3.191.851l1.748-1.518,1.528-13.85-.521-.772Z" transform="translate(-210.093 -298.551)" fill="#b5dcff"/>
        <path id="Trazado_1177111" data-name="Trazado 1177111" d="M295.444,302.819l-1.4-.773a8.225,8.225,0,0,1-3.364.714c-.04,0-.079,0-.118,0l-.158.21v3.893l.158.137.092,0a6.41,6.41,0,0,0,5.376-2.955Z" transform="translate(-260.359 -267.294)" fill="#b5dcff"/>
        <path id="Trazado_1177112" data-name="Trazado 1177112" d="M250.86,302.775a9.033,9.033,0,0,1-3.45-.708l-1.3.574-.719,1.44a6.467,6.467,0,0,0,5.468,2.934Z" transform="translate(-220.655 -267.312)" fill="#8bcaff"/>
        <path id="Trazado_1177113" data-name="Trazado 1177113" d="M206.5,277.05l3.173,3.173a1.164,1.164,0,0,0,1.646,0l1.614-1.614a1.164,1.164,0,0,0,0-1.646l-1.744-1.744Z" transform="translate(-186.349 -243.631)" fill="#938493"/>
        <path id="Trazado_1177114" data-name="Trazado 1177114" d="M321.805,280.465a1.164,1.164,0,0,0,1.646,0l3.151-3.151-4.7-1.82-1.711,1.711a1.164,1.164,0,0,0,0,1.646Z" transform="translate(-286.331 -243.874)" fill="#938493"/>
        <path id="Trazado_1177115" data-name="Trazado 1177115" d="M57.346,470.46H36.9a1.21,1.21,0,0,0-1.21,1.21v1.588a1.21,1.21,0,0,0,1.21,1.21H57.346a1.21,1.21,0,0,0,1.21-1.21V471.67a1.209,1.209,0,0,0-1.209-1.21Z" transform="translate(-35.689 -415.842)" fill="#ffe559"/>
        <path id="Trazado_1177116" data-name="Trazado 1177116" d="M35.946,197.114l.531.339h3.731V193.6l-.687-.546H36.891a1.2,1.2,0,0,0-1.2,1.2v2.283Z" transform="translate(-35.689 -171.163)" fill="#fbc700"/>
        <path id="Trazado_1177117" data-name="Trazado 1177117" d="M36.891,220.3a1.2,1.2,0,0,1-1.2-1.2v4.273a1.2,1.2,0,0,0,1.2,1.2H39.52l.687-.332v-4.273l-.687.332Z" transform="translate(-35.689 -194.127)" fill="#eab900"/>
        <path id="Trazado_1177118" data-name="Trazado 1177118" d="M144.78,197.452h3.239l.56-.388.247-.48V194.26a1.2,1.2,0,0,0-1.2-1.2H145l-.216.2v4.193Z" transform="translate(-131.912 -171.162)" fill="#fbc700"/>
        <path id="Trazado_1177119" data-name="Trazado 1177119" d="M147.626,220.3H145l-.216-.3v4.273l.216.3h2.629a1.2,1.2,0,0,0,1.2-1.2v-4.273A1.2,1.2,0,0,1,147.626,220.3Z" transform="translate(-131.912 -194.127)" fill="#eab900"/>
        <path id="Trazado_1177120" data-name="Trazado 1177120" d="M68.163,193.058h9.254v4.394H68.163Z" transform="translate(-64.332 -171.162)" fill="#ffe559"/>
        <path id="Trazado_1177121" data-name="Trazado 1177121" d="M68.163,229.281h9.254v4.273H68.163Z" transform="translate(-64.332 -203.112)" fill="#ffd500"/>
        <path id="Trazado_1177122" data-name="Trazado 1177122" d="M276.508,102.662a12.413,12.413,0,0,1-6.248-1.655,3.736,3.736,0,0,0-3.649,0c-.314.176-.665.355-1.044.528l-.329.639v11.147l2.035,3.273,3.06,1.674.442.13.474.034a8.513,8.513,0,0,0,5.643-7.984v-7.412A.374.374,0,0,0,276.508,102.662Z" transform="translate(-238.16 -89.548)" fill="#ffdecf"/>
        <path id="Trazado_1177123" data-name="Trazado 1177123" d="M225.311,117.995v-8.976a11.966,11.966,0,0,1-5.325,1.128.374.374,0,0,0-.388.369v7.478a8.406,8.406,0,0,0,8.629,8.4,8.226,8.226,0,0,0,2.765-.476A8.341,8.341,0,0,1,225.311,117.995Z" transform="translate(-197.904 -97.037)" fill="#ffcebe"/>
        <path id="Trazado_1177124" data-name="Trazado 1177124" d="M111.327,470.46H97.879l-.293.064-.487.457-.211.457v2.123l.366.612.417.225.314.07h13.342a1.21,1.21,0,0,0,1.21-1.21V471.67A1.209,1.209,0,0,0,111.327,470.46Z" transform="translate(-89.67 -415.842)" fill="#ffe559"/>
        <path id="Trazado_1177125" data-name="Trazado 1177125" d="M43.04,473.258V471.67a1.21,1.21,0,0,1,1.21-1.21H36.9a1.21,1.21,0,0,0-1.21,1.21v1.588a1.21,1.21,0,0,0,1.21,1.21H44.25A1.21,1.21,0,0,1,43.04,473.258Z" transform="translate(-35.689 -415.842)" fill="#ffd500"/>
      </g>
      <path id="Trazado_1177126" data-name="Trazado 1177126" d="M30.283,60.388H57.431a.885.885,0,1,0,0-1.769H52.8c0-.025.006-.05.009-.075s0-.038.007-.057c.006-.064.01-.128.01-.194V56.706a2.086,2.086,0,0,0-.094-.622c-.013-.042-.03-.082-.045-.123a20.152,20.152,0,0,0,6.83,1.167h.021a18.139,18.139,0,0,0,6.474-1.189,1.641,1.641,0,0,0,.977-2.035L62.914,40.538a7.36,7.36,0,0,0,2.171-1.865,2.031,2.031,0,0,0,1.735-.578l2.744-2.744,6.545,2.535a5.641,5.641,0,0,1,1.154.655L74.9,40.951a7.086,7.086,0,0,0-2.032,4.983v2.818a.885.885,0,1,0,1.769,0V45.934a5.326,5.326,0,0,1,1.527-3.745l2.375-2.428a7.037,7.037,0,0,1,1.613,4.447V57.969a.651.651,0,0,1-.65.65H74.642V52.88a.885.885,0,0,0-1.769,0v5.739H61.56a.885.885,0,0,0,0,1.769H79.507a2.422,2.422,0,0,0,2.419-2.419V44.207a8.725,8.725,0,0,0-5.153-7.961l-.017-.007-11.877-4.6,0-2.335A9.478,9.478,0,0,0,66.5,27.771,6.317,6.317,0,0,0,71.352,30.6a6.095,6.095,0,0,0,3.9-10.963h0a.325.325,0,0,1-.114-.378,4.98,4.98,0,0,0-.748-4.794.323.323,0,0,1,0-.4A4.925,4.925,0,0,0,75.446,11,4.993,4.993,0,0,0,73.4,6.981a7.965,7.965,0,0,1-2.038-2.272C68.75.337,64.666-1.052,59.866.8a1.442,1.442,0,0,1-1.04,0c-4.8-1.851-8.885-.463-11.5,3.909a7.967,7.967,0,0,1-2.038,2.272A4.993,4.993,0,0,0,43.245,11,4.926,4.926,0,0,0,44.3,14.064a.323.323,0,0,1,0,.4,4.98,4.98,0,0,0-.746,4.8.323.323,0,0,1-.116.375A6.082,6.082,0,0,0,41.6,21.889H30.275a2.089,2.089,0,0,0-2.086,2.086v6.142A2.089,2.089,0,0,0,30.275,32.2h4.367V44.6a2.893,2.893,0,0,0,2,2.749v2.582H33.84a3.333,3.333,0,0,0-3.33,3.33v1.351h-.227a2.1,2.1,0,0,0-2.094,2.094v1.588a2.1,2.1,0,0,0,2.094,2.094Zm21.307-6.505a1.638,1.638,0,0,0-.027.9,2.08,2.08,0,0,0-.832-.174H50.5V53.261a3.333,3.333,0,0,0-3.33-3.33H45.7v-4a7.085,7.085,0,0,0-2.032-4.983l-2.35-2.4a5.575,5.575,0,0,1,1.148-.663l6.54-2.554,2.764,2.764a2.037,2.037,0,0,0,1.69.583,7.13,7.13,0,0,0,2.2,1.866Zm-7.659-7.95v4H38.416V47.35a2.9,2.9,0,0,0,2-2.75h0V40.16L42.4,42.188A5.326,5.326,0,0,1,43.931,45.933Zm6.874-11.305L53.694,33.5l1.335,1.335a.279.279,0,0,1,0,.395l-1.614,1.614a.281.281,0,0,1-.394,0Zm14.463,19.7a16.378,16.378,0,0,1-2.887.783L61.908,51.3a.885.885,0,1,0-1.756.218l.472,3.809q-.541.036-1.087.036h-.019q-.788,0-1.56-.063l.468-3.781a.885.885,0,0,0-1.756-.218L56.2,55.07a17.641,17.641,0,0,1-2.892-.764L57.306,41.2a8.124,8.124,0,0,0,2.063.266h.014a7.206,7.206,0,0,0,1.887-.253ZM59.378,39.7h-.006A5.677,5.677,0,0,1,55,37.763l1.084-1.084a10.053,10.053,0,0,0,3.313.549h.011a9.059,9.059,0,0,0,3.106-.545l1.053,1.053A5.5,5.5,0,0,1,59.378,39.7Zm-4.152-7.168a1.7,1.7,0,0,0,.232-.87V30.323a9.76,9.76,0,0,0,7.651.023v1.321a1.737,1.737,0,0,0,.238.877l-1.039,1.039a2.041,2.041,0,0,0-.6,1.5,7.212,7.212,0,0,1-2.315.371,8.352,8.352,0,0,1-2.52-.381,2.041,2.041,0,0,0-.6-1.494ZM67.76,34.652l-2.191,2.191a.279.279,0,0,1-.395,0h0L63.56,35.23h0a.279.279,0,0,1,0-.394l1.3-1.3Zm-.839-12.879a7.635,7.635,0,0,1-15.268.062V14.877a13.42,13.42,0,0,0,6.3-1.773,2.83,2.83,0,0,1,2.668-.057,13.791,13.791,0,0,0,6.3,1.828ZM44.5,21.055a2.084,2.084,0,0,0,.711-2.406,3.211,3.211,0,0,1,.481-3.09,2.093,2.093,0,0,0,0-2.587A3.172,3.172,0,0,1,45.014,11,3.218,3.218,0,0,1,46.331,8.41a9.8,9.8,0,0,0,2.512-2.792C51.027,1.967,54.172.9,58.189,2.451a3.209,3.209,0,0,0,2.314,0C64.519.9,67.664,1.967,69.848,5.618A9.8,9.8,0,0,0,72.36,8.41,3.217,3.217,0,0,1,73.677,11,3.171,3.171,0,0,1,73,12.973a2.093,2.093,0,0,0,0,2.587,3.21,3.21,0,0,1,.482,3.087,2.087,2.087,0,0,0,.71,2.408,4.325,4.325,0,0,1-2.768,7.781,4.538,4.538,0,0,1-3.812-2.7,9.329,9.329,0,0,0,1.082-4.358c0-8.179,0-7.357,0-7.453a1.251,1.251,0,0,0-1.28-1.213,11.552,11.552,0,0,1-5.8-1.543,4.59,4.59,0,0,0-4.512,0c-.142.079-.294.16-.453.241a11.306,11.306,0,0,1-5.462,1.3,1.255,1.255,0,0,0-1.295,1.26v7.472a9.284,9.284,0,0,0,1.13,4.443,4.569,4.569,0,0,1-3.742,2.557q-.2.008-.4,0V23.975a2.089,2.089,0,0,0-2.086-2.086H43.661A4.345,4.345,0,0,1,44.5,21.055Zm-1.46,2.6h1.744a.317.317,0,0,1,.317.317v6.142a.317.317,0,0,1-.317.317H43.043ZM44.787,32.2A2.089,2.089,0,0,0,46.815,30.6c.175.008.349.012.524,0a6.26,6.26,0,0,0,4.781-2.727,8.886,8.886,0,0,0,1.568,1.442V31.6L41.814,36.24l-.015.006a7.2,7.2,0,0,0-1.38.767V32.2ZM32.019,30.434H30.275a.317.317,0,0,1-.317-.317V23.975a.317.317,0,0,1,.317-.317h1.744Zm1.769,0V23.658h7.484v6.776ZM36.412,44.6V32.2H38.65v6.778h0V44.6a1.119,1.119,0,1,1-2.238,0ZM32.28,53.261a1.562,1.562,0,0,1,1.56-1.56H47.175a1.562,1.562,0,0,1,1.56,1.56v1.35H32.28Zm-2.321,3.445a.325.325,0,0,1,.325-.325H50.731a.325.325,0,0,1,.325.325v1.588a.325.325,0,0,1-.325.325H30.283a.325.325,0,0,1-.325-.325V56.706Z" transform="translate(0 0)"/>
    </g>
  </g>
</svg>
