<svg xmlns="http://www.w3.org/2000/svg" xmlns:xlink="http://www.w3.org/1999/xlink" width="108" height="108" viewBox="0 0 108 108">
  <defs>
    <filter id="Trazado_904820" x="0" y="0" width="108" height="108" filterUnits="userSpaceOnUse">
      <feOffset dy="3" input="SourceAlpha"/>
      <feGaussianBlur stdDeviation="3" result="blur"/>
      <feFlood flood-opacity="0.161"/>
      <feComposite operator="in" in2="blur"/>
      <feComposite in="SourceGraphic"/>
    </filter>
  </defs>
  <g id="Grupo_1224814" data-name="Grupo 1224814" transform="translate(-718.617 -5427.146)">
    <g id="Grupo_1222789" data-name="Grupo 1222789" transform="translate(727.617 5433.146)">
      <g id="Grupo_1221054" data-name="Grupo 1221054" transform="translate(0 0)">
        <g id="Grupo_1203639" data-name="Grupo 1203639" transform="translate(0 0)">
          <g id="Grupo_1202437" data-name="Grupo 1202437">
            <g id="Grupo_1177315" data-name="Grupo 1177315">
              <g id="Grupo_1173585" data-name="Grupo 1173585">
                <g id="Grupo_1173428" data-name="Grupo 1173428">
                  <g id="Grupo_1171958" data-name="Grupo 1171958">
                    <g id="Grupo_1167341" data-name="Grupo 1167341">
                      <g id="Grupo_1166792" data-name="Grupo 1166792">
                        <g transform="matrix(1, 0, 0, 1, -9, -6)" filter="url(#Trazado_904820)">
                          <g id="Trazado_904820-2" data-name="Trazado 904820" transform="translate(9 6)" fill="#edeef2">
                            <path d="M 44.99999618530273 88.49996948242188 C 39.12687301635742 88.49996948242188 33.43022155761719 87.35004425048828 28.06829643249512 85.08214569091797 C 22.88852119445801 82.89128112792969 18.23629570007324 79.75457000732422 14.24084663391113 75.75912475585938 C 10.24540901184082 71.763671875 7.108683586120605 67.1114501953125 4.917821407318115 61.93168640136719 C 2.649921178817749 56.56974792480469 1.499996185302734 50.87310791015625 1.499996185302734 44.99998474121094 C 1.499996185302734 39.12686157226562 2.649921178817749 33.43021011352539 4.917821407318115 28.06828498840332 C 7.108683586120605 22.88850975036621 10.24540901184082 18.23629760742188 14.24084663391113 14.24084758758545 C 18.23629570007324 10.24539756774902 22.88852119445801 7.108684539794922 28.06829643249512 4.917822360992432 C 33.43022155761719 2.649922132492065 39.12687301635742 1.49999725818634 44.99999618530273 1.49999725818634 C 50.87311935424805 1.49999725818634 56.56977081298828 2.649922132492065 61.93169784545898 4.917822360992432 C 67.11147308349609 7.108684539794922 71.76369476318359 10.24539756774902 75.75914764404297 14.24084758758545 C 79.75458526611328 18.23629760742188 82.89131164550781 22.88850975036621 85.08216857910156 28.06828498840332 C 87.35007476806641 33.43021011352539 88.5 39.12686157226562 88.5 44.99998474121094 C 88.5 50.87310791015625 87.35007476806641 56.56974792480469 85.08216857910156 61.93168640136719 C 82.89131164550781 67.1114501953125 79.75458526611328 71.763671875 75.75914764404297 75.75912475585938 C 71.76369476318359 79.75457000732422 67.11147308349609 82.89128112792969 61.93169784545898 85.08214569091797 C 56.56977081298828 87.35004425048828 50.87311935424805 88.49996948242188 44.99999618530273 88.49996948242188 Z" stroke="none"/>
                            <path d="M 44.99999618530273 3 C 39.32870864868164 3 33.82865142822266 4.110054016113281 28.65262603759766 6.299339294433594 C 23.65165710449219 8.414573669433594 19.15968322753906 11.44334411621094 15.301513671875 15.301513671875 C 11.44333648681641 19.15968322753906 8.414566040039062 23.65164184570312 6.299339294433594 28.65261459350586 C 4.110054016113281 33.82865524291992 2.999992370605469 39.32869720458984 2.999992370605469 44.99998474121094 C 2.999992370605469 50.67127227783203 4.110054016113281 56.17131423950195 6.299339294433594 61.34735870361328 C 8.414566040039062 66.34832763671875 11.44333648681641 70.84028625488281 15.301513671875 74.69845581054688 C 19.15968322753906 78.55662536621094 23.65165710449219 81.58539581298828 28.65262603759766 83.70063018798828 C 33.82865142822266 85.88991546630859 39.32870864868164 86.99996948242188 44.99999618530273 86.99996948242188 C 50.67128372192383 86.99996948242188 56.17134094238281 85.88991546630859 61.34736633300781 83.70063018798828 C 66.34834289550781 81.58539581298828 70.84030914306641 78.55662536621094 74.69847869873047 74.69845581054688 C 78.55665588378906 70.84028625488281 81.58542633056641 66.34832763671875 83.70065307617188 61.34735870361328 C 85.88993835449219 56.17131423950195 87 50.67127227783203 87 44.99998474121094 C 87 39.32869720458984 85.88993835449219 33.82865524291992 83.70065307617188 28.65261459350586 C 81.58542633056641 23.65164184570312 78.55665588378906 19.15968322753906 74.69847869873047 15.301513671875 C 70.84030914306641 11.44334411621094 66.34834289550781 8.414573669433594 61.34736633300781 6.299339294433594 C 56.17134094238281 4.110054016113281 50.67128372192383 3 44.99999618530273 3 M 44.99999618530273 0 C 69.85281372070312 0 90 20.14718627929688 90 44.99998474121094 C 90 69.852783203125 69.85281372070312 89.99996948242188 44.99999618530273 89.99996948242188 C 20.14717864990234 89.99996948242188 -7.62939453125e-06 69.852783203125 -7.62939453125e-06 44.99998474121094 C -7.62939453125e-06 20.14718627929688 20.14717864990234 0 44.99999618530273 0 Z" stroke="none" fill="#56678d"/>
                          </g>
                        </g>
                      </g>
                    </g>
                  </g>
                </g>
              </g>
            </g>
          </g>
        </g>
      </g>
    </g>
    <g id="palacio-de-justicia" transform="translate(744.271 5446)">
      <path id="Trazado_1177525" data-name="Trazado 1177525" d="M54.057,46.114,53.175,32H47.882L47,46.114Z" transform="translate(-5.421 -3.653)" fill="#ddd"/>
      <path id="Trazado_1177526" data-name="Trazado 1177526" d="M35.057,46.114,34.175,32H28.882L28,46.114Z" transform="translate(-3.182 -3.653)" fill="#ddd"/>
      <path id="Trazado_1177527" data-name="Trazado 1177527" d="M16.057,46.114,15.175,32H9.882L9,46.114Z" transform="translate(-0.943 -3.653)" fill="#ddd"/>
      <path id="Trazado_1177528" data-name="Trazado 1177528" d="M9,28v2.646a.882.882,0,0,0,.882.882h5.293a.882.882,0,0,0,.882-.882V28" transform="translate(-0.943 -3.182)" fill="#ccc"/>
      <path id="Trazado_1177529" data-name="Trazado 1177529" d="M7,51.529V49.764A1.764,1.764,0,0,1,8.764,48h7.057a1.764,1.764,0,0,1,1.764,1.764v1.764" transform="translate(-0.707 -5.539)" fill="#ccc"/>
      <path id="Trazado_1177530" data-name="Trazado 1177530" d="M50.841,25.525H7.349L29.095,7Z" transform="translate(-0.748 -0.707)" fill="#b5b5b5"/>
      <path id="Trazado_1177531" data-name="Trazado 1177531" d="M54.929,24.055,28.464,2,2,24.055,4.646,26.7,28.464,6.411,52.282,26.7Z" transform="translate(-0.118 -0.118)" fill="#939393"/>
      <path id="Trazado_1177532" data-name="Trazado 1177532" d="M3.764,56h49.4a1.764,1.764,0,0,1,1.764,1.764v3.529H2V57.764A1.764,1.764,0,0,1,3.764,56Z" transform="translate(-0.118 -6.482)" fill="#939393"/>
      <path id="Trazado_1177533" data-name="Trazado 1177533" d="M4,55.529V53.764A1.764,1.764,0,0,1,5.764,52H51.636A1.764,1.764,0,0,1,53.4,53.764v1.764" transform="translate(-0.354 -6.011)" fill="#b5b5b5"/>
      <g id="Grupo_1224813" data-name="Grupo 1224813" transform="translate(23.054 24.818)">
        <path id="Trazado_1177534" data-name="Trazado 1177534" d="M28,28v2.646a.882.882,0,0,0,.882.882h5.293a.882.882,0,0,0,.882-.882V28" transform="translate(-26.236 -28)" fill="#ccc"/>
        <path id="Trazado_1177535" data-name="Trazado 1177535" d="M26,51.529V49.764A1.764,1.764,0,0,1,27.764,48h7.057a1.764,1.764,0,0,1,1.764,1.764v1.764" transform="translate(-26 -30.357)" fill="#ccc"/>
        <path id="Trazado_1177536" data-name="Trazado 1177536" d="M47,28v2.646a.882.882,0,0,0,.882.882h5.293a.882.882,0,0,0,.882-.882V28" transform="translate(-28.475 -28)" fill="#ccc"/>
        <path id="Trazado_1177537" data-name="Trazado 1177537" d="M45,51.529V49.764A1.764,1.764,0,0,1,46.764,48h7.057a1.764,1.764,0,0,1,1.764,1.764v1.764" transform="translate(-28.239 -30.357)" fill="#ccc"/>
      </g>
      <path id="Trazado_1177538" data-name="Trazado 1177538" d="M33.058,18.175v1.764h3.529V18.175H35.7V15.529h.881V13.764H32.175V12H30.411v1.764H26v1.764h.882v2.646H26v1.764h3.529V18.175h-.882V15.529h1.764V21.7H28.646v1.764h5.293V21.7H32.175V15.529H33.94v2.646Z" transform="translate(-2.946 -1.296)" fill="#f9d266"/>
      <path id="Trazado_1177539" data-name="Trazado 1177539" d="M53.929,48.8V47.754a2.646,2.646,0,0,0-2.646-2.646v-.882a2.641,2.641,0,0,0-1.808-2.5L48.68,28.961a1.764,1.764,0,0,0,.838-1.5V25.7h.249l1.826,1.555a.882.882,0,0,0,1.2-.049l2.646-2.646a.882.882,0,0,0-.058-1.3L28.912,1.206a.882.882,0,0,0-1.131,0L1.317,23.259a.882.882,0,0,0-.058,1.3L3.9,27.207a.882.882,0,0,0,1.2.049L6.926,25.7h.249v1.764a1.764,1.764,0,0,0,.842,1.5L7.223,41.73a2.641,2.641,0,0,0-1.812,2.495v.882a2.646,2.646,0,0,0-2.646,2.646V48.8A2.646,2.646,0,0,0,1,51.282v3.529a.882.882,0,0,0,.882.882H54.811a.882.882,0,0,0,.882-.882V51.282A2.646,2.646,0,0,0,53.929,48.8Zm-4.411-3.691H40.7v-.882a.882.882,0,0,1,.882-.882h7.057a.882.882,0,0,1,.882.882Zm-33.566-3.38-.794-12.766a1.764,1.764,0,0,0,.838-1.5V25.7h7.939v1.764a1.764,1.764,0,0,0,.842,1.5L23.983,41.73a2.641,2.641,0,0,0-1.812,2.495v.882H17.761v-.882a2.641,2.641,0,0,0-1.808-2.5ZM13.4,29.229l.772,12.35H9l.772-12.35Zm33.522,0,.772,12.35h-5.18l.772-12.35ZM8.993,23.936,28.346,7.451,47.7,23.936Zm17.532,5.293h3.636l.772,12.35H25.757Zm4.468-1.764H25.7V25.7h5.293ZM23.936,44.225a.882.882,0,0,1,.882-.882h7.057a.882.882,0,0,1,.882.882v.882H23.936Zm8.777-2.5-.794-12.766a1.764,1.764,0,0,0,.838-1.5V25.7H40.7v1.764a1.764,1.764,0,0,0,.842,1.5L40.744,41.73a2.641,2.641,0,0,0-1.812,2.495v.882H34.522v-.882a2.641,2.641,0,0,0-1.808-2.5ZM47.754,27.464H42.461V25.7h5.293ZM4.577,25.384,3.189,24,28.346,3.029,53.5,24l-1.388,1.388-23.2-19.76a.882.882,0,0,0-1.147,0Zm9.655.316v1.764H8.939V25.7ZM7.175,44.225a.882.882,0,0,1,.882-.882h7.057a.882.882,0,0,1,.882.882v.882H7.175ZM5.411,46.872H51.282a.882.882,0,0,1,.882.882v.882H4.529v-.882A.882.882,0,0,1,5.411,46.872Zm48.518,7.057H2.764V51.282a.882.882,0,0,1,.882-.882h49.4a.882.882,0,0,1,.882.882Z" transform="translate(0)"/>
      <path id="Trazado_1177540" data-name="Trazado 1177540" d="M33.058,18.175v1.764h3.529V18.175H35.7V15.529h.881V13.764H32.175V12H30.411v1.764H26v1.764h.882v2.646H26v1.764h3.529V18.175h-.882V15.529h1.764V21.7H28.646v1.764h5.293V21.7H32.175V15.529H33.94v2.646Z" transform="translate(-2.946 -1.296)"/>
    </g>
  </g>
</svg>
