<svg xmlns="http://www.w3.org/2000/svg" xmlns:xlink="http://www.w3.org/1999/xlink" width="108" height="108" viewBox="0 0 108 108">
  <defs>
    <filter id="Trazado_904820" x="0" y="0" width="108" height="108" filterUnits="userSpaceOnUse">
      <feOffset dy="3" input="SourceAlpha"/>
      <feGaussianBlur stdDeviation="3" result="blur"/>
      <feFlood flood-opacity="0.161"/>
      <feComposite operator="in" in2="blur"/>
      <feComposite in="SourceGraphic"/>
    </filter>
  </defs>
  <g id="Grupo_1224821" data-name="Grupo 1224821" transform="translate(-199 -7011.766)">
    <g id="Grupo_1224817" data-name="Grupo 1224817" transform="translate(208 7017.766)">
      <g id="Grupo_1221443" data-name="Grupo 1221443" transform="translate(0 0)">
        <g id="Grupo_1220569" data-name="Grupo 1220569">
          <g id="Grupo_1219977" data-name="Grupo 1219977">
            <g id="Grupo_1219603" data-name="Grupo 1219603">
              <g id="Grupo_1202655" data-name="Grupo 1202655">
                <g id="Grupo_1173585" data-name="Grupo 1173585">
                  <g id="Grupo_1173428" data-name="Grupo 1173428">
                    <g id="Grupo_1171958" data-name="Grupo 1171958">
                      <g id="Grupo_1167341" data-name="Grupo 1167341">
                        <g id="Grupo_1166792" data-name="Grupo 1166792">
                          <g transform="matrix(1, 0, 0, 1, -9, -6)" filter="url(#Trazado_904820)">
                            <g id="Trazado_904820-2" data-name="Trazado 904820" transform="translate(9 6)" fill="#e5f0f6">
                              <path d="M 44.99999618530273 88.49990081787109 C 39.12687301635742 88.49990081787109 33.43022155761719 87.3499755859375 28.06829643249512 85.08207702636719 C 22.88852119445801 82.89122009277344 18.23629570007324 79.75450134277344 14.24084663391113 75.75906372070312 C 10.24540901184082 71.76361846923828 7.108683586120605 67.11140441894531 4.917821407318115 61.931640625 C 2.649921178817749 56.56971740722656 1.499996185302734 50.87306594848633 1.499996185302734 44.99995422363281 C 1.499996185302734 39.1268424987793 2.649921178817749 33.43019104003906 4.917821407318115 28.06826591491699 C 7.108683586120605 22.88850402832031 10.24540901184082 18.23629188537598 14.24084663391113 14.24084186553955 C 18.23629570007324 10.24540424346924 22.88852119445801 7.108691692352295 28.06829643249512 4.917829036712646 C 33.43022155761719 2.649929285049438 39.12687301635742 1.500004172325134 44.99999618530273 1.500004172325134 C 50.87311935424805 1.500004172325134 56.56977081298828 2.649929285049438 61.93169784545898 4.917829036712646 C 67.11147308349609 7.108691692352295 71.76369476318359 10.24540424346924 75.75914764404297 14.24084186553955 C 79.75458526611328 18.23629188537598 82.89131164550781 22.88850402832031 85.08216857910156 28.06826591491699 C 87.35007476806641 33.43019104003906 88.5 39.1268424987793 88.5 44.99995422363281 C 88.5 50.87306594848633 87.35007476806641 56.56971740722656 85.08216857910156 61.931640625 C 82.89131164550781 67.11140441894531 79.75458526611328 71.76361846923828 75.75914764404297 75.75906372070312 C 71.76369476318359 79.75450134277344 67.11147308349609 82.89122009277344 61.93169784545898 85.08207702636719 C 56.56977081298828 87.3499755859375 50.87311935424805 88.49990081787109 44.99999618530273 88.49990081787109 Z" stroke="none"/>
                              <path d="M 44.99999618530273 3 C 39.32870864868164 3 33.82865142822266 4.110054016113281 28.65262603759766 6.299324035644531 C 23.65165710449219 8.414566040039062 19.15968322753906 11.44332885742188 15.301513671875 15.30149841308594 C 11.44333648681641 19.15966796875 8.414566040039062 23.65162658691406 6.299339294433594 28.65259552001953 C 4.110054016113281 33.8286247253418 2.999992370605469 39.32866668701172 2.999992370605469 44.99995422363281 C 2.999992370605469 50.67124176025391 4.110054016113281 56.17128372192383 6.299339294433594 61.34731292724609 C 8.414566040039062 66.34828186035156 11.44333648681641 70.84024047851562 15.301513671875 74.69841003417969 C 19.15968322753906 78.55657958984375 23.65165710449219 81.58534240722656 28.65262603759766 83.70058441162109 C 33.82865142822266 85.88985443115234 39.32870864868164 86.99990844726562 44.99999618530273 86.99990844726562 C 50.67128372192383 86.99990844726562 56.17134094238281 85.88985443115234 61.34736633300781 83.70058441162109 C 66.34834289550781 81.58534240722656 70.84030914306641 78.55657958984375 74.69847869873047 74.69841003417969 C 78.55665588378906 70.84024047851562 81.58542633056641 66.34828186035156 83.70065307617188 61.34731292724609 C 85.88993835449219 56.17128372192383 87 50.67124176025391 87 44.99995422363281 C 87 39.32866668701172 85.88993835449219 33.8286247253418 83.70065307617188 28.65259552001953 C 81.58542633056641 23.65162658691406 78.55665588378906 19.15966796875 74.69847869873047 15.30149841308594 C 70.84030914306641 11.44332885742188 66.34834289550781 8.414566040039062 61.34736633300781 6.299324035644531 C 56.17134094238281 4.110054016113281 50.67128372192383 3 44.99999618530273 3 M 44.99999618530273 0 C 69.85281372070312 0 90 20.14717102050781 90 44.99995422363281 C 90 69.85273742675781 69.85281372070312 89.99990844726562 44.99999618530273 89.99990844726562 C 20.14717864990234 89.99990844726562 -7.62939453125e-06 69.85273742675781 -7.62939453125e-06 44.99995422363281 C -7.62939453125e-06 20.14717102050781 20.14717864990234 0 44.99999618530273 0 Z" stroke="none" fill="#1172b3"/>
                            </g>
                          </g>
                        </g>
                      </g>
                    </g>
                  </g>
                </g>
              </g>
            </g>
          </g>
        </g>
      </g>
    </g>
    <g id="igualdad-social" transform="translate(223.191 7032.958)">
      <g id="Grupo_1224818" data-name="Grupo 1224818" transform="translate(0.727 0.873)">
        <path id="Trazado_1177541" data-name="Trazado 1177541" d="M243.469,46.034h-.727a1.4,1.4,0,0,1-1.4-1.4V9.483a1.4,1.4,0,0,1,.884-1.3c.159-.063.372.034.554.034l.465.263c.768,0,1.406.211,1.406.979l.089,35.242A1.244,1.244,0,0,1,243.469,46.034Z" transform="translate(-213.97 -8.086)" fill="#ffd15b"/>
        <path id="Trazado_1177542" data-name="Trazado 1177542" d="M251.571,8.9V44.05a1.4,1.4,0,0,1-1.4,1.4h-.727a1.376,1.376,0,0,1-.513-.1,1.4,1.4,0,0,0,.885-1.3V8.9a1.4,1.4,0,0,0-.885-1.3,1.376,1.376,0,0,1,.514-.1h.727a1.4,1.4,0,0,1,1.4,1.4Z" transform="translate(-220.675 -7.5)" fill="#ffc143"/>
        <path id="Trazado_1177543" data-name="Trazado 1177543" d="M216.419,284.53l-3.377-.112h-5.119a1.4,1.4,0,0,0-1.4,1.4v1.632a1.4,1.4,0,0,0,1.4,1.4l4.659.935,3.851-1.1a1.266,1.266,0,0,0,1.4-1.227v-1.632A1.322,1.322,0,0,0,216.419,284.53Z" transform="translate(-183.204 -252.175)" fill="#ffe177"/>
        <path id="Trazado_1177544" data-name="Trazado 1177544" d="M265.01,285.814v1.632a1.4,1.4,0,0,1-1.4,1.395l-1.985.563-2.074-.563a1.4,1.4,0,0,0,1.4-1.395v-1.632a1.4,1.4,0,0,0-1.4-1.4h4.058A1.4,1.4,0,0,1,265.01,285.814Z" transform="translate(-230.06 -252.174)" fill="#ffd15b"/>
        <path id="Trazado_1177545" data-name="Trazado 1177545" d="M166.123,328.018v-4a1.6,1.6,0,0,1,1.6-1.6h8.833l8.7.154a1.458,1.458,0,0,1,1.58,1.446l-.089,5.12c0,.884-.306,1.6-1.19,1.6H171.237Z" transform="translate(-147.506 -285.75)" fill="#ffd15b"/>
        <path id="Trazado_1177546" data-name="Trazado 1177546" d="M263.829,324.02v5.12a1.6,1.6,0,0,1-1.6,1.6h-9.335a1.6,1.6,0,0,0,1.6-1.6v-5.12a1.6,1.6,0,0,0-1.6-1.6h9.335A1.6,1.6,0,0,1,263.829,324.02Z" transform="translate(-224.175 -285.752)" fill="#ffc143"/>
        <path id="Trazado_1177547" data-name="Trazado 1177547" d="M395.966,356.538l4.756-1.2a2.331,2.331,0,0,1,3.044,2.178,2.452,2.452,0,0,1-1.656,2.319l-4.429,1.863Z" transform="translate(-350.587 -314.759)" fill="#c46255"/>
        <path id="Trazado_1177548" data-name="Trazado 1177548" d="M54.1,358.387l2.106.981c.665.007,3.557-1.85,4.2-2.014l5.724-1.462a2.723,2.723,0,0,1,1.714,5.155l-10.868,4.494a9.1,9.1,0,0,1-3.477.69H42.876a6.065,6.065,0,0,0-5.457,3.417l-.986,1.894a.813.813,0,0,1-.722.438L23,371.974a.333.333,0,0,1-.273-.524l5.562-7.974a6.037,6.037,0,0,0,1.086-3.377,5.64,5.64,0,0,1,2.275-4.454h0a5.7,5.7,0,0,1,3.413-1.126Z" transform="translate(-20.754 -314.113)" fill="#ce7165"/>
        <path id="Trazado_1177549" data-name="Trazado 1177549" d="M187.2,384.391l-12.472.458a1.275,1.275,0,0,1-1.375-1.163c0-.036,0-.071,0-.107a1.275,1.275,0,0,1,1.168-1.268L184.8,381.2l2.016-1.3h1.644a7.668,7.668,0,0,0,1.972-.236l3.118-.794C193.653,381.3,191.527,384.391,187.2,384.391Z" transform="translate(-153.892 -335.635)" fill="#c46255"/>
        <path id="Trazado_1177550" data-name="Trazado 1177550" d="M129.131,354.518h17.862a2.544,2.544,0,0,1,.193,5.081l-11.819.9Z" transform="translate(-114.822 -314.113)" fill="#ce7165"/>
        <path id="Trazado_1177551" data-name="Trazado 1177551" d="M79.153,63.384h41.291v3.68H79.153Z" transform="translate(-70.663 -56.877)" fill="#ffc143"/>
        <path id="Trazado_1177552" data-name="Trazado 1177552" d="M9.113,177.412a10.055,10.055,0,0,1-1.405-1.448c-.033-.051-.134-.128-.166-.18a8.9,8.9,0,0,1,12.243-12.243c.072.044.153.192.224.238a9.372,9.372,0,0,1,1.285,1.352,8.08,8.08,0,0,1-.1,11.883c-3.472,3.472-8.608,3.871-12.082.4Z" transform="translate(-6.236 -144.219)" fill="#f2fbff"/>
        <path id="Trazado_1177553" data-name="Trazado 1177553" d="M31.346,187.346a8.91,8.91,0,0,1-1.352,1.11,32.708,32.708,0,0,1-4.879.73,29.089,29.089,0,0,1-5.018-.738,8.948,8.948,0,0,1-2.647-2.756,8.9,8.9,0,0,0,12.243-12.243,8.915,8.915,0,0,1,1.653,13.9Z" transform="translate(-16.144 -154.127)" fill="#dff6fd"/>
        <path id="Trazado_1177554" data-name="Trazado 1177554" d="M39.3,249.99v-.565a2.259,2.259,0,0,1,1.658-2.177l1.238-.267c.033-.009.1-.182.13-.2a.625.625,0,0,0,.366-.568v-2.5h3.321v2.5a.626.626,0,0,0,.369.571.719.719,0,0,0,.089.052l1.284.408a2.259,2.259,0,0,1,1.658,2.177v.565H39.3Z" transform="translate(-35.45 -216.21)" fill="#c46255"/>
        <path id="Trazado_1177555" data-name="Trazado 1177555" d="M57.845,198.88l.386.219a2.013,2.013,0,0,0,1.987,0l.386-.219a3.381,3.381,0,0,0,1.713-2.94v-.859a3.092,3.092,0,0,0-6.184,0v.859A3.381,3.381,0,0,0,57.845,198.88Z" transform="translate(-50.322 -170.513)" fill="#ce7165"/>
        <path id="Trazado_1177556" data-name="Trazado 1177556" d="M357.489,178.314c-.436-.436-1.118-.738-1.443-1.235-.048-.073-.226-.219-.271-.293A8.775,8.775,0,0,1,367.84,164.72c.07.043.137.137.205.182a7.411,7.411,0,0,1,1.168,1.174,8.146,8.146,0,0,1-.049,11.871C365.743,181.369,360.913,181.738,357.489,178.314Z" transform="translate(-313.939 -145.277)" fill="#f2fbff"/>
        <path id="Trazado_1177557" data-name="Trazado 1177557" d="M379.236,188.18a8.775,8.775,0,0,1-1.317,1.083l-4.9-.151-4.866.158a8.821,8.821,0,0,1-2.614-2.72,8.775,8.775,0,0,0,12.066-12.066,8.786,8.786,0,0,1,1.629,13.7Z" transform="translate(-323.705 -155.041)" fill="#dff6fd"/>
        <path id="Trazado_1177558" data-name="Trazado 1177558" d="M386.536,249.99v-.565a2.259,2.259,0,0,1,1.658-2.177l1.287-.382c.036-.01.048-.063.081-.08a.655.655,0,0,0,.366-.568v-2.5h3.32v2.5a.626.626,0,0,0,.369.57c.029.013.054.091.086.1l1.288.36a2.259,2.259,0,0,1,1.658,2.177v.565H386.536Z" transform="translate(-342.255 -216.21)" fill="#ffcebe"/>
        <path id="Trazado_1177559" data-name="Trazado 1177559" d="M405.081,198.88l.386.219a2.013,2.013,0,0,0,1.987,0l.386-.219a3.381,3.381,0,0,0,1.713-2.94v-.859a3.092,3.092,0,0,0-6.185,0v.859A3.38,3.38,0,0,0,405.081,198.88Z" transform="translate(-357.128 -170.513)" fill="#ffdfcf"/>
        <path id="Trazado_1177560" data-name="Trazado 1177560" d="M392.737,270.422a8.172,8.172,0,0,1-5.236,4.491h0a7.6,7.6,0,0,1-3.006-1.584l-.269-.727a2.1,2.1,0,0,1,.667-1.479,2.261,2.261,0,0,1,.987-.572l1.547-.427a.527.527,0,0,0,.093-.035l.083.187a2.2,2.2,0,0,0,3.888,0l.085-.185a.6.6,0,0,0,.091.033Z" transform="translate(-340.211 -239.515)" fill="#b3dafe"/>
        <path id="Trazado_1177561" data-name="Trazado 1177561" d="M408.437,54.259a2.873,2.873,0,0,1-2.91,3.084,3.16,3.16,0,0,1-3.035-1.868c0-.009-.026-.026-.029-.034a3.192,3.192,0,0,1,2.978-4.338,2.981,2.981,0,0,1,1.147.214A3.032,3.032,0,0,1,408.437,54.259Z" transform="translate(-356.14 -46.025)" fill="#ffe177"/>
        <path id="Trazado_1177562" data-name="Trazado 1177562" d="M409.312,58.171a3.191,3.191,0,0,1-4.512,0,3.154,3.154,0,0,1-.722-1.108,3.19,3.19,0,0,0,4.125-4.124,3.153,3.153,0,0,1,1.109.72,3.191,3.191,0,0,1,0,4.512Z" transform="translate(-357.755 -47.648)" fill="#ffd15b"/>
        <path id="Trazado_1177563" data-name="Trazado 1177563" d="M211.167,55.228l-3.259.24h-5.02a2.4,2.4,0,0,1-2.4-2.4V50.671a2.4,2.4,0,0,1,2.4-2.4h4.972l3.271.125a2.167,2.167,0,0,1,2.243,2.278v2.349A2.082,2.082,0,0,1,211.167,55.228Z" transform="translate(-177.867 -43.521)" fill="#ffe177"/>
        <path id="Trazado_1177564" data-name="Trazado 1177564" d="M267.472,50.672v2.4a2.4,2.4,0,0,1-2.4,2.4h-3.523a2.4,2.4,0,0,0,2.4-2.4v-2.4a2.4,2.4,0,0,0-2.4-2.4h3.523A2.4,2.4,0,0,1,267.472,50.672Z" transform="translate(-231.818 -43.523)" fill="#ffd15b"/>
        <path id="Trazado_1177565" data-name="Trazado 1177565" d="M45.5,270.423a8.18,8.18,0,0,1-5.241,4.49h0a7.92,7.92,0,0,1-3.1-1.55l-.174-.767a2.1,2.1,0,0,1,.668-1.473,2.261,2.261,0,0,1,.987-.572l1.547-.427a.527.527,0,0,0,.093-.035l.083.187a2.2,2.2,0,0,0,3.888,0l.085-.185a.6.6,0,0,0,.091.032Z" transform="translate(-33.4 -239.515)" fill="#b3dafe"/>
        <path id="Trazado_1177566" data-name="Trazado 1177566" d="M47.6,275.257v1.68a9.611,9.611,0,0,1-10.651-.009v-1.671q0-.066,0-.133a9.58,9.58,0,0,0,8.521-2.174l.468.129a2.261,2.261,0,0,1,1.658,2.177Z" transform="translate(-33.373 -242.042)" fill="#8ac9fe"/>
        <path id="Trazado_1177567" data-name="Trazado 1177567" d="M394.841,275.248v1.669a9.6,9.6,0,0,1-10.651.008v-1.677c0-.043,0-.084,0-.127a9.567,9.567,0,0,0,8.515-2.181l.474.13a2.26,2.26,0,0,1,1.658,2.177Z" transform="translate(-340.184 -242.033)" fill="#8ac9fe"/>
        <path id="Trazado_1177568" data-name="Trazado 1177568" d="M62.059,54.259a2.873,2.873,0,0,1-2.91,3.084,3.16,3.16,0,0,1-3.035-1.868c0-.009-.026-.026-.029-.034A3.192,3.192,0,0,1,59.063,51.1a2.981,2.981,0,0,1,1.147.214A3.032,3.032,0,0,1,62.059,54.259Z" transform="translate(-50.093 -46.025)" fill="#ffe177"/>
        <path id="Trazado_1177569" data-name="Trazado 1177569" d="M62.935,58.171a3.191,3.191,0,0,1-4.512,0,3.155,3.155,0,0,1-.722-1.108,3.19,3.19,0,0,0,4.125-4.124,3.153,3.153,0,0,1,1.109.72A3.191,3.191,0,0,1,62.935,58.171Z" transform="translate(-51.709 -47.648)" fill="#ffd15b"/>
      </g>
      <g id="Grupo_1224819" data-name="Grupo 1224819" transform="translate(0.727 0.873)">
        <path id="Trazado_1177570" data-name="Trazado 1177570" d="M243.469,46.034h-.727a1.4,1.4,0,0,1-1.4-1.4V9.483a1.4,1.4,0,0,1,.884-1.3c.159-.063.372.034.554.034l.465.263c.768,0,1.406.211,1.406.979l.089,35.242A1.244,1.244,0,0,1,243.469,46.034Z" transform="translate(-213.97 -8.086)" fill="#ffd15b"/>
        <path id="Trazado_1177571" data-name="Trazado 1177571" d="M251.571,8.9V44.05a1.4,1.4,0,0,1-1.4,1.4h-.727a1.376,1.376,0,0,1-.513-.1,1.4,1.4,0,0,0,.885-1.3V8.9a1.4,1.4,0,0,0-.885-1.3,1.376,1.376,0,0,1,.514-.1h.727a1.4,1.4,0,0,1,1.4,1.4Z" transform="translate(-220.675 -7.5)" fill="#ffc143"/>
        <path id="Trazado_1177572" data-name="Trazado 1177572" d="M216.419,284.53l-3.377-.112h-5.119a1.4,1.4,0,0,0-1.4,1.4v1.632a1.4,1.4,0,0,0,1.4,1.4l4.659.935,3.851-1.1a1.266,1.266,0,0,0,1.4-1.227v-1.632A1.322,1.322,0,0,0,216.419,284.53Z" transform="translate(-183.204 -252.175)" fill="#ffe177"/>
        <path id="Trazado_1177573" data-name="Trazado 1177573" d="M265.01,285.814v1.632a1.4,1.4,0,0,1-1.4,1.395l-1.985.563-2.074-.563a1.4,1.4,0,0,0,1.4-1.395v-1.632a1.4,1.4,0,0,0-1.4-1.4h4.058A1.4,1.4,0,0,1,265.01,285.814Z" transform="translate(-230.06 -252.174)" fill="#ffd15b"/>
        <path id="Trazado_1177574" data-name="Trazado 1177574" d="M166.123,328.018v-4a1.6,1.6,0,0,1,1.6-1.6h8.833l8.7.154a1.458,1.458,0,0,1,1.58,1.446l-.089,5.12c0,.884-.306,1.6-1.19,1.6H171.237Z" transform="translate(-147.506 -285.75)" fill="#ffd15b"/>
        <path id="Trazado_1177575" data-name="Trazado 1177575" d="M263.829,324.02v5.12a1.6,1.6,0,0,1-1.6,1.6h-9.335a1.6,1.6,0,0,0,1.6-1.6v-5.12a1.6,1.6,0,0,0-1.6-1.6h9.335A1.6,1.6,0,0,1,263.829,324.02Z" transform="translate(-224.175 -285.752)" fill="#ffc143"/>
        <path id="Trazado_1177576" data-name="Trazado 1177576" d="M395.966,356.538l4.756-1.2a2.331,2.331,0,0,1,3.044,2.178,2.452,2.452,0,0,1-1.656,2.319l-4.429,1.863Z" transform="translate(-350.587 -314.759)" fill="#c46255"/>
        <path id="Trazado_1177577" data-name="Trazado 1177577" d="M54.1,358.387l2.106.981c.665.007,3.557-1.85,4.2-2.014l5.724-1.462a2.723,2.723,0,0,1,1.714,5.155l-10.868,4.494a9.1,9.1,0,0,1-3.477.69H42.876a6.065,6.065,0,0,0-5.457,3.417l-.986,1.894a.813.813,0,0,1-.722.438L23,371.974a.333.333,0,0,1-.273-.524l5.562-7.974a6.037,6.037,0,0,0,1.086-3.377,5.64,5.64,0,0,1,2.275-4.454h0a5.7,5.7,0,0,1,3.413-1.126Z" transform="translate(-20.754 -314.113)" fill="#ce7165"/>
        <path id="Trazado_1177578" data-name="Trazado 1177578" d="M187.2,384.391l-12.472.458a1.275,1.275,0,0,1-1.375-1.163c0-.036,0-.071,0-.107a1.275,1.275,0,0,1,1.168-1.268L184.8,381.2l2.016-1.3h1.644a7.668,7.668,0,0,0,1.972-.236l3.118-.794C193.653,381.3,191.527,384.391,187.2,384.391Z" transform="translate(-153.892 -335.635)" fill="#c46255"/>
        <path id="Trazado_1177579" data-name="Trazado 1177579" d="M129.131,354.518h17.862a2.544,2.544,0,0,1,.193,5.081l-11.819.9Z" transform="translate(-114.822 -314.113)" fill="#ce7165"/>
        <path id="Trazado_1177580" data-name="Trazado 1177580" d="M79.153,63.384h41.291v3.68H79.153Z" transform="translate(-70.663 -56.877)" fill="#ffc143"/>
        <path id="Trazado_1177581" data-name="Trazado 1177581" d="M9.113,177.412a10.055,10.055,0,0,1-1.405-1.448c-.033-.051-.134-.128-.166-.18a8.9,8.9,0,0,1,12.243-12.243c.072.044.153.192.224.238a9.372,9.372,0,0,1,1.285,1.352,8.08,8.08,0,0,1-.1,11.883c-3.472,3.472-8.608,3.871-12.082.4Z" transform="translate(-6.236 -144.219)" fill="#f2fbff"/>
        <path id="Trazado_1177582" data-name="Trazado 1177582" d="M31.346,187.346a8.91,8.91,0,0,1-1.352,1.11,32.708,32.708,0,0,1-4.879.73,29.089,29.089,0,0,1-5.018-.738,8.948,8.948,0,0,1-2.647-2.756,8.9,8.9,0,0,0,12.243-12.243,8.915,8.915,0,0,1,1.653,13.9Z" transform="translate(-16.144 -154.127)" fill="#dff6fd"/>
        <path id="Trazado_1177583" data-name="Trazado 1177583" d="M39.3,249.99v-.565a2.259,2.259,0,0,1,1.658-2.177l1.238-.267c.033-.009.1-.182.13-.2a.625.625,0,0,0,.366-.568v-2.5h3.321v2.5a.626.626,0,0,0,.369.571.719.719,0,0,0,.089.052l1.284.408a2.259,2.259,0,0,1,1.658,2.177v.565H39.3Z" transform="translate(-35.45 -216.21)" fill="#c46255"/>
        <path id="Trazado_1177584" data-name="Trazado 1177584" d="M57.845,198.88l.386.219a2.013,2.013,0,0,0,1.987,0l.386-.219a3.381,3.381,0,0,0,1.713-2.94v-.859a3.092,3.092,0,0,0-6.184,0v.859A3.381,3.381,0,0,0,57.845,198.88Z" transform="translate(-50.322 -170.513)" fill="#ce7165"/>
        <path id="Trazado_1177585" data-name="Trazado 1177585" d="M357.489,178.314c-.436-.436-1.118-.738-1.443-1.235-.048-.073-.226-.219-.271-.293A8.775,8.775,0,0,1,367.84,164.72c.07.043.137.137.205.182a7.411,7.411,0,0,1,1.168,1.174,8.146,8.146,0,0,1-.049,11.871C365.743,181.369,360.913,181.738,357.489,178.314Z" transform="translate(-313.939 -145.277)" fill="#f2fbff"/>
        <path id="Trazado_1177586" data-name="Trazado 1177586" d="M379.236,188.18a8.775,8.775,0,0,1-1.317,1.083l-4.9-.151-4.866.158a8.821,8.821,0,0,1-2.614-2.72,8.775,8.775,0,0,0,12.066-12.066,8.786,8.786,0,0,1,1.629,13.7Z" transform="translate(-323.705 -155.041)" fill="#dff6fd"/>
        <path id="Trazado_1177587" data-name="Trazado 1177587" d="M386.536,249.99v-.565a2.259,2.259,0,0,1,1.658-2.177l1.287-.382c.036-.01.048-.063.081-.08a.655.655,0,0,0,.366-.568v-2.5h3.32v2.5a.626.626,0,0,0,.369.57c.029.013.054.091.086.1l1.288.36a2.259,2.259,0,0,1,1.658,2.177v.565H386.536Z" transform="translate(-342.255 -216.21)" fill="#ffcebe"/>
        <path id="Trazado_1177588" data-name="Trazado 1177588" d="M405.081,198.88l.386.219a2.013,2.013,0,0,0,1.987,0l.386-.219a3.381,3.381,0,0,0,1.713-2.94v-.859a3.092,3.092,0,0,0-6.185,0v.859A3.38,3.38,0,0,0,405.081,198.88Z" transform="translate(-357.128 -170.513)" fill="#ffdfcf"/>
        <path id="Trazado_1177589" data-name="Trazado 1177589" d="M392.737,270.422a8.172,8.172,0,0,1-5.236,4.491h0a7.6,7.6,0,0,1-3.006-1.584l-.269-.727a2.1,2.1,0,0,1,.667-1.479,2.261,2.261,0,0,1,.987-.572l1.547-.427a.527.527,0,0,0,.093-.035l.083.187a2.2,2.2,0,0,0,3.888,0l.085-.185a.6.6,0,0,0,.091.033Z" transform="translate(-340.211 -239.515)" fill="#b3dafe"/>
        <path id="Trazado_1177590" data-name="Trazado 1177590" d="M408.437,54.259a2.873,2.873,0,0,1-2.91,3.084,3.16,3.16,0,0,1-3.035-1.868c0-.009-.026-.026-.029-.034a3.192,3.192,0,0,1,2.978-4.338,2.981,2.981,0,0,1,1.147.214A3.032,3.032,0,0,1,408.437,54.259Z" transform="translate(-356.14 -46.025)" fill="#ffe177"/>
        <path id="Trazado_1177591" data-name="Trazado 1177591" d="M409.312,58.171a3.191,3.191,0,0,1-4.512,0,3.154,3.154,0,0,1-.722-1.108,3.19,3.19,0,0,0,4.125-4.124,3.153,3.153,0,0,1,1.109.72,3.191,3.191,0,0,1,0,4.512Z" transform="translate(-357.755 -47.648)" fill="#ffd15b"/>
        <path id="Trazado_1177592" data-name="Trazado 1177592" d="M211.167,55.228l-3.259.24h-5.02a2.4,2.4,0,0,1-2.4-2.4V50.671a2.4,2.4,0,0,1,2.4-2.4h4.972l3.271.125a2.167,2.167,0,0,1,2.243,2.278v2.349A2.082,2.082,0,0,1,211.167,55.228Z" transform="translate(-177.867 -43.521)" fill="#ffe177"/>
        <path id="Trazado_1177593" data-name="Trazado 1177593" d="M267.472,50.672v2.4a2.4,2.4,0,0,1-2.4,2.4h-3.523a2.4,2.4,0,0,0,2.4-2.4v-2.4a2.4,2.4,0,0,0-2.4-2.4h3.523A2.4,2.4,0,0,1,267.472,50.672Z" transform="translate(-231.818 -43.523)" fill="#ffd15b"/>
        <path id="Trazado_1177594" data-name="Trazado 1177594" d="M45.5,270.423a8.18,8.18,0,0,1-5.241,4.49h0a7.92,7.92,0,0,1-3.1-1.55l-.174-.767a2.1,2.1,0,0,1,.668-1.473,2.261,2.261,0,0,1,.987-.572l1.547-.427a.527.527,0,0,0,.093-.035l.083.187a2.2,2.2,0,0,0,3.888,0l.085-.185a.6.6,0,0,0,.091.032Z" transform="translate(-33.4 -239.515)" fill="#b3dafe"/>
        <path id="Trazado_1177595" data-name="Trazado 1177595" d="M47.6,275.257v1.68a9.611,9.611,0,0,1-10.651-.009v-1.671q0-.066,0-.133a9.58,9.58,0,0,0,8.521-2.174l.468.129a2.261,2.261,0,0,1,1.658,2.177Z" transform="translate(-33.373 -242.042)" fill="#8ac9fe"/>
        <path id="Trazado_1177596" data-name="Trazado 1177596" d="M394.841,275.248v1.669a9.6,9.6,0,0,1-10.651.008v-1.677c0-.043,0-.084,0-.127a9.567,9.567,0,0,0,8.515-2.181l.474.13a2.26,2.26,0,0,1,1.658,2.177Z" transform="translate(-340.184 -242.033)" fill="#8ac9fe"/>
        <path id="Trazado_1177597" data-name="Trazado 1177597" d="M62.059,54.259a2.873,2.873,0,0,1-2.91,3.084,3.16,3.16,0,0,1-3.035-1.868c0-.009-.026-.026-.029-.034A3.192,3.192,0,0,1,59.063,51.1a2.981,2.981,0,0,1,1.147.214A3.032,3.032,0,0,1,62.059,54.259Z" transform="translate(-50.093 -46.025)" fill="#ffe177"/>
        <path id="Trazado_1177598" data-name="Trazado 1177598" d="M62.935,58.171a3.191,3.191,0,0,1-4.512,0,3.155,3.155,0,0,1-.722-1.108,3.19,3.19,0,0,0,4.125-4.124,3.153,3.153,0,0,1,1.109.72A3.191,3.191,0,0,1,62.935,58.171Z" transform="translate(-51.709 -47.648)" fill="#ffd15b"/>
      </g>
      <g id="Grupo_1224820" data-name="Grupo 1224820" transform="translate(0.001 0)">
        <path id="Trazado_1177599" data-name="Trazado 1177599" d="M16.537,461.827a.873.873,0,0,0-1.216.217l-2.864,4.106a.873.873,0,0,0,1.433,1l2.864-4.106a.873.873,0,0,0-.217-1.216Z" transform="translate(-10.867 -407.915)"/>
        <path id="Trazado_1177600" data-name="Trazado 1177600" d="M156.015,429.3l-3.507,1.45a8.184,8.184,0,0,1-3.143.624H138.739a6.978,6.978,0,0,0-6.237,3.9l-1.208,2.322a.873.873,0,1,0,1.549.806l1.214-2.333.011-.022a5.221,5.221,0,0,1,4.671-2.925h10.626a9.924,9.924,0,0,0,3.81-.757l3.507-1.45a.873.873,0,1,0-.668-1.614Z" transform="translate(-115.92 -379.254)"/>
        <path id="Trazado_1177601" data-name="Trazado 1177601" d="M41.317,23.746a9.6,9.6,0,1,0,17.4,0c0-.011-.008-.023-.014-.034L53.161,11.689a4.061,4.061,0,0,0-6.253-5.182H36.852a3.279,3.279,0,0,0-2.9-1.76H32.468V2.27A2.273,2.273,0,0,0,30.2,0h-.726A2.273,2.273,0,0,0,27.2,2.27V4.747H25.719a3.279,3.279,0,0,0-2.9,1.76h-2.4a.873.873,0,0,0,0,1.747h2.023v1.934H13.6a4.047,4.047,0,0,0,.039-1.934h2.62a.873.873,0,0,0,0-1.747H12.76a4.061,4.061,0,0,0-6.285,5.142L.914,23.711a9.6,9.6,0,1,0,17.373,0l-5.43-11.778h9.959a3.279,3.279,0,0,0,2.9,1.76H27.2V32.214H25.416a2.273,2.273,0,0,0-2.27,2.27v2.183h-2.23a2.476,2.476,0,0,0-2.474,2.473v1.264H15a6.619,6.619,0,0,0-3.924,1.3,6.552,6.552,0,0,0-2.627,5.144,5.144,5.144,0,0,1-.929,2.889l-.7,1a.873.873,0,0,0,1.433,1l.7-1a6.884,6.884,0,0,0,1.243-3.866,4.8,4.8,0,0,1,1.923-3.765A4.861,4.861,0,0,1,15,42.152H32.87A1.671,1.671,0,0,1,33,45.488l-11.819.9a.873.873,0,1,0,.132,1.742l11.819-.9a3.415,3.415,0,0,0,2.353-1.212,8.474,8.474,0,0,0,1.968-.263L46.293,43.5A1.85,1.85,0,0,1,48.6,45.291a1.869,1.869,0,0,1-1.272,1.763L43.82,48.5a.873.873,0,1,0,.667,1.614c1.992-.816,6.048-2.515,8.047-3.358a3.326,3.326,0,0,0,2.216-3.135,3.031,3.031,0,0,0-1.171-2.441,3.423,3.423,0,0,0-2.96-.584c-2.362.6-7.033,1.784-9.392,2.388V39.141a2.476,2.476,0,0,0-2.474-2.473h-2.23V34.485a2.273,2.273,0,0,0-2.27-2.27H32.468V28.3a.873.873,0,1,0-1.747,0v3.917H28.947V13.694h1.774V24.133a.873.873,0,0,0,1.747,0V13.694h1.481a3.279,3.279,0,0,0,2.9-1.76h9.909l-5.43,11.778c-.005.011-.009.023-.014.034ZM9.668,6.823A2.317,2.317,0,1,1,7.351,9.14,2.32,2.32,0,0,1,9.668,6.823Zm4.384,27.429a7.834,7.834,0,0,1-8.9,0v-.164a1.386,1.386,0,0,1,1.017-1.336l1-.276a3.072,3.072,0,0,0,4.872,0l1,.276a1.385,1.385,0,0,1,1.017,1.336v.164Zm-3.51-2.712a1.331,1.331,0,0,1-1.884,0,1.489,1.489,0,0,0,.155-.66v-.4a2.88,2.88,0,0,0,1.574,0v.4a1.491,1.491,0,0,0,.155.66Zm-.379-2.84a1.146,1.146,0,0,1-1.125,0l-.386-.219A2.512,2.512,0,0,1,7.381,26.3v-.859a2.219,2.219,0,0,1,4.438,0V26.3a2.512,2.512,0,0,1-1.27,2.181Zm7.29-.907a7.808,7.808,0,0,1-1.893,5.1,3.122,3.122,0,0,0-2.06-1.825l-1.366-.377V29.481A4.261,4.261,0,0,0,13.566,26.3v-.859a3.966,3.966,0,0,0-7.931,0V26.3a4.262,4.262,0,0,0,1.432,3.181v1.211L5.7,31.069a3.123,3.123,0,0,0-2.06,1.825,7.848,7.848,0,1,1,13.813-5.1Zm-3.03-8.29a9.57,9.57,0,0,0-9.646,0l3.1-6.718a4.052,4.052,0,0,0,3.476.053ZM51.043,42.3a1.71,1.71,0,0,1,1.459.265,1.3,1.3,0,0,1,.5,1.065,1.579,1.579,0,0,1-1.067,1.493c-.067.022-1.562.656-1.627.681a3.627,3.627,0,0,0,.037-.509,3.569,3.569,0,0,0-1.061-2.551ZM28.947,2.27a.531.531,0,0,1,.524-.524H30.2a.531.531,0,0,1,.524.524V4.747H28.947ZM39.48,39.141v4.294l-2.461.628a6.758,6.758,0,0,1-.754.146,3.409,3.409,0,0,0-3.4-3.8H20.188V39.141a.728.728,0,0,1,.727-.727H38.752a.728.728,0,0,1,.727.727Zm-5.228-5.18a.531.531,0,0,1,.524.524v2.183H24.892V34.485a.531.531,0,0,1,.524-.524Zm1.227-23.543a1.531,1.531,0,0,1-1.53,1.53h-8.23a1.531,1.531,0,0,1-1.53-1.53V8.023a1.531,1.531,0,0,1,1.53-1.53h8.23a1.531,1.531,0,0,1,1.53,1.53Zm1.747-.23V8.253h8.809a4.047,4.047,0,0,0,.039,1.934H37.225ZM54.469,34.252a7.834,7.834,0,0,1-8.9,0v-.164a1.386,1.386,0,0,1,1.017-1.336l1-.276a3.072,3.072,0,0,0,4.872,0l1,.276a1.386,1.386,0,0,1,1.017,1.336Zm-3.51-2.712a1.331,1.331,0,0,1-1.884,0,1.489,1.489,0,0,0,.155-.66v-.4a2.88,2.88,0,0,0,1.574,0v.4a1.489,1.489,0,0,0,.155.66ZM50.58,28.7a1.146,1.146,0,0,1-1.125,0l-.386-.219A2.512,2.512,0,0,1,47.8,26.3v-.859a2.219,2.219,0,0,1,4.438,0V26.3a2.512,2.512,0,0,1-1.27,2.181ZM50,6.823A2.317,2.317,0,1,1,47.682,9.14,2.32,2.32,0,0,1,50,6.823Zm-1.724,6a4.057,4.057,0,0,0,3.477-.013l3.088,6.7a9.57,9.57,0,0,0-9.646,0Zm1.741,7.126a7.84,7.84,0,0,1,5.96,12.949,3.122,3.122,0,0,0-2.06-1.825l-1.366-.377V29.481A4.262,4.262,0,0,0,53.983,26.3v-.859a3.966,3.966,0,0,0-7.931,0V26.3a4.261,4.261,0,0,0,1.432,3.181v1.211l-1.366.377a3.122,3.122,0,0,0-2.06,1.825,7.84,7.84,0,0,1,5.96-12.949Z" transform="translate(-0.001 0)"/>
      </g>
    </g>
  </g>
</svg>
