<svg xmlns="http://www.w3.org/2000/svg" xmlns:xlink="http://www.w3.org/1999/xlink" width="103" height="103" viewBox="0 0 103 103">
  <defs>
    <filter id="Trazado_904820" x="0" y="0" width="103" height="103" filterUnits="userSpaceOnUse">
      <feOffset dy="3" input="SourceAlpha"/>
      <feGaussianBlur stdDeviation="3" result="blur"/>
      <feFlood flood-opacity="0.161"/>
      <feComposite operator="in" in2="blur"/>
      <feComposite in="SourceGraphic"/>
    </filter>
  </defs>
  <g id="Grupo_1224826" data-name="Grupo 1224826" transform="translate(-170.5 -8449.664)">
    <g id="Grupo_1223019" data-name="Grupo 1223019" transform="translate(-0.5 6081.664)">
      <g id="Grupo_1221049" data-name="Grupo 1221049" transform="translate(5 -7973)">
        <g id="Grupo_1219296" data-name="Grupo 1219296" transform="translate(175 10347)">
          <g id="Grupo_1218002" data-name="Grupo 1218002" transform="translate(0 0)">
            <g id="Grupo_1211578" data-name="Grupo 1211578">
              <g id="Grupo_1207774" data-name="Grupo 1207774" transform="translate(0)">
                <g id="Grupo_1206630" data-name="Grupo 1206630" transform="translate(0)">
                  <g id="Grupo_1185091" data-name="Grupo 1185091">
                    <g id="Grupo_1179560" data-name="Grupo 1179560">
                      <g id="Grupo_1173787" data-name="Grupo 1173787">
                        <g id="Grupo_1171910" data-name="Grupo 1171910">
                          <g id="Grupo_1167341" data-name="Grupo 1167341">
                            <g id="Grupo_1166792" data-name="Grupo 1166792">
                              <g transform="matrix(1, 0, 0, 1, -9, -6)" filter="url(#Trazado_904820)">
                                <g id="Trazado_904820-2" data-name="Trazado 904820" transform="translate(9 6)" fill="#e5f0f6">
                                  <path d="M 42.49999618530273 83.50018310546875 C 36.96437454223633 83.50018310546875 31.59512519836426 82.41635894775391 26.54140853881836 80.27880859375 C 21.65933799743652 78.2138671875 17.27447891235352 75.25739288330078 13.50861930847168 71.49153137207031 C 9.742773056030273 67.72567749023438 6.786314010620117 63.34079360961914 4.721360683441162 58.45870971679688 C 2.583819627761841 53.40498352050781 1.499996185302734 48.03572463989258 1.499996185302734 42.50008773803711 C 1.499996185302734 36.96445083618164 2.583819627761841 31.59519386291504 4.721360683441162 26.54146385192871 C 6.786314010620117 21.65938186645508 9.742773056030273 17.27451133728027 13.50861930847168 13.50865268707275 C 17.27447891235352 9.742794036865234 21.65933799743652 6.786323070526123 26.54140853881836 4.721381664276123 C 31.59512519836426 2.583828926086426 36.96437454223633 1.50000536441803 42.49999618530273 1.50000536441803 C 48.03561782836914 1.50000536441803 53.40486526489258 2.583828926086426 58.45858383178711 4.721381664276123 C 63.34065628051758 6.786323070526123 67.72551727294922 9.742794036865234 71.49137115478516 13.50865268707275 C 75.25721740722656 17.27451133728027 78.21367645263672 21.65938186645508 80.27863311767578 26.54146385192871 C 82.41617584228516 31.59519386291504 83.5 36.96445083618164 83.5 42.50008773803711 C 83.5 48.03572463989258 82.41617584228516 53.40498352050781 80.27863311767578 58.45870971679688 C 78.21367645263672 63.34079360961914 75.25721740722656 67.72567749023438 71.49137115478516 71.49153137207031 C 67.72551727294922 75.25739288330078 63.34065628051758 78.2138671875 58.45858383178711 80.27880859375 C 53.40486526489258 82.41635894775391 48.03561782836914 83.50018310546875 42.49999618530273 83.50018310546875 Z" stroke="none"/>
                                  <path d="M 42.49999618530273 2.999992370605469 C 37.16621017456055 2.999992370605469 31.99356842041016 4.043952941894531 27.1257438659668 6.102874755859375 C 22.42246246337891 8.092193603515625 18.19786071777344 10.94071197509766 14.56929016113281 14.56929779052734 C 10.94070434570312 18.19789123535156 8.092193603515625 22.42250061035156 6.102874755859375 27.12579345703125 C 4.043952941894531 31.99362182617188 2.999992370605469 37.16628646850586 2.999992370605469 42.50008773803711 C 2.999992370605469 47.83388900756836 4.043952941894531 53.00653839111328 6.102874755859375 57.87438201904297 C 8.092193603515625 62.57765960693359 10.94070434570312 66.80227661132812 14.56929016113281 70.43086242675781 C 18.19786071777344 74.0594482421875 22.42246246337891 76.90796661376953 27.1257438659668 78.89728546142578 C 31.99356842041016 80.95620727539062 37.16621017456055 82.00016784667969 42.49999618530273 82.00016784667969 C 47.83378219604492 82.00016784667969 53.00642395019531 80.95620727539062 57.87425231933594 78.89728546142578 C 62.57752990722656 76.90796661376953 66.80213165283203 74.0594482421875 70.43070220947266 70.43086242675781 C 74.05928802490234 66.80227661132812 76.90779876708984 62.57765960693359 78.89711761474609 57.87438201904297 C 80.95603942871094 53.00653839111328 82 47.83388900756836 82 42.50008773803711 C 82 37.16628646850586 80.95603942871094 31.99362182617188 78.89711761474609 27.12579345703125 C 76.90779876708984 22.42250061035156 74.05928802490234 18.19789123535156 70.43070220947266 14.56929779052734 C 66.80213165283203 10.94071197509766 62.57752990722656 8.092193603515625 57.87425231933594 6.102874755859375 C 53.00642395019531 4.043952941894531 47.83378219604492 2.999992370605469 42.49999618530273 2.999992370605469 M 42.49999618530273 -7.62939453125e-06 C 65.97209167480469 -7.62939453125e-06 85 19.02793884277344 85 42.50008773803711 C 85 65.97223663330078 65.97209167480469 85.00016784667969 42.49999618530273 85.00016784667969 C 19.02790069580078 85.00016784667969 -7.62939453125e-06 65.97223663330078 -7.62939453125e-06 42.50008773803711 C -7.62939453125e-06 19.02793884277344 19.02790069580078 -7.62939453125e-06 42.49999618530273 -7.62939453125e-06 Z" stroke="none" fill="#cbd0dc"/>
                                </g>
                              </g>
                            </g>
                          </g>
                        </g>
                      </g>
                    </g>
                  </g>
                </g>
              </g>
            </g>
          </g>
        </g>
      </g>
    </g>
    <g id="abogado_1_" data-name="abogado (1)" transform="translate(190.466 8468.823)">
      <g id="Grupo_1224824" data-name="Grupo 1224824" transform="translate(7.547 0.845)">
        <path id="Trazado_1177602" data-name="Trazado 1177602" d="M142.022,11.046h-3.6l-5.07,4.9-2.122,4.112V44.5h16.395l.395-3.2,3.7-5.979V23.538a12.9,12.9,0,0,0-9.7-12.492Z" transform="translate(-118.049 -10.647)" fill="#e79380"/>
        <path id="Trazado_1177603" data-name="Trazado 1177603" d="M90.57,20.554A13.061,13.061,0,0,1,100.292,7.9,12.9,12.9,0,0,0,84.2,20.554V40.709l.416.649h6.365l-.416-.649Z" transform="translate(-76.319 -7.501)" fill="#df7e66"/>
        <path id="Trazado_1177604" data-name="Trazado 1177604" d="M57.361,308.7c.086-.291-2.768-14.907-2.768-14.907l.087-4.761-5.032,1.951L47.181,293.4l-.583,2.188v16.5l.489.929.239.279H57.361l.415-.448v-4.082C57.5,308.754,57.351,308.729,57.361,308.7Z" transform="translate(-42.948 -257.312)" fill="#7b6c79"/>
        <path id="Trazado_1177605" data-name="Trazado 1177605" d="M18.183,325.615V310.6a7.742,7.742,0,0,1,3.319-6.32l-2.9,1.125a7.531,7.531,0,0,0-4.4,6.822v13.144a1.466,1.466,0,0,0,1.466,1.466h3.15a1.5,1.5,0,0,1-.635-1.223Z" transform="translate(-14.202 -270.847)" fill="#665e68"/>
        <path id="Trazado_1177606" data-name="Trazado 1177606" d="M262.2,317.64a1.051,1.051,0,0,1-1.051-1.051v-1.783a1.051,1.051,0,0,1,1.051-1.051h1.02a3.244,3.244,0,0,1,1.645-3.421,6.969,6.969,0,0,0-2.885-2.311l-1.038-.4a2.456,2.456,0,0,1-.956.193H256a2.455,2.455,0,0,1-1.591-.583v.089l1.6,3.492-4.032,14.036-.4.009v3.84l.4.758h12.947a1.466,1.466,0,0,0,1.466-1.466V317.64Z" transform="translate(-224.826 -273.464)" fill="#7b6c79"/>
        <path id="Trazado_1177607" data-name="Trazado 1177607" d="M199.7,320.69h-4.638V341.4h6.767V323.151Z" transform="translate(-174.691 -285.406)" fill="#b5dcff"/>
        <path id="Trazado_1177608" data-name="Trazado 1177608" d="M148.5,320.69h-4.4l-1.964,2.461V341.4H148.5Z" transform="translate(-127.722 -285.406)" fill="#8bcaff"/>
        <path id="Trazado_1177609" data-name="Trazado 1177609" d="M201.417,245.384l-.932-.361a.813.813,0,0,1-.52-.756l0-2.724-.552-.351h-4.345v9.764H197l.926-.375,3.755-4.331Z" transform="translate(-174.691 -214.864)" fill="#ffcebe"/>
        <path id="Trazado_1177610" data-name="Trazado 1177610" d="M151.77,241.19h-3.942l-.559.367v2.7c0,.622-.555.772-.792.864l-.657.255.121,1.482,3.511,3.887.791.206h1.526V241.19Z" transform="translate(-130.993 -214.863)" fill="#ffb1a0"/>
        <path id="Trazado_1177611" data-name="Trazado 1177611" d="M103.755,279.8l-2.681,1.039-1.748,3.627a4.475,4.475,0,0,0-.171,3.482l4.6,12.559V279.8Z" transform="translate(-89.343 -249.127)" fill="#938493"/>
        <path id="Trazado_1177612" data-name="Trazado 1177612" d="M259.563,284.5l-.48-.995-2.386-3.062-1.563-.605v20.7l4.6-12.559A4.475,4.475,0,0,0,259.563,284.5Z" transform="translate(-227.991 -249.158)" fill="#938493"/>
        <path id="Trazado_1177613" data-name="Trazado 1177613" d="M97.375,136.531v.547l1.374,1.314h2.441v-2.747l-.4-.513h0a3.9,3.9,0,0,0-3.022.886h0A3.1,3.1,0,0,0,97.375,136.531Z" transform="translate(-88.005 -120.721)" fill="#ffcebe"/>
        <path id="Trazado_1177614" data-name="Trazado 1177614" d="M268.4,138.362l1.017-.743.17-1.118a3.113,3.113,0,0,0-.385-.514,3.7,3.7,0,0,0-3.021-.884h0v.005l-.438.563v2.691H268.4Z" transform="translate(-237.398 -120.691)" fill="#ffcebe"/>
        <path id="Trazado_1177615" data-name="Trazado 1177615" d="M94.07,147.836a2.91,2.91,0,0,0-.42,1.5,3.226,3.226,0,0,0,3.835,3.034l.4-.291v-3.006l-.4.291A3.353,3.353,0,0,1,94.07,147.836Z" transform="translate(-84.699 -132.026)" fill="#ffb1a0"/>
        <path id="Trazado_1177616" data-name="Trazado 1177616" d="M266.165,149.365l-.431-.322v3.006l.431.322A3.226,3.226,0,0,0,270,149.338a2.91,2.91,0,0,0-.42-1.5,3.354,3.354,0,0,1-3.418,1.531Z" transform="translate(-237.397 -132.025)" fill="#ffb1a0"/>
        <path id="Trazado_1177617" data-name="Trazado 1177617" d="M357.834,331.285a3.244,3.244,0,0,0-3.2,3.815l.426.254h5.408l.558-.254a3.243,3.243,0,0,0-3.2-3.815Z" transform="translate(-316.24 -294.808)" fill="#eab900"/>
        <path id="Trazado_1177618" data-name="Trazado 1177618" d="M378.522,365.146h-4.539l-.3.089-.432.366-.1.272v2.407l.282.5.57.246h4.519a1.051,1.051,0,0,0,1.051-1.051V366.2a1.051,1.051,0,0,0-1.051-1.051Z" transform="translate(-332.712 -324.854)" fill="#ffe02f"/>
        <path id="Trazado_1177619" data-name="Trazado 1177619" d="M340.893,367.98V366.2a1.051,1.051,0,0,1,1.051-1.051H337.7a1.051,1.051,0,0,0-1.051,1.051v1.783a1.051,1.051,0,0,0,1.051,1.051h4.239A1.051,1.051,0,0,1,340.893,367.98Z" transform="translate(-300.327 -324.854)" fill="#fbc700"/>
        <path id="Trazado_1177620" data-name="Trazado 1177620" d="M461.087,279.6h-4.039c-.115.1-.23.207-.23.207v1.962l.559.864.671.441.767.222h.156a2.465,2.465,0,0,0,2.465-2.465v-.884A.347.347,0,0,0,461.087,279.6Z" transform="translate(-406.953 -248.944)" fill="#ffe02f"/>
        <path id="Trazado_1177621" data-name="Trazado 1177621" d="M423,280.831v-.884a.347.347,0,0,1,.347-.347h-4.4a.347.347,0,0,0-.347.347v.884a2.465,2.465,0,0,0,2.465,2.465h3.993c.069,0,.137,0,.2-.009A2.464,2.464,0,0,1,423,280.831Z" transform="translate(-373.041 -248.945)" fill="#fbc700"/>
        <g id="Grupo_1224823" data-name="Grupo 1224823" transform="translate(28.706 30.654)">
          <path id="Trazado_1177622" data-name="Trazado 1177622" d="M311.493,279.6h-4.039c-.114.1-.23.207-.23.207v1.962l.559.864.671.441.767.222h.156a2.465,2.465,0,0,0,2.465-2.465v-.884A.347.347,0,0,0,311.493,279.6Z" transform="translate(-302.918 -279.598)" fill="#ffe02f"/>
          <path id="Trazado_1177623" data-name="Trazado 1177623" d="M273.409,280.831v-.884a.347.347,0,0,1,.347-.347h-4.4a.347.347,0,0,0-.347.347v.884a2.465,2.465,0,0,0,2.465,2.465h3.993c.069,0,.137,0,.2-.009A2.464,2.464,0,0,1,273.409,280.831Z" transform="translate(-269.007 -279.599)" fill="#fbc700"/>
        </g>
        <path id="Trazado_1177624" data-name="Trazado 1177624" d="M383.723,188.823H383.4l-.929,1.262-.282.951a8.137,8.137,0,0,0,.136,1.3,5.479,5.479,0,0,1,.455.591l.939.32a2.615,2.615,0,0,0,0-4.426Z" transform="translate(-340.735 -168.395)" fill="#ffe02f"/>
        <path id="Trazado_1177625" data-name="Trazado 1177625" d="M362.969,187.863a2.614,2.614,0,0,1,1.222-2.213,2.616,2.616,0,1,0,0,4.426A2.613,2.613,0,0,1,362.969,187.863Z" transform="translate(-321.203 -165.222)" fill="#fbc700"/>
        <path id="Trazado_1177626" data-name="Trazado 1177626" d="M142.134,285.6a5.828,5.828,0,0,0,4.551-1.078.921.921,0,0,0-.056-1.4,16.036,16.036,0,0,1-4.079-4.752l-.415.161V285.6Z" transform="translate(-127.721 -247.859)" fill="#dbedff"/>
        <path id="Trazado_1177627" data-name="Trazado 1177627" d="M216.973,278.567l-.417-.162a16.038,16.038,0,0,1-4.078,4.749.921.921,0,0,0-.056,1.4,5.828,5.828,0,0,0,4.551,1.078v-7.063Z" transform="translate(-189.83 -247.885)" fill="#dbedff"/>
        <path id="Trazado_1177628" data-name="Trazado 1177628" d="M177.173,105.96c-.251,0-.269-.006-1.658-.124a4.642,4.642,0,0,1-4.037-3.512.134.134,0,0,0-.262,0,4.691,4.691,0,0,1-2.845,3.238l-.489.617v7.473l1.5,3.154,1.5,1.652,2.613.853a8.006,8.006,0,0,0,5.843-7.683V105.96Z" transform="translate(-150.569 -91.549)" fill="#ffdecf"/>
        <path id="Trazado_1177629" data-name="Trazado 1177629" d="M132.673,138.027v-6.144a4.346,4.346,0,0,1-1.237.282c.113-.009-1.421.116-1.694.116h-2.091v5.745a7.889,7.889,0,0,0,8.079,7.883,7.711,7.711,0,0,0,2.444-.39A7.831,7.831,0,0,1,132.673,138.027Z" transform="translate(-114.871 -117.87)" fill="#ffcebe"/>
      </g>
      <g id="Grupo_1224825" data-name="Grupo 1224825" transform="translate(6.702)">
        <path id="Trazado_1177630" data-name="Trazado 1177630" d="M191.971,352.021a.845.845,0,0,0-.845.845v12.242a.845.845,0,1,0,1.69,0V352.866A.845.845,0,0,0,191.971,352.021Z" transform="translate(-170.349 -312.363)"/>
        <path id="Trazado_1177631" data-name="Trazado 1177631" d="M61.681,30.654h-.017l-2.372-4.207a.845.845,0,0,0-.513-1.58,11.241,11.241,0,0,1-1.451.095,11.87,11.87,0,0,1-4.756-1.021,3.461,3.461,0,1,0-6.86,0,12.1,12.1,0,0,1-3.649.965V13.737A13.727,13.727,0,0,0,28.326,0h-.1A13.854,13.854,0,0,0,14.589,13.9V33.474L11.64,34.617l-.016.007a8.328,8.328,0,0,0-4.922,7.6V55.371a2.313,2.313,0,0,0,2.311,2.311H26.354a.845.845,0,0,0,0-1.69H22.8V39.528c2.028.053,4.027-.893,4.569-1.747h1.9c.526.829,2.5,1.8,4.569,1.747V55.992H30.3a.845.845,0,0,0,0,1.69H47.637a2.313,2.313,0,0,0,2.311-2.311V52.23a.845.845,0,0,0-1.69,0v3.141a.621.621,0,0,1-.621.621H43.374V47.376a.845.845,0,0,0-1.69,0v8.616H35.535V52.38l4.548-12.418a5.351,5.351,0,0,0-.1-3.921h2.732a3.421,3.421,0,0,0,.943-.136,6.319,6.319,0,0,1,2.707,1.663,4.094,4.094,0,0,0-1.3,2.725,1.9,1.9,0,0,0-2.03,1.9v1.783a1.9,1.9,0,0,0,1.9,1.9h3.333v2.42a.845.845,0,0,0,1.69,0v-2.42h3.409a1.9,1.9,0,0,0,1.9-1.9V42.188a1.9,1.9,0,0,0-1.9-1.9h-.135a4.1,4.1,0,0,0-3.236-3.727V26.842a3.47,3.47,0,0,0,1.959-1.33,13.823,13.823,0,0,0,3.836,1.047l-2.31,4.1h-.017a1.194,1.194,0,0,0-1.192,1.192v.884a3.313,3.313,0,0,0,3.31,3.31h3.993a3.313,3.313,0,0,0,3.309-3.31v-.884a1.193,1.193,0,0,0-1.192-1.192Zm-18.81,0H38.558l2.157-3.824ZM16.278,13.9A12.16,12.16,0,0,1,28.235,1.69h.091A12.039,12.039,0,0,1,40.372,13.737v2.347a4.286,4.286,0,0,0-4.1-1.672,24.362,24.362,0,0,1-3.7-.121,3.779,3.779,0,0,1-3.288-2.869.979.979,0,0,0-1.9,0A3.779,3.779,0,0,1,24.026,14.3a33.231,33.231,0,0,1-3.738.1,4.379,4.379,0,0,0-4.01,1.68Zm23.029,4.26a2.316,2.316,0,0,1-2.141,2.216v-4.3A2.145,2.145,0,0,1,39.308,18.158ZM28.045,28.03A7.074,7.074,0,0,1,21.173,21V16.1c2.817,0,5.445.045,7.153-2.658a5.473,5.473,0,0,0,3.782,2.495,22.73,22.73,0,0,0,3.368.164v4.823a7.117,7.117,0,0,1-7.431,7.105ZM19.483,16.082v4.293C16.762,20.034,16.493,16.429,19.483,16.082Zm1.632,39.91H14.966V43.276a.845.845,0,0,0-1.69,0V55.991H9.013a.621.621,0,0,1-.621-.621V42.227a6.7,6.7,0,0,1,3.867-6.037l5.329-2.066-.818,1.7a5.349,5.349,0,0,0-.2,4.14L21.115,52.38v3.612Zm0-8.526L18.153,39.38a3.65,3.65,0,0,1,.139-2.825l1.6-3.326,1.219-.473ZM16.278,32.819V20.233a4.167,4.167,0,0,0,3.272,1.842,8.643,8.643,0,0,0,3.428,5.9v2.239C22.939,30.238,16.32,32.8,16.278,32.819Zm9.657,4.073a5,5,0,0,1-3.131.947V33.572a17.452,17.452,0,0,0,3.116,3.2.078.078,0,0,1,.015.124Zm3.734-1.44a1.848,1.848,0,0,0-.505.639h-1.68a1.829,1.829,0,0,0-.505-.639,15.487,15.487,0,0,1-3.365-3.67,1.625,1.625,0,0,0,1.053-1.539V28.959a9.06,9.06,0,0,0,7.307.006V30.25A1.651,1.651,0,0,0,33.03,31.79a15.555,15.555,0,0,1-3.36,3.662Zm4.175,2.387a5,5,0,0,1-3.131-.947.078.078,0,0,1,.006-.116,17.469,17.469,0,0,0,3.125-3.2Zm-.179-7.615,0-2.269a8.847,8.847,0,0,0,3.426-5.88,4.164,4.164,0,0,0,3.282-1.843v4.714c-.291-.015-.583-.04-.871-.078a.845.845,0,0,0-.511,1.581l-2.372,4.206a1.194,1.194,0,0,0-.881.371l-2.07-.8ZM38.5,39.38l-2.961,8.086V33.649a3.294,3.294,0,0,0,2.545,2.331l.278.576A3.649,3.649,0,0,1,38.5,39.38Zm5.834-6.649a1.622,1.622,0,0,1-1.62,1.62H38.718a1.622,1.622,0,0,1-1.62-1.62v-.387H44.33Zm1,2.025a3.292,3.292,0,0,0,.695-2.025v-.884a1.194,1.194,0,0,0-1.192-1.192h-.017l-2.31-4.1a13.829,13.829,0,0,0,3.836-1.047,3.471,3.471,0,0,0,1.958,1.33v9.723a4.054,4.054,0,0,0-.449.123,7.683,7.683,0,0,0-2.521-1.932Zm8.031,7.226a.206.206,0,0,1,.206.206v1.783a.206.206,0,0,1-.206.206H44.925a.206.206,0,0,1-.206-.206V42.188a.206.206,0,0,1,.206-.206Zm-1.83-1.69h-4.77a2.4,2.4,0,0,1,4.77,0ZM49.141,25.257a1.771,1.771,0,1,1,1.771-1.771A1.773,1.773,0,0,1,49.141,25.257Zm8.426,1.574,2.156,3.824H55.411Zm3.616,5.9a1.621,1.621,0,0,1-1.62,1.62H55.571a1.621,1.621,0,0,1-1.62-1.62v-.387h7.232Z" transform="translate(-6.702)"/>
      </g>
    </g>
  </g>
</svg>
