<svg xmlns="http://www.w3.org/2000/svg" xmlns:xlink="http://www.w3.org/1999/xlink" width="108" height="108" viewBox="0 0 108 108">
  <defs>
    <filter id="Trazado_904820" x="0" y="0" width="108" height="108" filterUnits="userSpaceOnUse">
      <feOffset dy="3" input="SourceAlpha"/>
      <feGaussianBlur stdDeviation="3" result="blur"/>
      <feFlood flood-opacity="0.161"/>
      <feComposite operator="in" in2="blur"/>
      <feComposite in="SourceGraphic"/>
    </filter>
  </defs>
  <g id="Grupo_1224840" data-name="Grupo 1224840" transform="translate(-614.117 -991.051)">
    <g id="Grupo_1223021" data-name="Grupo 1223021" transform="translate(0 -4511.949)">
      <g id="Grupo_1221054" data-name="Grupo 1221054" transform="translate(623.117 5509)">
        <g id="Grupo_1203639" data-name="Grupo 1203639" transform="translate(0 0)">
          <g id="Grupo_1202437" data-name="Grupo 1202437" transform="translate(0 0)">
            <g id="Grupo_1177315" data-name="Grupo 1177315" transform="translate(0 0)">
              <g id="Grupo_1173585" data-name="Grupo 1173585" transform="translate(0 0)">
                <g id="Grupo_1173428" data-name="Grupo 1173428">
                  <g id="Grupo_1171958" data-name="Grupo 1171958">
                    <g id="Grupo_1167341" data-name="Grupo 1167341">
                      <g id="Grupo_1166792" data-name="Grupo 1166792">
                        <g transform="matrix(1, 0, 0, 1, -9, -6)" filter="url(#Trazado_904820)">
                          <g id="Trazado_904820-2" data-name="Trazado 904820" transform="translate(9 6)" fill="#f7f4ed">
                            <path d="M 44.99999618530273 88.49994659423828 C 39.12687301635742 88.49994659423828 33.43022155761719 87.35002136230469 28.06829643249512 85.08212280273438 C 22.88852119445801 82.89125823974609 18.23629570007324 79.75454711914062 14.24084663391113 75.75910186767578 C 10.24540901184082 71.76364898681641 7.108683586120605 67.11143493652344 4.917821407318115 61.93165969848633 C 2.649921178817749 56.56973648071289 1.499996185302734 50.87309646606445 1.499996185302734 44.99997329711914 C 1.499996185302734 39.12685012817383 2.649921178817749 33.43021011352539 4.917821407318115 28.06828498840332 C 7.108683586120605 22.88851165771484 10.24540901184082 18.23629760742188 14.24084663391113 14.24084854125977 C 18.23629570007324 10.24539852142334 22.88852119445801 7.108685970306396 28.06829643249512 4.917823314666748 C 33.43022155761719 2.649923324584961 39.12687301635742 1.499998331069946 44.99999618530273 1.499998331069946 C 50.87311935424805 1.499998331069946 56.56977081298828 2.649923324584961 61.93169784545898 4.917823314666748 C 67.11147308349609 7.108685970306396 71.76369476318359 10.24539852142334 75.75914764404297 14.24084854125977 C 79.75458526611328 18.23629760742188 82.89131164550781 22.88851165771484 85.08216857910156 28.06828498840332 C 87.35007476806641 33.43021011352539 88.5 39.12685012817383 88.5 44.99997329711914 C 88.5 50.87309646606445 87.35007476806641 56.56973648071289 85.08216857910156 61.93165969848633 C 82.89131164550781 67.11143493652344 79.75458526611328 71.76364898681641 75.75914764404297 75.75910186767578 C 71.76369476318359 79.75454711914062 67.11147308349609 82.89125823974609 61.93169784545898 85.08212280273438 C 56.56977081298828 87.35002136230469 50.87311935424805 88.49994659423828 44.99999618530273 88.49994659423828 Z" stroke="none"/>
                            <path d="M 44.99999618530273 3 C 39.32870864868164 3 33.82865142822266 4.110061645507812 28.65262603759766 6.299331665039062 C 23.65165710449219 8.414573669433594 19.15968322753906 11.44332885742188 15.301513671875 15.30149841308594 C 11.44333648681641 19.15969085693359 8.414566040039062 23.65164184570312 6.299339294433594 28.65261459350586 C 4.110054016113281 33.82864379882812 2.999992370605469 39.32868576049805 2.999992370605469 44.99997329711914 C 2.999992370605469 50.67126083374023 4.110054016113281 56.17130279541016 6.299339294433594 61.34732818603516 C 8.414566040039062 66.34829711914062 11.44333648681641 70.84025573730469 15.301513671875 74.69844055175781 C 19.15968322753906 78.55661773681641 23.65165710449219 81.58537292480469 28.65262603759766 83.70061492919922 C 33.82865142822266 85.88988494873047 39.32870864868164 86.99994659423828 44.99999618530273 86.99994659423828 C 50.67128372192383 86.99994659423828 56.17134094238281 85.88988494873047 61.34736633300781 83.70061492919922 C 66.34834289550781 81.58537292480469 70.84030914306641 78.55661773681641 74.69847869873047 74.69844055175781 C 78.55665588378906 70.84025573730469 81.58542633056641 66.34829711914062 83.70065307617188 61.34732818603516 C 85.88993835449219 56.17130279541016 87 50.67126083374023 87 44.99997329711914 C 87 39.32868576049805 85.88993835449219 33.82864379882812 83.70065307617188 28.65261459350586 C 81.58542633056641 23.65164184570312 78.55665588378906 19.15969085693359 74.69847869873047 15.30149841308594 C 70.84030914306641 11.44332885742188 66.34834289550781 8.414573669433594 61.34736633300781 6.299331665039062 C 56.17134094238281 4.110061645507812 50.67128372192383 3 44.99999618530273 3 M 44.99999618530273 0 C 69.85281372070312 0 90 20.14717102050781 90 44.99997329711914 C 90 69.85277557373047 69.85281372070312 89.99994659423828 44.99999618530273 89.99994659423828 C 20.14717864990234 89.99994659423828 -7.62939453125e-06 69.85277557373047 -7.62939453125e-06 44.99997329711914 C -7.62939453125e-06 20.14717102050781 20.14717864990234 0 44.99999618530273 0 Z" stroke="none" fill="#ba9c5a"/>
                          </g>
                        </g>
                      </g>
                    </g>
                  </g>
                </g>
              </g>
            </g>
          </g>
        </g>
      </g>
    </g>
    <g id="citacion" transform="translate(641 1013.307)">
      <g id="Grupo_1224838" data-name="Grupo 1224838" transform="translate(0.927 0.925)">
        <g id="Grupo_1224827" data-name="Grupo 1224827" transform="translate(0 3.709)">
          <path id="Trazado_1177632" data-name="Trazado 1177632" d="M36.708,12.416A17.842,17.842,0,0,0,43.115,22.4a5.373,5.373,0,0,0,3.319,1.14,5.147,5.147,0,0,0,.927-.083V56.923H1V5H36.235V8.336a17.6,17.6,0,0,0,.473,4.08Z" transform="translate(-1 -4.998)" fill="#ffeaa7"/>
        </g>
        <g id="Grupo_1224828" data-name="Grupo 1224828" transform="translate(3.709 7.418)">
          <path id="Trazado_1177633" data-name="Trazado 1177633" d="M11.491,9A6.491,6.491,0,1,1,5,15.489,6.486,6.486,0,0,1,11.491,9Z" transform="translate(-5 -8.998)" fill="#aab2bd"/>
        </g>
        <g id="Grupo_1224829" data-name="Grupo 1224829" transform="translate(7.418 11.127)">
          <circle id="Elipse_14641" data-name="Elipse 14641" cx="2.782" cy="2.782" r="2.782" fill="#ccd1d9"/>
        </g>
        <g id="Grupo_1224830" data-name="Grupo 1224830" transform="translate(35.235)">
          <path id="Trazado_1177634" data-name="Trazado 1177634" d="M59.4,4.707V8.045a17.874,17.874,0,0,1-6.88,14.066,5.313,5.313,0,0,1-2.392,1.057,5.147,5.147,0,0,1-.927.083,5.373,5.373,0,0,1-3.319-1.14,17.842,17.842,0,0,1-6.407-9.986A17.6,17.6,0,0,1,39,8.045V4.707l8.41-3.366a4.839,4.839,0,0,1,3.579,0Z" transform="translate(-39 -0.998)" fill="#aab2bd"/>
        </g>
        <g id="Grupo_1224831" data-name="Grupo 1224831" transform="translate(38.944 3.709)">
          <path id="Trazado_1177635" data-name="Trazado 1177635" d="M49.491,5a1.036,1.036,0,0,1,.408.083l6.083,2.429v.825a14,14,0,0,1-5.452,11.136,1.743,1.743,0,0,1-2.077,0A14,14,0,0,1,43,8.336V7.511l6.083-2.429A1.036,1.036,0,0,1,49.491,5Z" transform="translate(-43 -4.998)" fill="#ccd1d9"/>
        </g>
        <g id="Grupo_1224832" data-name="Grupo 1224832" transform="translate(21.326 31.526)">
          <path id="Trazado_1177636" data-name="Trazado 1177636" d="M24,35h3.709v16.69H24Z" transform="translate(-24 -34.998)" fill="#cf9e76"/>
        </g>
        <g id="Grupo_1224833" data-name="Grupo 1224833" transform="translate(21.326 22.254)">
          <path id="Trazado_1177637" data-name="Trazado 1177637" d="M27.709,25.925v4.636H24V25.925A.93.93,0,0,1,24.927,25h1.854A.93.93,0,0,1,27.709,25.925Z" transform="translate(-24 -24.998)" fill="#cf9e76"/>
        </g>
        <g id="Grupo_1224834" data-name="Grupo 1224834" transform="translate(7.418 27.817)">
          <path id="Trazado_1177638" data-name="Trazado 1177638" d="M40.526,31.925V33.78a.93.93,0,0,1-.927.927H9.927A.93.93,0,0,1,9,33.78V31.925A.93.93,0,0,1,9.927,31H39.6a.93.93,0,0,1,.927.927Z" transform="translate(-9 -30.998)" fill="#cf9e76"/>
        </g>
        <g id="Grupo_1224835" data-name="Grupo 1224835" transform="translate(13.909 48.216)">
          <path id="Trazado_1177639" data-name="Trazado 1177639" d="M34.545,53.925V55.78a.93.93,0,0,1-.927.927H16.927A.93.93,0,0,1,16,55.78V53.925A.93.93,0,0,1,16.927,53h16.69A.93.93,0,0,1,34.545,53.925Z" transform="translate(-16 -52.998)" fill="#b27946"/>
        </g>
        <g id="Grupo_1224836" data-name="Grupo 1224836" transform="translate(28.744 40.798)">
          <path id="Trazado_1177640" data-name="Trazado 1177640" d="M32,45h9.272a3.7,3.7,0,0,1-3.709,3.709H35.709A3.708,3.708,0,0,1,32,45Z" transform="translate(-32 -44.998)" fill="#d3a06c"/>
        </g>
        <g id="Grupo_1224837" data-name="Grupo 1224837" transform="translate(8.345 40.798)">
          <path id="Trazado_1177641" data-name="Trazado 1177641" d="M18.187,47.622a3.732,3.732,0,0,1-2.624,1.085H13.709A3.708,3.708,0,0,1,10,45h9.272a3.732,3.732,0,0,1-1.085,2.624Z" transform="translate(-10 -44.998)" fill="#d3a06c"/>
        </g>
      </g>
      <g id="Grupo_1224839" data-name="Grupo 1224839" transform="translate(0 0.001)">
        <path id="Trazado_1177642" data-name="Trazado 1177642" d="M39.526,29.561H27.472V25.852A1.856,1.856,0,0,0,25.617,24H23.763a1.856,1.856,0,0,0-1.854,1.854v3.709H9.854A1.856,1.856,0,0,0,8,31.416V33.27a1.856,1.856,0,0,0,1.854,1.854h2.339L8.927,43.292v.178a4.641,4.641,0,0,0,4.636,4.636h1.854a4.641,4.641,0,0,0,4.636-4.636v-.178l-3.267-8.167h5.121V49.961H16.345a1.856,1.856,0,0,0-1.854,1.854v1.854a1.856,1.856,0,0,0,1.854,1.854h16.69a1.856,1.856,0,0,0,1.854-1.854V51.815a1.856,1.856,0,0,0-1.854-1.854H27.472V35.125h5.121l-3.267,8.167v.178a4.641,4.641,0,0,0,4.636,4.636h1.854a4.641,4.641,0,0,0,4.636-4.636v-.178l-3.267-8.167h2.339A1.856,1.856,0,0,0,41.38,33.27V31.416a1.856,1.856,0,0,0-1.854-1.854ZM23.763,25.852h1.854v3.709H23.763Zm-8.345,20.4H13.563a2.778,2.778,0,0,1-2.61-1.854h7.074a2.776,2.776,0,0,1-2.609,1.854Zm2.339-3.709H11.224l2.967-7.418h.6ZM33.036,53.669H16.345V51.815h16.69Zm-7.419-3.709H23.763V35.125h1.854Zm10.2-3.709H33.963a2.778,2.778,0,0,1-2.61-1.854h7.074a2.776,2.776,0,0,1-2.609,1.854Zm2.339-3.709H31.623l2.967-7.418h.6ZM9.854,33.27V31.416H39.526V33.27Z" transform="translate(-0.582 -1.747)"/>
        <path id="Trazado_1177643" data-name="Trazado 1177643" d="M18.836,15.416a7.418,7.418,0,1,0-7.418,7.418,7.427,7.427,0,0,0,7.418-7.418Zm-12.981,0a5.563,5.563,0,1,1,5.563,5.563,5.569,5.569,0,0,1-5.563-5.563Z" transform="translate(-0.291 -0.583)"/>
        <path id="Trazado_1177644" data-name="Trazado 1177644" d="M15.418,15.707a3.709,3.709,0,1,0-3.709,3.709,3.713,3.713,0,0,0,3.709-3.709Zm-5.563,0a1.854,1.854,0,1,1,1.854,1.854,1.856,1.856,0,0,1-1.854-1.854Z" transform="translate(-0.582 -0.874)"/>
        <path id="Trazado_1177645" data-name="Trazado 1177645" d="M22,8h3.709V9.852H22Z" transform="translate(-1.601 -0.583)"/>
        <path id="Trazado_1177646" data-name="Trazado 1177646" d="M22,16h5.563v1.854H22Z" transform="translate(-1.601 -1.165)"/>
        <path id="Trazado_1177647" data-name="Trazado 1177647" d="M30,16h1.854v1.854H30Z" transform="translate(-2.183 -1.165)"/>
        <path id="Trazado_1177648" data-name="Trazado 1177648" d="M22,20H38.69v1.854H22Z" transform="translate(-1.601 -1.456)"/>
        <path id="Trazado_1177649" data-name="Trazado 1177649" d="M48.494.41a5.761,5.761,0,0,0-4.265,0l-8.246,3.3H0v53.78H48.216V23.813a6.307,6.307,0,0,0,2.032-1.04,18.632,18.632,0,0,0,7.24-14.8V4.007ZM46.362,55.632H1.854V5.562h33.38V7.416H25.963V9.271h9.321c.043.625.112,1.244.215,1.854H20.4v1.854H35.913a18.573,18.573,0,0,0,.618,1.854h-5v1.854h5.852a18.735,18.735,0,0,0,5.1,6.084,6.362,6.362,0,0,0,3.888,1.334ZM55.634,7.971A16.787,16.787,0,0,1,49.11,21.309a4.6,4.6,0,0,1-5.5,0A16.787,16.787,0,0,1,37.089,7.971V5.262l7.829-3.131a3.908,3.908,0,0,1,2.887,0l7.829,3.131Z" transform="translate(0 -0.001)"/>
        <path id="Trazado_1177650" data-name="Trazado 1177650" d="M48.663,4.144,42,6.808V8.261a14.943,14.943,0,0,0,5.807,11.873,2.653,2.653,0,0,0,3.221,0A14.945,14.945,0,0,0,56.836,8.261V6.808L50.173,4.144a2.023,2.023,0,0,0-1.51,0Zm6.318,4.118a13.081,13.081,0,0,1-4.636,10.012V12.342H48.491v5.931A13.08,13.08,0,0,1,43.854,8.26v-.2l4.636-1.854v4.279h1.854V6.21l4.636,1.854Z" transform="translate(-3.056 -0.291)"/>
      </g>
    </g>
  </g>
</svg>
