<svg xmlns="http://www.w3.org/2000/svg" xmlns:xlink="http://www.w3.org/1999/xlink" width="93.934" height="93.934" viewBox="0 0 93.934 93.934">
  <defs>
    <filter id="Trazado_982547" x="0" y="0" width="93.934" height="93.934" filterUnits="userSpaceOnUse">
      <feOffset dy="3" input="SourceAlpha"/>
      <feGaussianBlur stdDeviation="3" result="blur"/>
      <feFlood flood-opacity="0.161"/>
      <feComposite operator="in" in2="blur"/>
      <feComposite in="SourceGraphic"/>
    </filter>
  </defs>
  <g id="Grupo_1224689" data-name="Grupo 1224689" transform="translate(-191 -1131)">
    <g id="Grupo_1220441" data-name="Grupo 1220441" transform="translate(-0.066 -6937)">
      <g id="Grupo_1219553" data-name="Grupo 1219553" transform="translate(0 -381.729)">
        <g id="Grupo_1214711" data-name="Grupo 1214711" transform="translate(-0.229 3321.729)">
          <g id="Grupo_1214432" data-name="Grupo 1214432" transform="translate(-0.771 -2738.674)">
            <g id="Grupo_1183196" data-name="Grupo 1183196" transform="translate(1 1016.674)">
              <g id="Grupo_1179610" data-name="Grupo 1179610" transform="translate(8 4723.467)">
                <g id="Grupo_1175227" data-name="Grupo 1175227" transform="translate(-5.967 140.533)">
                  <g id="Grupo_1167337" data-name="Grupo 1167337" transform="translate(198.033 1992)">
                    <g id="Grupo_1166720" data-name="Grupo 1166720">
                      <g id="Grupo_1164305" data-name="Grupo 1164305">
                        <g id="Grupo_1163948" data-name="Grupo 1163948">
                          <g id="Grupo_1158168" data-name="Grupo 1158168">
                            <g id="Grupo_1152576" data-name="Grupo 1152576">
                              <g id="Grupo_1148633" data-name="Grupo 1148633">
                                <g id="Grupo_1148525" data-name="Grupo 1148525">
                                  <g transform="matrix(1, 0, 0, 1, -9, -6)" filter="url(#Trazado_982547)">
                                    <g id="Trazado_982547-2" data-name="Trazado 982547" transform="translate(9 6)" fill="#f7f4ed">
                                      <path d="M 37.966796875 74.43359375 C 33.04315185546875 74.43359375 28.26757431030273 73.46962738037109 23.77274131774902 71.56847381591797 C 19.43047523498535 69.73184967041016 15.53040790557861 67.10224914550781 12.18087482452393 63.75271987915039 C 8.831341743469238 60.4031867980957 6.201741218566895 56.50312042236328 4.365118980407715 52.16086196899414 C 2.463963508605957 47.66601943969727 1.499996900558472 42.89044189453125 1.499996900558472 37.966796875 C 1.499996900558472 33.04315185546875 2.463963508605957 28.26757431030273 4.365118980407715 23.77274131774902 C 6.201741218566895 19.43047523498535 8.831341743469238 15.53040790557861 12.18087482452393 12.18087482452393 C 15.53040790557861 8.831341743469238 19.43047523498535 6.201741218566895 23.77274131774902 4.365118980407715 C 28.26757431030273 2.463963508605957 33.04315185546875 1.499996900558472 37.966796875 1.499996900558472 C 42.89044189453125 1.499996900558472 47.66601943969727 2.463963508605957 52.16086196899414 4.365118980407715 C 56.50312042236328 6.201741218566895 60.4031867980957 8.831341743469238 63.75271987915039 12.18087482452393 C 67.10224914550781 15.53040790557861 69.73184967041016 19.43047523498535 71.56847381591797 23.77274131774902 C 73.46962738037109 28.26757431030273 74.43359375 33.04315185546875 74.43359375 37.966796875 C 74.43359375 42.89044189453125 73.46962738037109 47.66601943969727 71.56847381591797 52.16086196899414 C 69.73184967041016 56.50313186645508 67.10224914550781 60.4031867980957 63.75271987915039 63.75271987915039 C 60.4031867980957 67.10224914550781 56.50313186645508 69.73184967041016 52.16086196899414 71.56847381591797 C 47.66601943969727 73.46962738037109 42.89044189453125 74.43359375 37.966796875 74.43359375 Z" stroke="none"/>
                                      <path d="M 37.966796875 3 C 33.2449836730957 3 28.66600799560547 3.924095153808594 24.35705947875977 5.746635437011719 C 20.19359588623047 7.507637023925781 16.45379638671875 10.02928161621094 13.24153518676758 13.24153518676758 C 10.02927398681641 16.45379638671875 7.507621765136719 20.19359588623047 5.746635437011719 24.35705947875977 C 3.924095153808594 28.66600799560547 3 33.2449836730957 3 37.966796875 C 3 42.6886100769043 3.924095153808594 47.26758575439453 5.746635437011719 51.57653427124023 C 7.507621765136719 55.73999786376953 10.02927398681641 59.47979736328125 13.24153518676758 62.69205856323242 C 16.45379638671875 65.90431976318359 20.19359588623047 68.42597198486328 24.35705947875977 70.18695831298828 C 28.66600799560547 72.00949859619141 33.2449836730957 72.93359375 37.966796875 72.93359375 C 42.6886100769043 72.93359375 47.26758575439453 72.00949859619141 51.57653427124023 70.18695831298828 C 55.73999786376953 68.42597198486328 59.47979736328125 65.90431976318359 62.69205856323242 62.69205856323242 C 65.90431976318359 59.47979736328125 68.42597198486328 55.73999786376953 70.18695831298828 51.57653427124023 C 72.00949859619141 47.26758575439453 72.93359375 42.6886100769043 72.93359375 37.966796875 C 72.93359375 33.2449836730957 72.00949859619141 28.66600799560547 70.18695831298828 24.35705947875977 C 68.42597198486328 20.19359588623047 65.90431976318359 16.45379638671875 62.69205856323242 13.24153518676758 C 59.47979736328125 10.02928161621094 55.73999786376953 7.507637023925781 51.57653427124023 5.746635437011719 C 47.26758575439453 3.924095153808594 42.6886100769043 3 37.966796875 3 M 37.966796875 0 C 58.93528366088867 0 75.93359375 16.99832153320312 75.93359375 37.966796875 C 75.93359375 58.93528366088867 58.93528366088867 75.93359375 37.966796875 75.93359375 C 16.99831008911133 75.93359375 0 58.93528366088867 0 37.966796875 C 0 16.99832153320312 16.99831008911133 0 37.966796875 0 Z" stroke="none" fill="#655531"/>
                                    </g>
                                  </g>
                                </g>
                              </g>
                            </g>
                          </g>
                        </g>
                      </g>
                    </g>
                  </g>
                </g>
              </g>
            </g>
          </g>
        </g>
      </g>
    </g>
    <g id="banco_1_" data-name="banco (1)" transform="translate(213.79 1150)">
      <path id="Trazado_1177127" data-name="Trazado 1177127" d="M46.63,17.224H44.258l-4.346-3.287A8.05,8.05,0,1,0,27.266,4.361L24.5,2.274a.732.732,0,0,0-.878,0L3.88,17.224H1.508a1.3,1.3,0,0,0-1.3,1.3V22.4a1.3,1.3,0,0,0,1.3,1.291H4.233v2.267a.729.729,0,0,0,.728.728H5.989v14.6H4.968a.724.724,0,0,0-.728.728v1.5H2.769a.729.729,0,0,0-.728.728v3.07a.729.729,0,0,0,.728.728h42.6a.729.729,0,0,0,.728-.728v-3.07a.729.729,0,0,0-.728-.728H43.9v-1.5a.724.724,0,0,0-.728-.728H42.2v-14.6h.976a.729.729,0,0,0,.728-.728V23.686H46.63a1.3,1.3,0,0,0,1.3-1.291V18.523a1.3,1.3,0,0,0-1.3-1.3ZM34.419,1.456a6.6,6.6,0,1,1-6.6,6.6A6.614,6.614,0,0,1,34.419,1.456ZM24.069,3.768,26.7,5.756a7.782,7.782,0,0,0-.345,2.3,8.072,8.072,0,0,0,8.061,8.061,7.957,7.957,0,0,0,4.3-1.261l3.13,2.364H6.289ZM5.689,25.225V23.686h7.94v1.539H5.689Zm13.682,1.456H20.4v14.6H19.371a.724.724,0,0,0-.728.728v1.5H15.085v-1.5a.724.724,0,0,0-.728-.728h-.968v-14.6h.968a.724.724,0,0,0,.728-.728V23.686h3.557v2.267A.724.724,0,0,0,19.371,26.681Zm14.41,0H34.8v14.6H33.781a.724.724,0,0,0-.728.728v1.5H29.5v-1.5a.724.724,0,0,0-.728-.728h-.976v-14.6h.976a.724.724,0,0,0,.728-.728V23.686h3.557v2.267A.724.724,0,0,0,33.781,26.681ZM28.039,42.735v.773H20.1v-.773Zm-6.184-1.456v-14.6h4.481v14.6Zm6.184-16.054H20.1V23.686h7.94ZM11.933,26.681v14.6H7.445v-14.6ZM5.7,42.735h7.933v.773H5.7Zm37.481,2.229h1.464v1.614H3.5V44.964h39.68Zm-.736-2.229v.773H34.509v-.773Zm-6.184-1.456v-14.6h4.488v14.6Zm6.192-16.054h-7.94V23.686h7.94Zm4.023-2.995H1.666V18.68H46.472Z"/>
      <path id="Trazado_1177128" data-name="Trazado 1177128" d="M43.595,1.94a6.6,6.6,0,1,0,6.6,6.6,6.614,6.614,0,0,0-6.6-6.6Zm3.61,9.907a2.537,2.537,0,0,1-2.537-2.529V9.1c0-.015.008-.023.008-.03a.485.485,0,0,1,.03-.143.4.4,0,0,1,.038-.135c.008-.015,0-.023.008-.03L46.3,5.775a1.432,1.432,0,0,0-.338.135,2.468,2.468,0,0,1-1.1.233,2.581,2.581,0,0,1-.405-.03v5.824h1.081a.728.728,0,1,1,0,1.456h-3.61a.728.728,0,0,1,0-1.456H43V6.12a2.612,2.612,0,0,1-1.486-.2,1.421,1.421,0,0,0-.405-.158L42.461,8.8v.008a.886.886,0,0,1,.03.15.873.873,0,0,1,.03.135v.225a2.533,2.533,0,0,1-5.066,0V9.07c.008-.045.023-.1.03-.143s.023-.1.038-.135a.057.057,0,0,0,.008-.03L39.474,5a.626.626,0,0,0,.06-.09.164.164,0,0,0,.023-.038l.023-.023.045-.045a2.082,2.082,0,0,1,2.582-.173,1.537,1.537,0,0,0,.8.008V4.424a.728.728,0,0,1,1.456,0v.218a1.432,1.432,0,0,0,.833-.023,2.033,2.033,0,0,1,2.6.24c.008,0,.008.008.015.008a.007.007,0,0,0,.008.008c0,.008.008.015.008.023a.571.571,0,0,1,.09.143L49.674,8.8v.008a.878.878,0,0,1,.038.15.846.846,0,0,1,.023.135.007.007,0,0,1,.008.008v.218A2.537,2.537,0,0,1,47.2,11.847Z" transform="translate(-9.176 -0.484)" fill="#ffc216"/>
      <path id="Trazado_1177129" data-name="Trazado 1177129" d="M46.956,24.89v3.55H2.15V24.89H46.956Z" transform="translate(-0.484 -6.21)" fill="#e4e4e6"/>
      <path id="Trazado_1177130" data-name="Trazado 1177130" d="M45.733,59.91v1.614H4.59V59.91H45.733Z" transform="translate(-1.093 -14.946)" fill="#e4e4e6"/>
      <path id="Trazado_1177131" data-name="Trazado 1177131" d="M48.24,35.55h4.488v14.6H48.24Z" transform="translate(-11.983 -8.869)" fill="#6aadd1"/>
      <path id="Trazado_1177132" data-name="Trazado 1177132" d="M29.05,35.55h4.481v14.6H29.05Z" transform="translate(-7.195 -8.869)" fill="#6aadd1"/>
      <path id="Trazado_1177133" data-name="Trazado 1177133" d="M9.85,35.55h4.488v14.6H9.85Z" transform="translate(-2.405 -8.869)" fill="#6aadd1"/>
      <g id="Grupo_1224688" data-name="Grupo 1224688" transform="translate(5.689 3.768)">
        <path id="Trazado_1177134" data-name="Trazado 1177134" d="M7.52,56.94h7.933v.773H7.52Z" transform="translate(-7.512 -17.973)" fill="#427eb6"/>
        <path id="Trazado_1177135" data-name="Trazado 1177135" d="M26.71,56.94h7.94v.773H26.71Z" transform="translate(-12.3 -17.973)" fill="#427eb6"/>
        <path id="Trazado_1177136" data-name="Trazado 1177136" d="M45.91,56.94h7.933v.773H45.91Z" transform="translate(-17.09 -17.973)" fill="#427eb6"/>
        <path id="Trazado_1177137" data-name="Trazado 1177137" d="M15.45,31.56V33.1H7.51V31.56Z" transform="translate(-7.51 -11.641)" fill="#427eb6"/>
        <path id="Trazado_1177138" data-name="Trazado 1177138" d="M26.71,31.56h7.94V33.1H26.71Z" transform="translate(-12.3 -11.641)" fill="#427eb6"/>
        <path id="Trazado_1177139" data-name="Trazado 1177139" d="M53.85,31.56V33.1H45.91V31.56Z" transform="translate(-17.09 -11.641)" fill="#427eb6"/>
        <path id="Trazado_1177140" data-name="Trazado 1177140" d="M43.87,18.477H8.31L26.09,5.02l2.634,1.989a7.782,7.782,0,0,0-.345,2.3,8.072,8.072,0,0,0,8.061,8.061,7.957,7.957,0,0,0,4.3-1.261Z" transform="translate(-7.71 -5.02)" fill="#427eb6"/>
      </g>
      <path id="Trazado_1177141" data-name="Trazado 1177141" d="M49.888,9.676a.846.846,0,0,0-.023-.135.878.878,0,0,0-.038-.15V9.384l-1.666-3.76a.571.571,0,0,0-.09-.143c0-.008-.008-.015-.008-.023a.007.007,0,0,1-.008-.008c-.008,0-.008-.008-.015-.008a2.033,2.033,0,0,0-2.6-.24,1.432,1.432,0,0,1-.833.023V5.008a.728.728,0,0,0-1.456,0v.218a1.537,1.537,0,0,1-.8-.008,2.082,2.082,0,0,0-2.582.173l-.045.045-.023.023a.164.164,0,0,1-.023.038.626.626,0,0,1-.06.09l-1.944,3.76a.057.057,0,0,1-.008.03c-.015.038-.023.09-.038.135s-.023.1-.03.143V9.9a2.533,2.533,0,0,0,5.066,0V9.676a.872.872,0,0,0-.03-.135.885.885,0,0,0-.03-.15V9.384l-1.351-3.04a1.421,1.421,0,0,1,.405.158,2.612,2.612,0,0,0,1.486.2v5.817H42.083a.728.728,0,1,0,0,1.456h3.61a.728.728,0,1,0,0-1.456H44.612V6.7a2.581,2.581,0,0,0,.405.03,2.468,2.468,0,0,0,1.1-.233,1.432,1.432,0,0,1,.338-.135L44.905,9.346c-.008.008,0,.015-.008.03a.4.4,0,0,0-.038.135.485.485,0,0,0-.03.143c0,.008-.008.015-.008.03V9.9a2.537,2.537,0,0,0,5.074,0ZM40.229,7.6l.6,1.358h-1.3Zm-.09,3.377a1.072,1.072,0,0,1-.946-.563h1.9A1.075,1.075,0,0,1,40.139,10.975ZM47.449,7.6l.593,1.358h-1.3Zm-.09,3.377a1.075,1.075,0,0,1-.953-.563h1.906A1.084,1.084,0,0,1,47.359,10.975Z" transform="translate(-9.331 -1.068)"/>
      <path id="Trazado_1177142" data-name="Trazado 1177142" d="M51.078,10.058h-1.3L50.485,8.7Z" transform="translate(-12.367 -2.17)" fill="#ffc216"/>
      <path id="Trazado_1177143" data-name="Trazado 1177143" d="M41.468,10.058h-1.3l.7-1.358Z" transform="translate(-9.969 -2.17)" fill="#ffc216"/>
      <path id="Trazado_1177144" data-name="Trazado 1177144" d="M41.619,12.45a1.082,1.082,0,0,1-1.9,0Z" transform="translate(-9.857 -3.106)" fill="#6bc7db"/>
      <path id="Trazado_1177145" data-name="Trazado 1177145" d="M51.236,12.45a1.088,1.088,0,0,1-1.906,0Z" transform="translate(-12.255 -3.106)" fill="#6bc7db"/>
    </g>
  </g>
</svg>
