<svg xmlns="http://www.w3.org/2000/svg" xmlns:xlink="http://www.w3.org/1999/xlink" width="108" height="108" viewBox="0 0 108 108">
  <defs>
    <filter id="Trazado_904820" x="0" y="0" width="108" height="108" filterUnits="userSpaceOnUse">
      <feOffset dy="3" input="SourceAlpha"/>
      <feGaussianBlur stdDeviation="3" result="blur"/>
      <feFlood flood-opacity="0.161"/>
      <feComposite operator="in" in2="blur"/>
      <feComposite in="SourceGraphic"/>
    </filter>
  </defs>
  <g id="Grupo_1224994" data-name="Grupo 1224994" transform="translate(-150.827 -2773)">
    <g id="Grupo_1223177" data-name="Grupo 1223177" transform="translate(-43 -1276)">
      <g id="Grupo_1220968" data-name="Grupo 1220968" transform="translate(202.827 4055)">
        <g id="Grupo_1219977" data-name="Grupo 1219977" transform="translate(0 0)">
          <g id="Grupo_1219603" data-name="Grupo 1219603">
            <g id="Grupo_1202655" data-name="Grupo 1202655">
              <g id="Grupo_1173585" data-name="Grupo 1173585">
                <g id="Grupo_1173428" data-name="Grupo 1173428">
                  <g id="Grupo_1171958" data-name="Grupo 1171958">
                    <g id="Grupo_1167341" data-name="Grupo 1167341">
                      <g id="Grupo_1166792" data-name="Grupo 1166792">
                        <g transform="matrix(1, 0, 0, 1, -9, -6)" filter="url(#Trazado_904820)">
                          <g id="Trazado_904820-2" data-name="Trazado 904820" transform="translate(9 6)" fill="#fdfaeb">
                            <path d="M 44.99999618530273 88.49999237060547 C 39.12687301635742 88.49999237060547 33.43022155761719 87.35006713867188 28.06829643249512 85.08216857910156 C 22.88852119445801 82.89130401611328 18.23629570007324 79.75457763671875 14.24084663391113 75.75914001464844 C 10.24540901184082 71.76369476318359 7.108683586120605 67.11146545410156 4.917821407318115 61.93169403076172 C 2.649921178817749 56.56976699829102 1.499996185302734 50.87311553955078 1.499996185302734 44.99999237060547 C 1.499996185302734 39.12686920166016 2.649921178817749 33.43021774291992 4.917821407318115 28.06829261779785 C 7.108683586120605 22.88851737976074 10.24540901184082 18.23630523681641 14.24084663391113 14.24085521697998 C 18.23629570007324 10.24540519714355 22.88852119445801 7.108692169189453 28.06829643249512 4.917829990386963 C 33.43022155761719 2.649929761886597 39.12687301635742 1.500004887580872 44.99999618530273 1.500004887580872 C 50.87311935424805 1.500004887580872 56.56977081298828 2.649929761886597 61.93169784545898 4.917829990386963 C 67.11147308349609 7.108692169189453 71.76369476318359 10.24540519714355 75.75914764404297 14.24085521697998 C 79.75458526611328 18.23630523681641 82.89131164550781 22.88851737976074 85.08216857910156 28.06829261779785 C 87.35007476806641 33.43021774291992 88.5 39.12686920166016 88.5 44.99999237060547 C 88.5 50.87311553955078 87.35007476806641 56.56976699829102 85.08216857910156 61.93169403076172 C 82.89131164550781 67.11146545410156 79.75458526611328 71.76369476318359 75.75914764404297 75.75914001464844 C 71.76369476318359 79.75457763671875 67.11147308349609 82.89130401611328 61.93169784545898 85.08216857910156 C 56.56977081298828 87.35006713867188 50.87311935424805 88.49999237060547 44.99999618530273 88.49999237060547 Z" stroke="none"/>
                            <path d="M 44.99999618530273 2.999992370605469 C 39.32870864868164 2.999992370605469 33.82865142822266 4.11004638671875 28.65262603759766 6.299331665039062 C 23.65165710449219 8.414566040039062 19.15968322753906 11.44333648681641 15.301513671875 15.30150604248047 C 11.44333648681641 19.15967559814453 8.414566040039062 23.65164947509766 6.299339294433594 28.65262222290039 C 4.110054016113281 33.82864761352539 2.999992370605469 39.32870483398438 2.999992370605469 44.99999237060547 C 2.999992370605469 50.67127990722656 4.110054016113281 56.17132186889648 6.299339294433594 61.34736633300781 C 8.414566040039062 66.34833526611328 11.44333648681641 70.84029388427734 15.301513671875 74.69846343994141 C 19.15968322753906 78.55663299560547 23.65165710449219 81.58540344238281 28.65262603759766 83.70063781738281 C 33.82865142822266 85.88992309570312 39.32870864868164 86.99997711181641 44.99999618530273 86.99997711181641 C 50.67128372192383 86.99997711181641 56.17134094238281 85.88992309570312 61.34736633300781 83.70063781738281 C 66.34834289550781 81.58540344238281 70.84030914306641 78.55663299560547 74.69847869873047 74.69846343994141 C 78.55665588378906 70.84029388427734 81.58542633056641 66.34833526611328 83.70065307617188 61.34736633300781 C 85.88993835449219 56.17132186889648 87 50.67127990722656 87 44.99999237060547 C 87 39.32870483398438 85.88993835449219 33.82864761352539 83.70065307617188 28.65262222290039 C 81.58542633056641 23.65164947509766 78.55665588378906 19.15967559814453 74.69847869873047 15.30150604248047 C 70.84030914306641 11.44333648681641 66.34834289550781 8.414566040039062 61.34736633300781 6.299331665039062 C 56.17134094238281 4.11004638671875 50.67128372192383 2.999992370605469 44.99999618530273 2.999992370605469 M 44.99999618530273 -7.62939453125e-06 C 69.85281372070312 -7.62939453125e-06 90 20.14717864990234 90 44.99999237060547 C 90 69.85279083251953 69.85281372070312 89.99997711181641 44.99999618530273 89.99997711181641 C 20.14717864990234 89.99997711181641 -7.62939453125e-06 69.85279083251953 -7.62939453125e-06 44.99999237060547 C -7.62939453125e-06 20.14717864990234 20.14717864990234 -7.62939453125e-06 44.99999618530273 -7.62939453125e-06 Z" stroke="none" fill="#847625"/>
                          </g>
                        </g>
                      </g>
                    </g>
                  </g>
                </g>
              </g>
            </g>
          </g>
        </g>
      </g>
    </g>
    <g id="tribunal_1_" data-name="tribunal (1)" transform="translate(175.784 2795.811)">
      <g id="Grupo_1224993" data-name="Grupo 1224993" transform="translate(14.541 0.906)">
        <path id="Trazado_1177779" data-name="Trazado 1177779" d="M128.168,168.063h9.076a4.538,4.538,0,0,1-9.076,0Zm0,0" transform="translate(-128.168 -149.902)" fill="#ffce54"/>
        <path id="Trazado_1177780" data-name="Trazado 1177780" d="M361.323,176.063h.019a4.552,4.552,0,0,1-9.1,0Zm0,0" transform="translate(-326.817 -156.995)" fill="#ffce54"/>
        <path id="Trazado_1177781" data-name="Trazado 1177781" d="M270.723,10.707H268V9.346a1.361,1.361,0,0,1,2.723,0Zm0,0" transform="translate(-252.136 -7.984)" fill="#ffce54"/>
        <path id="Trazado_1177782" data-name="Trazado 1177782" d="M165.309,31.984H179.85a1.361,1.361,0,0,1,0,2.723h-26.32a1.361,1.361,0,0,1,0-2.723Zm0,0" transform="translate(-149.445 -29.262)" fill="#ffce54"/>
        <path id="Trazado_1177783" data-name="Trazado 1177783" d="M268,55.984h2.723V79.591H268Zm0,0" transform="translate(-252.136 -50.539)" fill="#ffce54"/>
      </g>
      <path id="Trazado_1177784" data-name="Trazado 1177784" d="M193.884,264.063h16.337a1.81,1.81,0,0,1,1.815,1.815v4.483l-6.353.971a3.621,3.621,0,0,0-3-3.575l-10.6-2.069.01-.028A1.814,1.814,0,0,1,193.884,264.063Zm0,0" transform="translate(-170.287 -234.105)" fill="#656d78"/>
      <path id="Trazado_1177785" data-name="Trazado 1177785" d="M131.565,275.776a3.629,3.629,0,0,1,1.815,6.772l-24.505,13.2L88,293.02V272.146h8.168l3.639.709,10.6,2.069a3.621,3.621,0,0,1,3,3.575l6.353-.971,11.181-1.7v-.009a4.5,4.5,0,0,1,.617-.045Zm0,0" transform="translate(-78.016 -241.271)" fill="#eac6bb"/>
      <path id="Trazado_1177786" data-name="Trazado 1177786" d="M17.076,278.835v1.815H8V256.145h9.076Zm0,0" transform="translate(-7.092 -227.085)" fill="#656d78"/>
      <path id="Trazado_1177787" data-name="Trazado 1177787" d="M133.38,325.971l-24.505,13.2L88,336.443v2.725l20.875,2.723,24.505-13.2a3.613,3.613,0,0,0,1.815-3.141,3.54,3.54,0,0,0-.27-1.355A3.623,3.623,0,0,1,133.38,325.971Zm0,0" transform="translate(-78.016 -287.419)" fill="#d3b1a9"/>
      <path id="Trazado_1177788" data-name="Trazado 1177788" d="M41.111,441.944a.908.908,0,0,1-.01-1.815h.01a.908.908,0,0,1,0,1.815Zm0,0" transform="translate(-35.639 -390.196)"/>
      <path id="Trazado_1177789" data-name="Trazado 1177789" d="M466.725,304.719a.907.907,0,0,1-.456-1.692,2.724,2.724,0,0,0-1.361-5.083.908.908,0,1,1,0-1.815,4.539,4.539,0,0,1,2.271,8.468A.9.9,0,0,1,466.725,304.719Zm0,0" transform="translate(-411.36 -262.533)"/>
      <path id="Trazado_1177790" data-name="Trazado 1177790" d="M264.9,370.844a.907.907,0,0,1-.431-1.706l24.505-13.194a.907.907,0,0,1,.86,1.6l-24.505,13.194A.9.9,0,0,1,264.9,370.844Zm0,0" transform="translate(-234.045 -315.466)"/>
      <path id="Trazado_1177791" data-name="Trazado 1177791" d="M101.783,452.659a.815.815,0,0,1-.118-.008l-20.875-2.723a.907.907,0,1,1,.234-1.8l20.875,2.723a.907.907,0,0,1-.116,1.807Zm0,0" transform="translate(-70.924 -397.281)"/>
      <path id="Trazado_1177792" data-name="Trazado 1177792" d="M9.984,274.449H.908A.907.907,0,0,1,0,273.542V249.037a.907.907,0,0,1,.908-.908H9.984a.907.907,0,0,1,.908.908v24.505A.907.907,0,0,1,9.984,274.449Zm-8.168-1.815H9.076v-22.69H1.815Zm0,0" transform="translate(0 -219.979)"/>
      <path id="Trazado_1177793" data-name="Trazado 1177793" d="M304.911,301.081a.908.908,0,0,1-.135-1.805l17.532-2.669a.908.908,0,1,1,.273,1.794l-17.533,2.669a.839.839,0,0,1-.137.011Zm0,0" transform="translate(-269.516 -262.947)"/>
      <path id="Trazado_1177794" data-name="Trazado 1177794" d="M272.908,297.631a.908.908,0,1,1,0-1.815,2.723,2.723,0,0,0,.469-5.406.907.907,0,0,1,.308-1.788,4.538,4.538,0,0,1-.778,9.009Zm0,0" transform="translate(-241.142 -255.867)"/>
      <path id="Trazado_1177795" data-name="Trazado 1177795" d="M167.141,268.707a.9.9,0,0,1-.174-.017l-14.238-2.776a.908.908,0,1,1,.347-1.781l14.238,2.776a.908.908,0,0,1-.173,1.8Zm0,0" transform="translate(-134.751 -234.151)"/>
      <path id="Trazado_1177796" data-name="Trazado 1177796" d="M89.076,265.944H80.908a.908.908,0,0,1,0-1.815h8.168a.908.908,0,0,1,0,1.815Zm0,0" transform="translate(-70.924 -234.164)"/>
      <path id="Trazado_1177797" data-name="Trazado 1177797" d="M180.324,346.821c-.023,0-.047,0-.071,0l-11.417-.886a.908.908,0,0,1,.14-1.81l11.416.887a.908.908,0,0,1-.069,1.813Zm0,0" transform="translate(-148.94 -305.078)"/>
      <path id="Trazado_1177798" data-name="Trazado 1177798" d="M459.436,297.994a.907.907,0,0,1-.149-1.8,4.654,4.654,0,0,1,.771-.063.908.908,0,1,1,0,1.815,2.836,2.836,0,0,0-.471.039A.864.864,0,0,1,459.436,297.994Zm0,0" transform="translate(-406.51 -262.533)"/>
      <path id="Trazado_1177799" data-name="Trazado 1177799" d="M269.939,353.765a4.2,4.2,0,0,1-.482-.027.907.907,0,0,1-.8-1,.893.893,0,0,1,1-.8,2.537,2.537,0,0,0,.279.016.907.907,0,1,1,0,1.814Zm0,0" transform="translate(-238.173 -312.001)"/>
      <path id="Trazado_1177800" data-name="Trazado 1177800" d="M185.028,259.471a.817.817,0,0,1-.109-.007.908.908,0,0,1-.793-1.009,2.723,2.723,0,0,1,2.7-2.394.908.908,0,0,1,0,1.815.9.9,0,0,0-.9.794A.909.909,0,0,1,185.028,259.471Zm0,0" transform="translate(-163.231 -227.012)"/>
      <path id="Trazado_1177801" data-name="Trazado 1177801" d="M346.731,259.693a.907.907,0,0,1-.908-.908.908.908,0,0,0-.908-.908.908.908,0,1,1,0-1.815,2.726,2.726,0,0,1,2.723,2.723A.907.907,0,0,1,346.731,259.693Zm0,0" transform="translate(-304.98 -227.013)"/>
      <path id="Trazado_1177802" data-name="Trazado 1177802" d="M360.916,278.429a.907.907,0,0,1-.908-.908V272.97a.908.908,0,1,1,1.815,0v4.551A.907.907,0,0,1,360.916,278.429Zm0,0" transform="translate(-319.165 -241.197)"/>
      <path id="Trazado_1177803" data-name="Trazado 1177803" d="M217.245,257.878H200.908a.908.908,0,1,1,0-1.815h16.338a.908.908,0,1,1,0,1.815Zm0,0" transform="translate(-177.31 -227.013)"/>
      <path id="Trazado_1177804" data-name="Trazado 1177804" d="M260.916,73.418a.907.907,0,0,1-.908-.908v-23.6a.908.908,0,0,1,1.815,0v23.6A.907.907,0,0,1,260.916,73.418Zm0,0" transform="translate(-230.51 -42.554)"/>
      <path id="Trazado_1177805" data-name="Trazado 1177805" d="M284.908,73.418A.907.907,0,0,1,284,72.51v-23.6a.908.908,0,0,1,1.815,0v23.6A.907.907,0,0,1,284.908,73.418Zm0,0" transform="translate(-251.78 -42.554)"/>
      <path id="Trazado_1177806" data-name="Trazado 1177806" d="M263.63,3.177a.907.907,0,0,1-.908-.908.454.454,0,1,0-.908,0,.908.908,0,0,1-1.815,0,2.269,2.269,0,0,1,4.538,0A.907.907,0,0,1,263.63,3.177Zm0,0" transform="translate(-230.503)"/>
      <path id="Trazado_1177807" data-name="Trazado 1177807" d="M389.037,28.538a.908.908,0,0,1,0-1.815.454.454,0,1,0,0-.908.908.908,0,0,1,0-1.815,2.269,2.269,0,1,1,0,4.538Zm0,0" transform="translate(-344.096 -21.277)"/>
      <path id="Trazado_1177808" data-name="Trazado 1177808" d="M146.374,28.538a2.269,2.269,0,0,1,0-4.538.908.908,0,0,1,0,1.815.454.454,0,1,0,0,.908.908.908,0,0,1,0,1.815Zm0,0" transform="translate(-127.756 -21.277)"/>
      <path id="Trazado_1177809" data-name="Trazado 1177809" d="M183.811,25.831H157.549a.908.908,0,0,1,0-1.815h26.262a.908.908,0,0,1,0,1.815Zm0,0" transform="translate(-138.87 -21.291)"/>
      <path id="Trazado_1177810" data-name="Trazado 1177810" d="M183.811,49.815H157.549a.908.908,0,0,1,0-1.815h26.262a.908.908,0,0,1,0,1.815Zm0,0" transform="translate(-138.87 -42.554)"/>
      <path id="Trazado_1177811" data-name="Trazado 1177811" d="M260.908,15.178a.907.907,0,0,1-.908-.908V12.908a.908.908,0,0,1,1.815,0v1.363A.907.907,0,0,1,260.908,15.178Zm0,0" transform="translate(-230.503 -10.639)"/>
      <path id="Trazado_1177812" data-name="Trazado 1177812" d="M284.908,15.177a.907.907,0,0,1-.908-.908V12.908a.908.908,0,0,1,1.815,0v1.361A.907.907,0,0,1,284.908,15.177Zm0,0" transform="translate(-251.78 -10.639)"/>
      <path id="Trazado_1177813" data-name="Trazado 1177813" d="M125.552,166.4a5.452,5.452,0,0,1-5.446-5.446.908.908,0,1,1,1.815,0,3.631,3.631,0,0,0,7.263,0,.908.908,0,1,1,1.815,0A5.453,5.453,0,0,1,125.552,166.4Zm0,0" transform="translate(-106.479 -141.89)"/>
      <path id="Trazado_1177814" data-name="Trazado 1177814" d="M130.091,161.862h-9.078a.908.908,0,0,1,0-1.815h9.078a.908.908,0,0,1,0,1.815Zm0,0" transform="translate(-106.479 -141.89)"/>
      <path id="Trazado_1177815" data-name="Trazado 1177815" d="M121.008,62.515a.909.909,0,0,1-.854-1.212l4.54-12.712a.907.907,0,0,1,1.708.61l-4.54,12.712A.906.906,0,0,1,121.008,62.515Zm0,0" transform="translate(-106.475 -42.543)"/>
      <path id="Trazado_1177816" data-name="Trazado 1177816" d="M165.567,62.522a.906.906,0,0,1-.854-.6l-4.538-12.712a.907.907,0,1,1,1.708-.61l4.538,12.712a.909.909,0,0,1-.854,1.212Zm0,0" transform="translate(-141.955 -42.549)"/>
      <path id="Trazado_1177817" data-name="Trazado 1177817" d="M349.659,174.415a5.466,5.466,0,0,1-5.46-5.46.908.908,0,0,1,1.815,0,3.645,3.645,0,1,0,7.29,0,.908.908,0,1,1,1.815,0A5.467,5.467,0,0,1,349.659,174.415Zm0,0" transform="translate(-305.15 -148.982)"/>
      <path id="Trazado_1177818" data-name="Trazado 1177818" d="M354.306,169.862h-9.078a.908.908,0,0,1,0-1.815h9.078a.908.908,0,0,1,0,1.815Zm0,0" transform="translate(-305.257 -148.982)"/>
      <path id="Trazado_1177819" data-name="Trazado 1177819" d="M345.229,63.429a.909.909,0,0,1-.861-1.2l4.54-13.619a.907.907,0,1,1,1.722.574l-4.54,13.619A.907.907,0,0,1,345.229,63.429Zm0,0" transform="translate(-305.258 -42.549)"/>
      <path id="Trazado_1177820" data-name="Trazado 1177820" d="M389.784,63.428a.906.906,0,0,1-.86-.621l-4.538-13.619a.907.907,0,1,1,1.722-.574l4.538,13.619a.908.908,0,0,1-.574,1.148A.925.925,0,0,1,389.784,63.428Zm0,0" transform="translate(-340.736 -42.548)"/>
    </g>
  </g>
</svg>
