<svg xmlns="http://www.w3.org/2000/svg" xmlns:xlink="http://www.w3.org/1999/xlink" width="108" height="108" viewBox="0 0 108 108">
  <defs>
    <filter id="Trazado_904820" x="0" y="0" width="108" height="108" filterUnits="userSpaceOnUse">
      <feOffset dy="3" input="SourceAlpha"/>
      <feGaussianBlur stdDeviation="3" result="blur"/>
      <feFlood flood-opacity="0.161"/>
      <feComposite operator="in" in2="blur"/>
      <feComposite in="SourceGraphic"/>
    </filter>
  </defs>
  <g id="Grupo_1225004" data-name="Grupo 1225004" transform="translate(-616.827 -4253.537)">
    <g id="Grupo_1223178" data-name="Grupo 1223178" transform="translate(0 3489.746)">
      <g id="Grupo_1220964" data-name="Grupo 1220964" transform="translate(625.827 769.791)">
        <g id="Grupo_1219977" data-name="Grupo 1219977" transform="translate(0 0)">
          <g id="Grupo_1219603" data-name="Grupo 1219603">
            <g id="Grupo_1202655" data-name="Grupo 1202655" transform="translate(0)">
              <g id="Grupo_1173585" data-name="Grupo 1173585">
                <g id="Grupo_1173428" data-name="Grupo 1173428">
                  <g id="Grupo_1171958" data-name="Grupo 1171958">
                    <g id="Grupo_1167341" data-name="Grupo 1167341">
                      <g id="Grupo_1166792" data-name="Grupo 1166792">
                        <g transform="matrix(1, 0, 0, 1, -9, -6)" filter="url(#Trazado_904820)">
                          <g id="Trazado_904820-2" data-name="Trazado 904820" transform="translate(9 6)" fill="#f7f4ed">
                            <path d="M 44.99999618530273 88.49999237060547 C 39.12687301635742 88.49999237060547 33.43022155761719 87.35006713867188 28.06829643249512 85.08216857910156 C 22.88852119445801 82.89130401611328 18.23629570007324 79.75457763671875 14.24084663391113 75.75914001464844 C 10.24540901184082 71.76369476318359 7.108683586120605 67.11146545410156 4.917821407318115 61.93169403076172 C 2.649921178817749 56.56976699829102 1.499996185302734 50.87311553955078 1.499996185302734 44.99999237060547 C 1.499996185302734 39.12686920166016 2.649921178817749 33.43021774291992 4.917821407318115 28.06829261779785 C 7.108683586120605 22.88851737976074 10.24540901184082 18.23630523681641 14.24084663391113 14.24085521697998 C 18.23629570007324 10.24540519714355 22.88852119445801 7.108692169189453 28.06829643249512 4.917829990386963 C 33.43022155761719 2.649929761886597 39.12687301635742 1.500004887580872 44.99999618530273 1.500004887580872 C 50.87311935424805 1.500004887580872 56.56977081298828 2.649929761886597 61.93169784545898 4.917829990386963 C 67.11147308349609 7.108692169189453 71.76369476318359 10.24540519714355 75.75914764404297 14.24085521697998 C 79.75458526611328 18.23630523681641 82.89131164550781 22.88851737976074 85.08216857910156 28.06829261779785 C 87.35007476806641 33.43021774291992 88.5 39.12686920166016 88.5 44.99999237060547 C 88.5 50.87311553955078 87.35007476806641 56.56976699829102 85.08216857910156 61.93169403076172 C 82.89131164550781 67.11146545410156 79.75458526611328 71.76369476318359 75.75914764404297 75.75914001464844 C 71.76369476318359 79.75457763671875 67.11147308349609 82.89130401611328 61.93169784545898 85.08216857910156 C 56.56977081298828 87.35006713867188 50.87311935424805 88.49999237060547 44.99999618530273 88.49999237060547 Z" stroke="none"/>
                            <path d="M 44.99999618530273 2.999992370605469 C 39.32870864868164 2.999992370605469 33.82865142822266 4.11004638671875 28.65262603759766 6.299331665039062 C 23.65165710449219 8.414566040039062 19.15968322753906 11.44333648681641 15.301513671875 15.30150604248047 C 11.44333648681641 19.15967559814453 8.414566040039062 23.65164947509766 6.299339294433594 28.65262222290039 C 4.110054016113281 33.82864761352539 2.999992370605469 39.32870483398438 2.999992370605469 44.99999237060547 C 2.999992370605469 50.67127990722656 4.110054016113281 56.17132186889648 6.299339294433594 61.34736633300781 C 8.414566040039062 66.34833526611328 11.44333648681641 70.84029388427734 15.301513671875 74.69846343994141 C 19.15968322753906 78.55663299560547 23.65165710449219 81.58540344238281 28.65262603759766 83.70063781738281 C 33.82865142822266 85.88992309570312 39.32870864868164 86.99997711181641 44.99999618530273 86.99997711181641 C 50.67128372192383 86.99997711181641 56.17134094238281 85.88992309570312 61.34736633300781 83.70063781738281 C 66.34834289550781 81.58540344238281 70.84030914306641 78.55663299560547 74.69847869873047 74.69846343994141 C 78.55665588378906 70.84029388427734 81.58542633056641 66.34833526611328 83.70065307617188 61.34736633300781 C 85.88993835449219 56.17132186889648 87 50.67127990722656 87 44.99999237060547 C 87 39.32870483398438 85.88993835449219 33.82864761352539 83.70065307617188 28.65262222290039 C 81.58542633056641 23.65164947509766 78.55665588378906 19.15967559814453 74.69847869873047 15.30150604248047 C 70.84030914306641 11.44333648681641 66.34834289550781 8.414566040039062 61.34736633300781 6.299331665039062 C 56.17134094238281 4.11004638671875 50.67128372192383 2.999992370605469 44.99999618530273 2.999992370605469 M 44.99999618530273 -7.62939453125e-06 C 69.85281372070312 -7.62939453125e-06 90 20.14717864990234 90 44.99999237060547 C 90 69.85279083251953 69.85281372070312 89.99997711181641 44.99999618530273 89.99997711181641 C 20.14717864990234 89.99997711181641 -7.62939453125e-06 69.85279083251953 -7.62939453125e-06 44.99999237060547 C -7.62939453125e-06 20.14717864990234 20.14717864990234 -7.62939453125e-06 44.99999618530273 -7.62939453125e-06 Z" stroke="none" fill="#ba9c5a"/>
                          </g>
                        </g>
                      </g>
                    </g>
                  </g>
                </g>
              </g>
            </g>
          </g>
        </g>
      </g>
    </g>
    <g id="libro-de-leyes" transform="translate(643.857 4277.889)">
      <g id="Grupo_1225002" data-name="Grupo 1225002" transform="translate(1.113 0.754)">
        <g id="Grupo_1224995" data-name="Grupo 1224995">
          <path id="Trazado_1177821" data-name="Trazado 1177821" d="M322.393,320.711V333.7H313.64V321.6Z" transform="translate(-282.887 -289.211)" fill="gray"/>
          <path id="Trazado_1177822" data-name="Trazado 1177822" d="M76.512,359.653a5,5,0,0,1,0-5.354l-14.837-2.586H43.123v9.874H68.789Z" transform="translate(-39.576 -317.095)" fill="#f6f6f6"/>
          <path id="Trazado_1177823" data-name="Trazado 1177823" d="M47.361,9.434V42.77l-32.962.8-1.886.054L7.855,47.381V14.044A6.552,6.552,0,0,1,14.4,7.5H45.428a1.933,1.933,0,0,1,1.933,1.934Z" transform="translate(-7.855 -7.5)" fill="gray"/>
          <path id="Trazado_1177824" data-name="Trazado 1177824" d="M14.4,7.5V43.567l-1.886.054L7.855,47.381V14.044A6.552,6.552,0,0,1,14.4,7.5Z" transform="translate(-7.855 -7.5)" fill="#595959"/>
          <path id="Trazado_1177825" data-name="Trazado 1177825" d="M45.431,352.065H14.4a6.544,6.544,0,1,1,0-13.088H45.431a1.933,1.933,0,1,1,0,3.866H14.4a2.678,2.678,0,0,0,0,5.356H45.431a1.933,1.933,0,1,1,0,3.866Z" transform="translate(-7.858 -305.64)" fill="#595959"/>
          <path id="Trazado_1177826" data-name="Trazado 1177826" d="M87.748,377.426v11.545a1.233,1.233,0,0,1-1.994.97l-1.54-1.208a1.236,1.236,0,0,0-1.522,0l-1.54,1.208a1.232,1.232,0,0,1-1.993-.97V377.426Z" transform="translate(-71.989 -340.222)" fill="#ffe07d"/>
          <path id="Trazado_1177827" data-name="Trazado 1177827" d="M79.159,377.426h8.589v4.758H79.159Z" transform="translate(-71.988 -340.222)" fill="#ffd064"/>
        </g>
        <g id="Grupo_1224996" data-name="Grupo 1224996" transform="translate(12.182 3.864)">
          <path id="Trazado_1177828" data-name="Trazado 1177828" d="M227.067,67.166h-3.19V47.513a1.595,1.595,0,1,1,3.19,0Z" transform="translate(-214.334 -45.918)" fill="#ffd064"/>
          <path id="Trazado_1177829" data-name="Trazado 1177829" d="M159.577,86.223H144.161a2.117,2.117,0,1,0,0,4.234h3.475a4.234,4.234,0,1,0,8.467,0h3.475a2.117,2.117,0,1,0,0-4.234Z" transform="translate(-140.731 -82.17)" fill="#ffe07d"/>
          <path id="Trazado_1177830" data-name="Trazado 1177830" d="M128.988,184.481a3.43,3.43,0,1,0,6.86,0Z" transform="translate(-128.988 -170.546)" fill="#ffe07d"/>
          <circle id="Elipse_14644" data-name="Elipse 14644" cx="1.499" cy="1.499" r="1.499" transform="translate(9.639 6.767)" fill="#ffd064"/>
          <path id="Trazado_1177831" data-name="Trazado 1177831" d="M184.513,244.579h-10.33a1.587,1.587,0,0,1,0-3.175h10.33a1.587,1.587,0,0,1,0,3.175Z" transform="translate(-168.21 -221.744)" fill="#ffe07d"/>
        </g>
        <g id="Grupo_1225001" data-name="Grupo 1225001" transform="translate(18.4 14.66)">
          <g id="Grupo_1224997" data-name="Grupo 1224997" transform="translate(0 0.001)">
            <path id="Trazado_1177832" data-name="Trazado 1177832" d="M222.324,165.369v12.85a11.506,11.506,0,0,1-1.854,6.264h0a7.118,7.118,0,0,0-1.148,3.876v.233h-15.8v-.9a3.471,3.471,0,0,0-1.017-2.454l-10.715-10.714a3.325,3.325,0,0,1,4.7-4.7l3.011,3.011V158.878a2.992,2.992,0,1,1,5.985,0v-2.564a3.042,3.042,0,0,1,3.018-3.045,2.991,2.991,0,0,1,2.967,2.992v3.092a2.992,2.992,0,1,1,5.984,0v6.016a2.435,2.435,0,1,1,4.871,0Z" transform="translate(-190.812 -153.269)" fill="#ffddce"/>
          </g>
          <g id="Grupo_1224998" data-name="Grupo 1224998" transform="translate(26.642 9.664)">
            <path id="Trazado_1177833" data-name="Trazado 1177833" d="M455.717,258.848v-7.059a2.435,2.435,0,0,1,3.005-2.368,2.436,2.436,0,0,0-1.865,2.368v5.919A1.14,1.14,0,0,1,455.717,258.848Z" transform="translate(-455.717 -249.353)" fill="#ffcbbe"/>
          </g>
          <g id="Grupo_1224999" data-name="Grupo 1224999" transform="translate(8.687)">
            <path id="Trazado_1177834" data-name="Trazado 1177834" d="M280.9,179.37a2.994,2.994,0,0,0-2.28,2.907v14.644h-.732l-.693-.693V182.277a2.992,2.992,0,0,1,3.7-2.907Z" transform="translate(-277.192 -176.667)" fill="#ffcbbe"/>
            <path id="Trazado_1177835" data-name="Trazado 1177835" d="M336.7,169.459v-13.2a2.992,2.992,0,0,1,3.7-2.907,2.994,2.994,0,0,0-2.28,2.907v11.777A1.425,1.425,0,0,1,336.7,169.459Z" transform="translate(-330.715 -153.264)" fill="#ffcbbe"/>
            <path id="Trazado_1177836" data-name="Trazado 1177836" d="M396.208,197.2V187a2.992,2.992,0,0,1,3.7-2.907,2.994,2.994,0,0,0-2.28,2.907v8.779A1.425,1.425,0,0,1,396.208,197.2Z" transform="translate(-384.239 -180.912)" fill="#ffcbbe"/>
          </g>
          <g id="Grupo_1225000" data-name="Grupo 1225000" transform="translate(0.001 15.878)">
            <path id="Trazado_1177837" data-name="Trazado 1177837" d="M207.51,328.044v2.542h-3.983v-.9a3.465,3.465,0,0,0-1.017-2.453L191.8,316.514a3.326,3.326,0,0,1,.965-5.374,3.328,3.328,0,0,0,.674,3.735l13.058,10.715A3.471,3.471,0,0,1,207.51,328.044Z" transform="translate(-190.822 -311.14)" fill="#ffcbbe"/>
          </g>
        </g>
      </g>
      <g id="Grupo_1225003" data-name="Grupo 1225003" transform="translate(0.359 0)">
        <path id="Trazado_1177838" data-name="Trazado 1177838" d="M221.842,107.953a2.253,2.253,0,1,0-2.253,2.253A2.255,2.255,0,0,0,221.842,107.953Zm-3,0a.744.744,0,1,1,.744.744A.745.745,0,0,1,218.844,107.953Z" transform="translate(-195.515 -95.07)"/>
        <path id="Trazado_1177839" data-name="Trazado 1177839" d="M48.59,24.324a3.169,3.169,0,0,0-1.682.478V21.5a3.744,3.744,0,0,0-5.535-3.29V2.687A2.69,2.69,0,0,0,38.686,0h-24.6a.754.754,0,0,0,0,1.509h24.6a1.18,1.18,0,0,1,1.179,1.179V15.8l-.038-.04a3.73,3.73,0,0,0-2.618-1.1H37.18a3.693,3.693,0,0,0-2.614,1.089q-.112.111-.214.231l-1.138-2.529a2.871,2.871,0,0,0-1.073-5.533H26.782v-1.7a2.349,2.349,0,1,0-4.7,0v1.7H16.725a2.871,2.871,0,0,0-1.073,5.533L13.7,17.8h-.4a.754.754,0,0,0-.754.754,4.184,4.184,0,1,0,8.368,0,.754.754,0,0,0-.754-.754h-.4l-1.863-4.14H19.5A5,5,0,0,0,22.085,17.3v6.22H19.269a2.341,2.341,0,1,0,0,4.683h8.177v4.946L25.723,31.43a4.082,4.082,0,0,0-6.846,1.907H8.412V1.509H11.07A.754.754,0,0,0,11.07,0H7.657a7.307,7.307,0,0,0-7.3,7.3V40.636a7.305,7.305,0,0,0,7.17,7.294V49.5a1.987,1.987,0,0,0,3.214,1.564l1.54-1.208a.478.478,0,0,1,.591,0l1.54,1.208A1.987,1.987,0,0,0,17.627,49.5v-1.57H30.688a2.735,2.735,0,0,1,.777,1.9v.9a.754.754,0,0,0,1.509,0v-.9a4.254,4.254,0,0,0-1.238-2.987L21.021,36.133A2.571,2.571,0,0,1,24.656,32.5l3.011,3.011a.754.754,0,0,0,1.288-.533V21.023a2.238,2.238,0,0,1,4.476,0h0V31.609a.754.754,0,1,0,1.509,0V18.46a2.329,2.329,0,0,1,.689-1.64,2.195,2.195,0,0,1,1.552-.651H37.2a2.237,2.237,0,0,1,2.219,2.238v6.4a.754.754,0,0,0,1.509,0v-3.3s0-.005,0-.008a2.238,2.238,0,1,1,4.475,0V34.573a.754.754,0,0,0,1.509,0V27.514s0,0,0,0a1.681,1.681,0,0,1,3.362,0v12.85a10.728,10.728,0,0,1-1.732,5.853l-.016.025A7.856,7.856,0,0,0,47.27,50.5v.233a.754.754,0,1,0,1.509,0V50.5A6.351,6.351,0,0,1,49.8,47.039l.016-.025a12.234,12.234,0,0,0,1.959-6.65V27.514a3.193,3.193,0,0,0-3.189-3.19ZM1.868,7.3A5.8,5.8,0,0,1,6.9,1.559V4.829A7.3,7.3,0,0,0,1.868,7.652Zm0,4.774A5.8,5.8,0,0,1,6.9,6.349V9.855a7.3,7.3,0,0,0-5.035,2.823Zm0,5.026A5.8,5.8,0,0,1,6.9,11.375v10.43a7.3,7.3,0,0,0-5.035,2.823Zm0,11.95A5.8,5.8,0,0,1,6.9,23.326v3.506a7.3,7.3,0,0,0-5.035,2.823Zm0,5.026A5.8,5.8,0,0,1,6.9,28.352v5.024A7.3,7.3,0,0,0,1.868,36.2Zm0,6.56a5.8,5.8,0,0,1,5.79-5.79H18.794a4.049,4.049,0,0,0,1.16,2.354l0,0H7.657a3.432,3.432,0,0,0-.128,6.861v2.357a5.8,5.8,0,0,1-5.662-5.786Zm15.759-1.924h3.84l3.847,3.847H17.627V38.712Zm-10.1,3.84a1.921,1.921,0,0,1,0-3.834Zm8.32,7.381a.466.466,0,0,1-.5-.054L13.8,48.671a1.982,1.982,0,0,0-2.453,0l-1.54,1.208a.479.479,0,0,1-.774-.377V38.712h7.08V49.5A.466.466,0,0,1,15.849,49.933Zm1.778-5.866h9.2l2.358,2.357H17.627ZM23.593,6.213a.84.84,0,1,1,1.681,0v1.7H23.593ZM16.725,21.229a2.68,2.68,0,0,1-2.567-1.921h5.135A2.681,2.681,0,0,1,16.725,21.229ZM15.35,17.8l1.375-3.056L18.1,17.8Zm5.6-4.894a.754.754,0,0,0-.754-.754H16.725a1.363,1.363,0,0,1,0-2.725H32.141a1.363,1.363,0,1,1,0,2.725H28.667a.754.754,0,0,0-.754.754,3.479,3.479,0,0,1-6.958,0Zm2.639,4.916a4.945,4.945,0,0,0,1.68,0v5.7H23.593v-5.7ZM19.269,26.7a.834.834,0,0,1-.834-.833.834.834,0,0,1,.834-.833h8.177V26.7Zm9.275-8.324a3.726,3.726,0,0,0-1.1,2.649v2.5h-.664V17.3a5,5,0,0,0,2.582-3.644h1.611l-1.932,4.3A3.77,3.77,0,0,0,28.543,18.374Zm2.65-1.1c-.065,0-.129,0-.193.005l1.141-2.538L33.5,17.758c-.018.093-.033.186-.043.28a3.725,3.725,0,0,0-2.262-.762Z" transform="translate(-0.359 0)"/>
        <path id="Trazado_1177840" data-name="Trazado 1177840" d="M389.462,269.17a.754.754,0,0,0-.754.754V273.8a.754.754,0,1,0,1.509,0v-3.877A.754.754,0,0,0,389.462,269.17Z" transform="translate(-349.652 -242.099)"/>
      </g>
    </g>
  </g>
</svg>
