<svg xmlns="http://www.w3.org/2000/svg" xmlns:xlink="http://www.w3.org/1999/xlink" width="93.934" height="93.934" viewBox="0 0 93.934 93.934">
  <defs>
    <filter id="Trazado_982547" x="0" y="0" width="93.934" height="93.934" filterUnits="userSpaceOnUse">
      <feOffset dy="3" input="SourceAlpha"/>
      <feGaussianBlur stdDeviation="3" result="blur"/>
      <feFlood flood-opacity="0.161"/>
      <feComposite operator="in" in2="blur"/>
      <feComposite in="SourceGraphic"/>
    </filter>
  </defs>
  <g id="Grupo_1224714" data-name="Grupo 1224714" transform="translate(-611.066 -1130.533)">
    <g id="Grupo_1220443" data-name="Grupo 1220443" transform="translate(0 -6937)">
      <g id="Grupo_1219555" data-name="Grupo 1219555" transform="translate(0 -382.196)">
        <g id="Grupo_1214712" data-name="Grupo 1214712" transform="translate(-0.229 3321.729)">
          <g id="Grupo_1214433" data-name="Grupo 1214433" transform="translate(-0.771 -2738.674)">
            <g id="Grupo_1183190" data-name="Grupo 1183190" transform="translate(1 1016.674)">
              <g id="Grupo_1179611" data-name="Grupo 1179611" transform="translate(428 4723.467)">
                <g id="Grupo_1175227" data-name="Grupo 1175227" transform="translate(-5.967 140.533)">
                  <g id="Grupo_1167337" data-name="Grupo 1167337" transform="translate(198.033 1992)">
                    <g id="Grupo_1166720" data-name="Grupo 1166720">
                      <g id="Grupo_1164305" data-name="Grupo 1164305">
                        <g id="Grupo_1163948" data-name="Grupo 1163948">
                          <g id="Grupo_1158168" data-name="Grupo 1158168">
                            <g id="Grupo_1152576" data-name="Grupo 1152576">
                              <g id="Grupo_1148633" data-name="Grupo 1148633">
                                <g id="Grupo_1148525" data-name="Grupo 1148525">
                                  <g transform="matrix(1, 0, 0, 1, -9, -6)" filter="url(#Trazado_982547)">
                                    <g id="Trazado_982547-2" data-name="Trazado 982547" transform="translate(9 6)" fill="#f7f4ed">
                                      <path d="M 37.966796875 74.43359375 C 33.04315185546875 74.43359375 28.26757431030273 73.46962738037109 23.77274131774902 71.56847381591797 C 19.43047523498535 69.73184967041016 15.53040790557861 67.10224914550781 12.18087482452393 63.75271987915039 C 8.831341743469238 60.4031867980957 6.201741218566895 56.50312042236328 4.365118980407715 52.16086196899414 C 2.463963508605957 47.66601943969727 1.499996900558472 42.89044189453125 1.499996900558472 37.966796875 C 1.499996900558472 33.04315185546875 2.463963508605957 28.26757431030273 4.365118980407715 23.77274131774902 C 6.201741218566895 19.43047523498535 8.831341743469238 15.53040790557861 12.18087482452393 12.18087482452393 C 15.53040790557861 8.831341743469238 19.43047523498535 6.201741218566895 23.77274131774902 4.365118980407715 C 28.26757431030273 2.463963508605957 33.04315185546875 1.499996900558472 37.966796875 1.499996900558472 C 42.89044189453125 1.499996900558472 47.66601943969727 2.463963508605957 52.16086196899414 4.365118980407715 C 56.50312042236328 6.201741218566895 60.4031867980957 8.831341743469238 63.75271987915039 12.18087482452393 C 67.10224914550781 15.53040790557861 69.73184967041016 19.43047523498535 71.56847381591797 23.77274131774902 C 73.46962738037109 28.26757431030273 74.43359375 33.04315185546875 74.43359375 37.966796875 C 74.43359375 42.89044189453125 73.46962738037109 47.66601943969727 71.56847381591797 52.16086196899414 C 69.73184967041016 56.50313186645508 67.10224914550781 60.4031867980957 63.75271987915039 63.75271987915039 C 60.4031867980957 67.10224914550781 56.50313186645508 69.73184967041016 52.16086196899414 71.56847381591797 C 47.66601943969727 73.46962738037109 42.89044189453125 74.43359375 37.966796875 74.43359375 Z" stroke="none"/>
                                      <path d="M 37.966796875 3 C 33.2449836730957 3 28.66600799560547 3.924095153808594 24.35705947875977 5.746635437011719 C 20.19359588623047 7.507637023925781 16.45379638671875 10.02928161621094 13.24153518676758 13.24153518676758 C 10.02927398681641 16.45379638671875 7.507621765136719 20.19359588623047 5.746635437011719 24.35705947875977 C 3.924095153808594 28.66600799560547 3 33.2449836730957 3 37.966796875 C 3 42.6886100769043 3.924095153808594 47.26758575439453 5.746635437011719 51.57653427124023 C 7.507621765136719 55.73999786376953 10.02927398681641 59.47979736328125 13.24153518676758 62.69205856323242 C 16.45379638671875 65.90431976318359 20.19359588623047 68.42597198486328 24.35705947875977 70.18695831298828 C 28.66600799560547 72.00949859619141 33.2449836730957 72.93359375 37.966796875 72.93359375 C 42.6886100769043 72.93359375 47.26758575439453 72.00949859619141 51.57653427124023 70.18695831298828 C 55.73999786376953 68.42597198486328 59.47979736328125 65.90431976318359 62.69205856323242 62.69205856323242 C 65.90431976318359 59.47979736328125 68.42597198486328 55.73999786376953 70.18695831298828 51.57653427124023 C 72.00949859619141 47.26758575439453 72.93359375 42.6886100769043 72.93359375 37.966796875 C 72.93359375 33.2449836730957 72.00949859619141 28.66600799560547 70.18695831298828 24.35705947875977 C 68.42597198486328 20.19359588623047 65.90431976318359 16.45379638671875 62.69205856323242 13.24153518676758 C 59.47979736328125 10.02928161621094 55.73999786376953 7.507637023925781 51.57653427124023 5.746635437011719 C 47.26758575439453 3.924095153808594 42.6886100769043 3 37.966796875 3 M 37.966796875 0 C 58.93528366088867 0 75.93359375 16.99832153320312 75.93359375 37.966796875 C 75.93359375 58.93528366088867 58.93528366088867 75.93359375 37.966796875 75.93359375 C 16.99831008911133 75.93359375 0 58.93528366088867 0 37.966796875 C 0 16.99832153320312 16.99831008911133 0 37.966796875 0 Z" stroke="none" fill="#655531"/>
                                    </g>
                                  </g>
                                </g>
                              </g>
                            </g>
                          </g>
                        </g>
                      </g>
                    </g>
                  </g>
                </g>
              </g>
            </g>
          </g>
        </g>
      </g>
    </g>
    <g id="obediente_4_" data-name="obediente (4)" transform="translate(621.823 1151.279)">
      <g id="Grupo_1224690" data-name="Grupo 1224690" transform="translate(24.261 0.68)">
        <path id="Trazado_1177146" data-name="Trazado 1177146" d="M145.655,7.5H116.769a.454.454,0,0,0-.454.454V20.528h2.975a2.223,2.223,0,0,1,.155,4.44v2.758h0a.906.906,0,0,1,.769.9v5.631a.906.906,0,0,1-.769.9h0v2.758a2.223,2.223,0,0,1-.155,4.44h-2.975v3.722h6.26a.907.907,0,0,1,.907.907v1.807h.691a.907.907,0,0,1,.907.907v2.893h21.028V7.954A.454.454,0,0,0,145.655,7.5Z" transform="translate(-116.315 -7.5)" fill="#fff3de"/>
      </g>
      <g id="Grupo_1224691" data-name="Grupo 1224691" transform="translate(24.261 0.68)">
        <path id="Trazado_1177147" data-name="Trazado 1177147" d="M119.29,20.528l.081,0V7.954a.454.454,0,0,1,.454-.454h-3.056a.454.454,0,0,0-.454.454V20.528Z" transform="translate(-116.315 -7.5)" fill="#ffe5c2"/>
        <path id="Trazado_1177148" data-name="Trazado 1177148" d="M119.29,391.629h-2.975v3.722h3.056v-3.724Z" transform="translate(-116.315 -356.783)" fill="#ffe5c2"/>
      </g>
      <g id="Grupo_1224709" data-name="Grupo 1224709" transform="translate(15.758 13.709)">
        <g id="Grupo_1224692" data-name="Grupo 1224692" transform="translate(12.401 9.358)">
          <path id="Trazado_1177149" data-name="Trazado 1177149" d="M159.3,254.29h4.2v3.1h-4.2Z" transform="translate(-159.296 -254.29)" fill="#883f2e"/>
          <path id="Trazado_1177150" data-name="Trazado 1177150" d="M237.5,254.29h6v3.1h-6Z" transform="translate(-230.408 -254.29)" fill="#883f2e"/>
        </g>
        <g id="Grupo_1224693" data-name="Grupo 1224693" transform="translate(12.401 10.964)">
          <path id="Trazado_1177151" data-name="Trazado 1177151" d="M159.3,272h4.2v1.5h-4.2Z" transform="translate(-159.296 -272)" fill="#6d3326"/>
          <path id="Trazado_1177152" data-name="Trazado 1177152" d="M237.5,272h6v1.5h-6Z" transform="translate(-230.408 -272)" fill="#6d3326"/>
        </g>
        <g id="Grupo_1224694" data-name="Grupo 1224694" transform="translate(25.493 8.634)">
          <path id="Trazado_1177153" data-name="Trazado 1177153" d="M320.47,248.585a2.275,2.275,0,0,1-2.275,2.275H304.133a.517.517,0,0,1-.517-.517v-3.516a.517.517,0,0,1,.517-.517H318.2A2.275,2.275,0,0,1,320.47,248.585Z" transform="translate(-303.616 -246.31)" fill="#ca6e59"/>
        </g>
        <g id="Grupo_1224695" data-name="Grupo 1224695" transform="translate(25.493 8.634)">
          <path id="Trazado_1177154" data-name="Trazado 1177154" d="M306.708,248.912a.517.517,0,0,1-.517-.517V246.31h-2.058a.517.517,0,0,0-.517.517v3.516a.517.517,0,0,0,.517.517H318.2a2.275,2.275,0,0,0,2.251-1.947Z" transform="translate(-303.616 -246.31)" fill="#bb5d4c"/>
        </g>
        <g id="Grupo_1224696" data-name="Grupo 1224696" transform="translate(16.6 8.634)">
          <path id="Trazado_1177155" data-name="Trazado 1177155" d="M208.48,246.765v3.642a.454.454,0,0,1-.454.454h-1.988a.454.454,0,0,1-.454-.454v-3.642a.454.454,0,0,1,.454-.454h1.988A.453.453,0,0,1,208.48,246.765Z" transform="translate(-205.585 -246.311)" fill="#ca6e59"/>
        </g>
        <g id="Grupo_1224697" data-name="Grupo 1224697" transform="translate(16.6 8.634)">
          <path id="Trazado_1177156" data-name="Trazado 1177156" d="M206.9,250.407v-3.642a.454.454,0,0,1,.454-.454h-1.315a.454.454,0,0,0-.454.454v3.642a.454.454,0,0,0,.454.454h1.315A.454.454,0,0,1,206.9,250.407Z" transform="translate(-205.585 -246.311)" fill="#bb5d4c"/>
        </g>
        <g id="Grupo_1224698" data-name="Grupo 1224698" transform="translate(5.635 4.44)">
          <path id="Trazado_1177157" data-name="Trazado 1177157" d="M90.562,312.309H84.841a.911.911,0,0,1-.138-.012v2.758c.051,0,.1-.006.155-.006h5.687c.052,0,.1,0,.155.006V312.3A.9.9,0,0,1,90.562,312.309Z" transform="translate(-84.703 -302.118)" fill="#883f2e"/>
          <path id="Trazado_1177158" data-name="Trazado 1177158" d="M84.841,312.309a.911.911,0,0,1-.138-.012v2.758c.051,0,.1-.006.155-.006h2.129v-2.74H84.841Z" transform="translate(-84.703 -302.118)" fill="#6d3326"/>
          <path id="Trazado_1177159" data-name="Trazado 1177159" d="M84.841,202.825h5.721a.913.913,0,0,1,.138.012v-2.758c-.051,0-.1.006-.155.006H84.858c-.052,0-.1,0-.155-.006v2.758A.913.913,0,0,1,84.841,202.825Z" transform="translate(-84.703 -200.079)" fill="#883f2e"/>
          <path id="Trazado_1177160" data-name="Trazado 1177160" d="M84.841,202.824h2.146v-2.74H84.858c-.052,0-.1,0-.155-.006v2.758A.923.923,0,0,1,84.841,202.824Z" transform="translate(-84.703 -200.078)" fill="#6d3326"/>
        </g>
        <g id="Grupo_1224699" data-name="Grupo 1224699" transform="translate(4.866 7.186)">
          <path id="Trazado_1177161" data-name="Trazado 1177161" d="M83.76,231.259v5.631a.907.907,0,0,1-.907.907H77.132a.907.907,0,0,1-.907-.907v-5.631a.907.907,0,0,1,.907-.907h5.721A.907.907,0,0,1,83.76,231.259Z" transform="translate(-76.225 -230.352)" fill="#ca6e59"/>
        </g>
        <g id="Grupo_1224700" data-name="Grupo 1224700" transform="translate(4.866 7.186)">
          <path id="Trazado_1177162" data-name="Trazado 1177162" d="M79.289,236.89v-5.631a.907.907,0,0,1,.907-.907H77.132a.907.907,0,0,0-.907.907v5.631a.907.907,0,0,0,.907.907H80.2A.907.907,0,0,1,79.289,236.89Z" transform="translate(-76.225 -230.352)" fill="#bb5d4c"/>
        </g>
        <g id="Grupo_1224703" data-name="Grupo 1224703" transform="translate(0 25.54)">
          <path id="Trazado_1177163" data-name="Trazado 1177163" d="M54.262,435.49a.927.927,0,0,0,0-.093v-1.8a.907.907,0,0,0-.907-.907H41.1a.907.907,0,0,0-.907.907v1.8a.929.929,0,0,0,0,.093Z" transform="translate(-38.597 -432.685)" fill="#ca6e59"/>
          <path id="Trazado_1177164" data-name="Trazado 1177164" d="M43.266,435.49a.929.929,0,0,1,0-.093v-1.8a.907.907,0,0,1,.907-.907H41.1a.907.907,0,0,0-.907.907v1.8a.929.929,0,0,0,0,.093Z" transform="translate(-38.597 -432.685)" fill="#bb5d4c"/>
          <g id="Grupo_1224701" data-name="Grupo 1224701" transform="translate(0 2.714)">
            <path id="Trazado_1177165" data-name="Trazado 1177165" d="M39.846,466.408H23.032a.454.454,0,0,1-.454-.454v-2.439a.907.907,0,0,1,.907-.907H38.939a.907.907,0,0,1,.907.907Z" transform="translate(-22.578 -462.608)" fill="#883f2e"/>
          </g>
          <g id="Grupo_1224702" data-name="Grupo 1224702" transform="translate(0 2.714)">
            <path id="Trazado_1177166" data-name="Trazado 1177166" d="M25.61,465.954v-2.439a.907.907,0,0,1,.907-.907H23.485a.907.907,0,0,0-.907.907v2.439a.454.454,0,0,0,.454.454h3.032A.454.454,0,0,1,25.61,465.954Z" transform="translate(-22.578 -462.608)" fill="#6d3326"/>
          </g>
        </g>
        <g id="Grupo_1224708" data-name="Grupo 1224708" transform="translate(3.567)">
          <g id="Grupo_1224704" data-name="Grupo 1224704" transform="translate(0 17.371)">
            <path id="Trazado_1177167" data-name="Trazado 1177167" d="M72.038,344.856a2.223,2.223,0,0,1-2.223,2.223H64.128a2.223,2.223,0,0,1,0-4.446h5.687A2.223,2.223,0,0,1,72.038,344.856Z" transform="translate(-61.905 -342.633)" fill="#ca6e59"/>
          </g>
          <g id="Grupo_1224705" data-name="Grupo 1224705" transform="translate(0 17.371)">
            <path id="Trazado_1177168" data-name="Trazado 1177168" d="M64.933,344.856a2.223,2.223,0,0,1,2.223-2.223H64.128a2.223,2.223,0,0,0,0,4.446h3.028A2.223,2.223,0,0,1,64.933,344.856Z" transform="translate(-61.905 -342.633)" fill="#bb5d4c"/>
          </g>
          <g id="Grupo_1224706" data-name="Grupo 1224706" transform="translate(0)">
            <path id="Trazado_1177169" data-name="Trazado 1177169" d="M72.038,153.351a2.223,2.223,0,0,1-2.223,2.223H64.128a2.223,2.223,0,0,1,0-4.446h5.687A2.223,2.223,0,0,1,72.038,153.351Z" transform="translate(-61.905 -151.128)" fill="#ca6e59"/>
          </g>
          <g id="Grupo_1224707" data-name="Grupo 1224707">
            <path id="Trazado_1177170" data-name="Trazado 1177170" d="M64.933,153.351a2.223,2.223,0,0,1,2.223-2.223H64.128a2.223,2.223,0,0,0,0,4.446h3.028A2.223,2.223,0,0,1,64.933,153.351Z" transform="translate(-61.905 -151.128)" fill="#bb5d4c"/>
          </g>
        </g>
      </g>
      <g id="Grupo_1224712" data-name="Grupo 1224712" transform="translate(32.793 4.908)">
        <g id="Grupo_1224710" data-name="Grupo 1224710">
          <circle id="Elipse_14632" data-name="Elipse 14632" cx="6.365" cy="6.365" r="6.365" fill="#4fc123"/>
        </g>
        <g id="Grupo_1224711" data-name="Grupo 1224711" transform="translate(0)">
          <path id="Trazado_1177171" data-name="Trazado 1177171" d="M213.422,60.472a6.367,6.367,0,0,1,4.84-6.18,6.365,6.365,0,1,0,0,12.359A6.367,6.367,0,0,1,213.422,60.472Z" transform="translate(-210.372 -54.107)" fill="#47a920"/>
        </g>
      </g>
      <g id="Grupo_1224713" data-name="Grupo 1224713" transform="translate(15.078 0)">
        <path id="Trazado_1177172" data-name="Trazado 1177172" d="M55.83,21.662h-1.1V9.887a.68.68,0,0,0-.7-.68.7.7,0,0,0-.659.709V21.662h-4.56a.68.68,0,0,0,0,1.361H55.83a1.594,1.594,0,1,1,0,3.189h-13.9V23.023H45.64a.68.68,0,0,0,0-1.361H41.768a1.2,1.2,0,0,0-1.1.724H35.856a1.135,1.135,0,0,0-1.056-.724H32.812a1.135,1.135,0,0,0-1.056.724H28.84V21.8a1.586,1.586,0,0,0-.769-1.358V18.712a2.9,2.9,0,0,0-.835-5.684H24.941V1.361H53.374V6.712a.68.68,0,0,0,.7.68.7.7,0,0,0,.659-.709V1.134A1.134,1.134,0,0,0,53.6,0H24.715a1.134,1.134,0,0,0-1.134,1.134V13.028H21.549a2.9,2.9,0,0,0-.835,5.684v1.732a1.586,1.586,0,0,0-.769,1.358v5.631a1.586,1.586,0,0,0,.769,1.358v1.732a2.9,2.9,0,0,0,.835,5.684h2.032v2.362H18.263a1.589,1.589,0,0,0-1.587,1.587v1.127h-.011a1.589,1.589,0,0,0-1.587,1.587v2.439a1.135,1.135,0,0,0,1.134,1.134H53.6a1.134,1.134,0,0,0,1.134-1.134V27.572h1.1a2.955,2.955,0,0,0,0-5.91Zm-19.9,2.084h4.637v1.741H35.934Zm-2.9-.724h1.535v3.189H33.039Zm-4.2.724h2.838v1.741H28.84Zm-8.834-7.815a1.545,1.545,0,0,1,1.543-1.543h5.687a1.543,1.543,0,1,1,0,3.086H21.549A1.544,1.544,0,0,1,20.006,15.932Zm1.526,11.728a.227.227,0,0,1-.227-.227V21.8a.227.227,0,0,1,.227-.227h5.721a.227.227,0,0,1,.227.227v5.631a.227.227,0,0,1-.227.227ZM26.71,29.02V30.4H22.074V29.02Zm-4.636-8.805V18.835H26.71v1.379Zm-.525,14.631a1.543,1.543,0,1,1,0-3.086h5.687a1.543,1.543,0,1,1,0,3.086Zm10.8,10.237H16.439V42.87a.227.227,0,0,1,.227-.227h4.211a.68.68,0,1,0,0-1.361h-2.84V40.155a.227.227,0,0,1,.227-.227H30.521a.227.227,0,0,1,.227.227v1.127h-6.7a.68.68,0,1,0,0,1.361h8.068a.227.227,0,0,1,.227.227Zm21.029,0H33.706V42.87a1.589,1.589,0,0,0-1.587-1.587h-.011V40.155a1.589,1.589,0,0,0-1.587-1.587h-5.58V36.206h2.294a2.9,2.9,0,0,0,.835-5.684V28.79a1.586,1.586,0,0,0,.769-1.358v-.584h2.916a1.135,1.135,0,0,0,1.056.724H34.8a1.135,1.135,0,0,0,1.056-.724h4.813a1.2,1.2,0,0,0,1.1.724H53.374v17.51Z" transform="translate(-15.078 0)"/>
        <path id="Trazado_1177173" data-name="Trazado 1177173" d="M202.872,53.652a7.045,7.045,0,1,0,7.045-7.045A7.053,7.053,0,0,0,202.872,53.652Zm12.73,0a5.685,5.685,0,1,1-5.685-5.685A5.691,5.691,0,0,1,215.6,53.652Z" transform="translate(-185.837 -42.379)"/>
        <path id="Trazado_1177174" data-name="Trazado 1177174" d="M247.5,102.51a.68.68,0,0,0-.962.962l2.093,2.093a.68.68,0,0,0,.962,0l3.244-3.244a.68.68,0,1,0-.962-.962l-2.762,2.763Z" transform="translate(-225.366 -91.983)"/>
        <path id="Trazado_1177175" data-name="Trazado 1177175" d="M243.681,327.749a.68.68,0,0,0,.68.68h12.511a.68.68,0,0,0,0-1.361H244.361A.68.68,0,0,0,243.681,327.749Z" transform="translate(-222.945 -297.401)"/>
        <path id="Trazado_1177176" data-name="Trazado 1177176" d="M317.631,363.546h-6.45a.68.68,0,1,0,0,1.361h6.45a.68.68,0,0,0,0-1.361Z" transform="translate(-283.703 -330.569)"/>
        <path id="Trazado_1177177" data-name="Trazado 1177177" d="M244.361,364.907h3.7a.68.68,0,1,0,0-1.361h-3.7a.68.68,0,1,0,0,1.361Z" transform="translate(-222.945 -330.569)"/>
        <path id="Trazado_1177178" data-name="Trazado 1177178" d="M256.872,400.023H244.36a.68.68,0,1,0,0,1.361h12.511a.68.68,0,0,0,0-1.361Z" transform="translate(-222.944 -363.738)"/>
        <path id="Trazado_1177179" data-name="Trazado 1177179" d="M349.456,436.5H346.18a.68.68,0,1,0,0,1.361h3.275a.68.68,0,1,0,0-1.361Z" transform="translate(-315.528 -396.906)"/>
        <path id="Trazado_1177180" data-name="Trazado 1177180" d="M251.511,436.5h-7.15a.68.68,0,1,0,0,1.361h7.15a.68.68,0,1,0,0-1.361Z" transform="translate(-222.945 -396.906)"/>
      </g>
    </g>
  </g>
</svg>
