<svg xmlns="http://www.w3.org/2000/svg" xmlns:xlink="http://www.w3.org/1999/xlink" width="108" height="108" viewBox="0 0 108 108">
  <defs>
    <filter id="Trazado_904820" x="0" y="0" width="108" height="108" filterUnits="userSpaceOnUse">
      <feOffset dy="3" input="SourceAlpha"/>
      <feGaussianBlur stdDeviation="3" result="blur"/>
      <feFlood flood-opacity="0.161"/>
      <feComposite operator="in" in2="blur"/>
      <feComposite in="SourceGraphic"/>
    </filter>
  </defs>
  <g id="Grupo_1225041" data-name="Grupo 1225041" transform="translate(-199 -8172.756)">
    <g id="Grupo_1223182" data-name="Grupo 1223182" transform="translate(208 8178.756)">
      <g id="Grupo_1221443" data-name="Grupo 1221443" transform="translate(0 0)">
        <g id="Grupo_1220569" data-name="Grupo 1220569">
          <g id="Grupo_1219977" data-name="Grupo 1219977">
            <g id="Grupo_1219603" data-name="Grupo 1219603">
              <g id="Grupo_1202655" data-name="Grupo 1202655">
                <g id="Grupo_1173585" data-name="Grupo 1173585">
                  <g id="Grupo_1173428" data-name="Grupo 1173428">
                    <g id="Grupo_1171958" data-name="Grupo 1171958">
                      <g id="Grupo_1167341" data-name="Grupo 1167341">
                        <g id="Grupo_1166792" data-name="Grupo 1166792">
                          <g transform="matrix(1, 0, 0, 1, -9, -6)" filter="url(#Trazado_904820)">
                            <g id="Trazado_904820-2" data-name="Trazado 904820" transform="translate(9 6)" fill="#f7f4ed">
                              <path d="M 44.99999618530273 88.49990081787109 C 39.12687301635742 88.49990081787109 33.43022155761719 87.3499755859375 28.06829643249512 85.08207702636719 C 22.88852119445801 82.89122009277344 18.23629570007324 79.75450134277344 14.24084663391113 75.75906372070312 C 10.24540901184082 71.76361846923828 7.108683586120605 67.11140441894531 4.917821407318115 61.931640625 C 2.649921178817749 56.56971740722656 1.499996185302734 50.87306594848633 1.499996185302734 44.99995422363281 C 1.499996185302734 39.1268424987793 2.649921178817749 33.43019104003906 4.917821407318115 28.06826591491699 C 7.108683586120605 22.88850402832031 10.24540901184082 18.23629188537598 14.24084663391113 14.24084186553955 C 18.23629570007324 10.24540424346924 22.88852119445801 7.108691692352295 28.06829643249512 4.917829036712646 C 33.43022155761719 2.649929285049438 39.12687301635742 1.500004172325134 44.99999618530273 1.500004172325134 C 50.87311935424805 1.500004172325134 56.56977081298828 2.649929285049438 61.93169784545898 4.917829036712646 C 67.11147308349609 7.108691692352295 71.76369476318359 10.24540424346924 75.75914764404297 14.24084186553955 C 79.75458526611328 18.23629188537598 82.89131164550781 22.88850402832031 85.08216857910156 28.06826591491699 C 87.35007476806641 33.43019104003906 88.5 39.1268424987793 88.5 44.99995422363281 C 88.5 50.87306594848633 87.35007476806641 56.56971740722656 85.08216857910156 61.931640625 C 82.89131164550781 67.11140441894531 79.75458526611328 71.76361846923828 75.75914764404297 75.75906372070312 C 71.76369476318359 79.75450134277344 67.11147308349609 82.89122009277344 61.93169784545898 85.08207702636719 C 56.56977081298828 87.3499755859375 50.87311935424805 88.49990081787109 44.99999618530273 88.49990081787109 Z" stroke="none"/>
                              <path d="M 44.99999618530273 3 C 39.32870864868164 3 33.82865142822266 4.110054016113281 28.65262603759766 6.299324035644531 C 23.65165710449219 8.414566040039062 19.15968322753906 11.44332885742188 15.301513671875 15.30149841308594 C 11.44333648681641 19.15966796875 8.414566040039062 23.65162658691406 6.299339294433594 28.65259552001953 C 4.110054016113281 33.8286247253418 2.999992370605469 39.32866668701172 2.999992370605469 44.99995422363281 C 2.999992370605469 50.67124176025391 4.110054016113281 56.17128372192383 6.299339294433594 61.34731292724609 C 8.414566040039062 66.34828186035156 11.44333648681641 70.84024047851562 15.301513671875 74.69841003417969 C 19.15968322753906 78.55657958984375 23.65165710449219 81.58534240722656 28.65262603759766 83.70058441162109 C 33.82865142822266 85.88985443115234 39.32870864868164 86.99990844726562 44.99999618530273 86.99990844726562 C 50.67128372192383 86.99990844726562 56.17134094238281 85.88985443115234 61.34736633300781 83.70058441162109 C 66.34834289550781 81.58534240722656 70.84030914306641 78.55657958984375 74.69847869873047 74.69841003417969 C 78.55665588378906 70.84024047851562 81.58542633056641 66.34828186035156 83.70065307617188 61.34731292724609 C 85.88993835449219 56.17128372192383 87 50.67124176025391 87 44.99995422363281 C 87 39.32866668701172 85.88993835449219 33.8286247253418 83.70065307617188 28.65259552001953 C 81.58542633056641 23.65162658691406 78.55665588378906 19.15966796875 74.69847869873047 15.30149841308594 C 70.84030914306641 11.44332885742188 66.34834289550781 8.414566040039062 61.34736633300781 6.299324035644531 C 56.17134094238281 4.110054016113281 50.67128372192383 3 44.99999618530273 3 M 44.99999618530273 0 C 69.85281372070312 0 90 20.14717102050781 90 44.99995422363281 C 90 69.85273742675781 69.85281372070312 89.99990844726562 44.99999618530273 89.99990844726562 C 20.14717864990234 89.99990844726562 -7.62939453125e-06 69.85273742675781 -7.62939453125e-06 44.99995422363281 C -7.62939453125e-06 20.14717102050781 20.14717864990234 0 44.99999618530273 0 Z" stroke="none" fill="#ba9c5a"/>
                            </g>
                          </g>
                        </g>
                      </g>
                    </g>
                  </g>
                </g>
              </g>
            </g>
          </g>
        </g>
      </g>
    </g>
    <g id="decision" transform="translate(205.502 8196.291)">
      <g id="Grupo_1225039" data-name="Grupo 1225039" transform="translate(23.245 0.805)">
        <path id="Trazado_1177954" data-name="Trazado 1177954" d="M210.85,7.5H181.669a1.614,1.614,0,0,0-1.609,1.609V47.946l31.327,1.073L212.46,9.109A1.614,1.614,0,0,0,210.85,7.5Z" transform="translate(-163.955 -7.5)" fill="#e1dee2"/>
        <path id="Trazado_1177955" data-name="Trazado 1177955" d="M210.314,24.109v1.609H180.06V63.482h30.79a1.614,1.614,0,0,0,1.609-1.609V22.5h-.536A1.614,1.614,0,0,0,210.314,24.109Z" transform="translate(-163.955 -20.891)" fill="#c5bec6"/>
        <path id="Trazado_1177956" data-name="Trazado 1177956" d="M180.85,37.5H151.669a1.614,1.614,0,0,0-1.609,1.609V77.946l31.327,1.073,1.073-39.909A1.614,1.614,0,0,0,180.85,37.5Z" transform="translate(-137.173 -34.281)" fill="#faf8f8"/>
        <path id="Trazado_1177957" data-name="Trazado 1177957" d="M180.314,54.109V90.532a.8.8,0,0,1-.8.8H150.06v.536a1.614,1.614,0,0,0,1.609,1.609H180.85a1.614,1.614,0,0,0,1.609-1.609V52.5h-.536A1.614,1.614,0,0,0,180.314,54.109Z" transform="translate(-137.173 -47.672)" fill="#e1dee2"/>
        <path id="Trazado_1177958" data-name="Trazado 1177958" d="M60.286,462.294a5.151,5.151,0,0,0-.7-.047H41.536a4.5,4.5,0,0,0-4.04,2.387l24.792,1.073a5.314,5.314,0,0,0-2-3.413Z" transform="translate(-36.685 -413.46)" fill="#d09180"/>
        <path id="Trazado_1177959" data-name="Trazado 1177959" d="M57.688,467.173s-.652-4.006-4.148-4.486a6.782,6.782,0,0,1,.622,1.259.8.8,0,0,1-.756,1.081H30.751a6.958,6.958,0,0,0-.811,2.146Z" transform="translate(-29.94 -413.853)" fill="#b46e5a"/>
        <path id="Trazado_1177960" data-name="Trazado 1177960" d="M296.1,421.106c.27-.468.665-2.233-.253-2.718-2.488-1.273-8.622-4.264-8.622-4.264l-1.609.76v2.028s5.656,3.816,8,5.335C294.5,422.8,295.831,421.573,296.1,421.106Z" transform="translate(-258.188 -370.5)" fill="#d09180"/>
        <path id="Trazado_1177961" data-name="Trazado 1177961" d="M363.364,454.352c-.161-.093-.484-.263-.917-.484a4.029,4.029,0,0,1-2.227,3.858c.408.264.717.459.878.552a2.267,2.267,0,1,0,2.266-3.926Z" transform="translate(-324.785 -405.98)" fill="#b46e5a"/>
        <path id="Trazado_1177962" data-name="Trazado 1177962" d="M234.613,383.748,228.29,380.1l-1.609.812v1.975L233,386.535Z" transform="translate(-205.574 -340.123)" fill="#b46e5a"/>
        <path id="Trazado_1177963" data-name="Trazado 1177963" d="M0,0H3.219V3.559H0Z" transform="matrix(0.5, -0.866, 0.866, 0.5, 18.024, 40.982)" fill="#a65d4e"/>
        <path id="Trazado_1177964" data-name="Trazado 1177964" d="M167.815,345.6s2.266,1.253,1.521,2.544l-1.609,2.787c-.746,1.291-2.963-.045-2.963-.045l-1.876-4.607Z" transform="translate(-148.624 -309.324)" fill="#d09180"/>
        <path id="Trazado_1177965" data-name="Trazado 1177965" d="M100.517,277.77,99.192,274.9l-6.52.6c-.807,1.4-.807,3.662-1.614,5.06s-2.768,2.53-3.575,3.928l2.743,5.945,3.151-.289Z" transform="translate(-81.31 -246.21)" fill="#d09180"/>
        <path id="Trazado_1177966" data-name="Trazado 1177966" d="M149.557,301.676c-1.175,1.906-3.836,3.47-4.945,5.391s-1.133,5.007-2.2,6.978l3.37-.309c.807-1.4.807-3.662,1.614-5.06s2.768-2.53,3.575-3.928Z" transform="translate(-130.349 -270.116)" fill="#b46e5a"/>
        <path id="Trazado_1177967" data-name="Trazado 1177967" d="M66.288,396.79c1.462,0,4.342-1.909,4.342-1.909L59.561,390.12a4.549,4.549,0,0,0-.195,2.353,6.749,6.749,0,0,0,2.673,2.807,9.775,9.775,0,0,0,4.249,1.51Z" transform="translate(-56.134 -349.071)" fill="#d09180"/>
        <path id="Trazado_1177968" data-name="Trazado 1177968" d="M88.753,435.533a6.749,6.749,0,0,1-3.768-.911c2.236,1.555,5.245,2.871,6.555,2.521a4.566,4.566,0,0,0,1.943-1.344v-1.609H90.7a4.565,4.565,0,0,1-1.943,1.344Z" transform="translate(-79.08 -388.412)" fill="#b46e5a"/>
        <path id="Trazado_1177969" data-name="Trazado 1177969" d="M64.632,362.933a1.113,1.113,0,0,0-1.548.415l-.755,1.309a5.486,5.486,0,0,0-.442,1.053l8.189,4.728,3.306-1.145c.313-.542-.672-1.7-2.164-2.558Z" transform="translate(-58.459 -324.661)" fill="#ebae9d"/>
        <path id="Trazado_1177970" data-name="Trazado 1177970" d="M139.359,399.676a1.032,1.032,0,0,1,.306,1.485l-.755,1.309a5.456,5.456,0,0,1-.692.909L141,404.988a5.45,5.45,0,0,0,.692-.909l.755-1.309a1.133,1.133,0,0,0-.415-1.548Z" transform="translate(-126.601 -357.602)" fill="#d09180"/>
        <path id="Trazado_1177971" data-name="Trazado 1177971" d="M154.6,236.18c.731,1.266.518,4.714.518,4.714l-9.658-7.205a4.549,4.549,0,0,1,1.94-1.345,6.748,6.748,0,0,1,3.768.911,9.774,9.774,0,0,1,3.432,2.925Z" transform="translate(-133.07 -208.171)" fill="#d09180"/>
        <path id="Trazado_1177972" data-name="Trazado 1177972" d="M201.341,244.121a6.749,6.749,0,0,0-2.673-2.807c2.465,1.159,5.109,3.107,5.46,4.417a4.564,4.564,0,0,1-.192,2.355l-1.394.8-1.394-2.414A4.565,4.565,0,0,0,201.341,244.121Z" transform="translate(-180.566 -216.23)" fill="#b46e5a"/>
        <path id="Trazado_1177973" data-name="Trazado 1177973" d="M131.049,249.125a1.113,1.113,0,0,1-.415-1.548l.755-1.309a5.494,5.494,0,0,1,.691-.91l8.189,4.728.661,3.435c-.313.542-1.8.266-3.3-.595Z" transform="translate(-119.687 -219.84)" fill="#ebae9d"/>
        <path id="Trazado_1177974" data-name="Trazado 1177974" d="M197.227,292.267a1.032,1.032,0,0,0,1.439-.478l.755-1.309a5.449,5.449,0,0,0,.441-1.054l2.787,1.609a5.458,5.458,0,0,1-.441,1.054l-.755,1.309a1.133,1.133,0,0,1-1.548.415Z" transform="translate(-179.28 -259.181)" fill="#d09180"/>
      </g>
      <g id="Grupo_1225040" data-name="Grupo 1225040" transform="translate(22.441)">
        <path id="Trazado_1177975" data-name="Trazado 1177975" d="M402.2,85.5a.8.8,0,0,0-.8.8v31.273a.805.805,0,0,1-.8.8h-.8v-4.42a.8.8,0,0,0-1.609,0v7.37a.806.806,0,0,1-.8.8H393.4a.8.8,0,0,0,0,1.609h3.965a2.417,2.417,0,0,0,2.414-2.414V119.99h.8A2.417,2.417,0,0,0,403,117.576V86.3A.8.8,0,0,0,402.2,85.5Z" transform="translate(-352.886 -76.325)"/>
        <path id="Trazado_1177976" data-name="Trazado 1177976" d="M177.374,0H148.192a2.417,2.417,0,0,0-2.414,2.414v.8h-.8a2.417,2.417,0,0,0-2.414,2.414v8.232a.8.8,0,1,0,1.609,0V5.632a.805.805,0,0,1,.8-.8h29.181a.805.805,0,0,1,.8.8V34.417a.8.8,0,0,0,1.609,0V5.632a2.417,2.417,0,0,0-2.414-2.414H147.388v-.8a.805.805,0,0,1,.8-.8h29.181a.805.805,0,0,1,.8.8V6.759a.8.8,0,1,0,1.609,0V2.414A2.417,2.417,0,0,0,177.374,0Z" transform="translate(-129.673)"/>
        <path id="Trazado_1177977" data-name="Trazado 1177977" d="M193.045,171.909h18.727a.8.8,0,1,0,0-1.609H193.045a.8.8,0,1,0,0,1.609Z" transform="translate(-174.023 -152.03)"/>
        <path id="Trazado_1177978" data-name="Trazado 1177978" d="M193.045,131.909h15.509a.8.8,0,1,0,0-1.609H193.045a.8.8,0,1,0,0,1.609Z" transform="translate(-174.023 -116.321)"/>
        <path id="Trazado_1177979" data-name="Trazado 1177979" d="M193.045,91.909H214.75a.8.8,0,0,0,0-1.609H193.045a.8.8,0,0,0,0,1.609Z" transform="translate(-174.023 -80.612)"/>
        <path id="Trazado_1177980" data-name="Trazado 1177980" d="M62.226,183.936c-1.014-.586-8.068-4.033-9.387-4.676h3.428a.8.8,0,0,0,0-1.609H50.024l-4.645-2.682H63.168a.8.8,0,1,0,0-1.609H44.538a4.219,4.219,0,0,0-.847-.929,7.562,7.562,0,0,0,.512-.595,1.937,1.937,0,0,0,1.912-.954l.118-.2H63.168a.8.8,0,1,0,0-1.609H47.12a6.86,6.86,0,0,0,.573-2.682H63.168a.8.8,0,0,0,0-1.609H47.227a10.612,10.612,0,0,0-2.93-2.682h18.87a.8.8,0,0,0,0-1.609H41.4c-1.292-.58-2.922-1.124-4.026-.829a3.225,3.225,0,0,0-.434.152v-7.27a.8.8,0,1,0-1.609,0v8.4a6.744,6.744,0,0,0-1.076,1.346l-.751,1.3a1.88,1.88,0,0,0-.216,1.446,1.938,1.938,0,0,0,.34.7,13.13,13.13,0,0,0-.61,2.17,8.543,8.543,0,0,1-.718,2.3.8.8,0,1,0,1.394.8,9.756,9.756,0,0,0,.9-2.759,15.869,15.869,0,0,1,.4-1.557l7.708,4.45a15.873,15.873,0,0,1-1.151,1.122,9.753,9.753,0,0,0-1.941,2.155,9.757,9.757,0,0,0-.9,2.759,15.867,15.867,0,0,1-.4,1.557l-7.707-4.45c.227-.257.485-.507.743-.748a.8.8,0,0,0-1.1-1.177,10.331,10.331,0,0,0-1.156,1.228,1.935,1.935,0,0,0-.775.055,1.88,1.88,0,0,0-1.145.91l-.751,1.3a6.118,6.118,0,0,0-.718,4.017c.474,1.77,3.494,3.63,4.408,4.158.1.059.23.132.381.214H28.1c-3.794,0-5.351,3.407-5.645,5.209a.8.8,0,0,0,.794.934H50.993a.8.8,0,0,0,.794-.934c-.293-1.8-1.85-5.209-5.645-5.209h-7.95a6.272,6.272,0,0,0,.845-1.1l.755-1.309a1.939,1.939,0,0,0-.13-2.135,7.584,7.584,0,0,0,.26-.739,4.061,4.061,0,0,0,1.363.272,2.33,2.33,0,0,0,.583-.07,1.905,1.905,0,0,0,.62-.285l4.142,2.391H42.347a.8.8,0,1,0,0,1.609h7.071l.831.48c.557.376,7.829,5.279,8.906,5.9a3.071,3.071,0,0,0,3.071-5.319Zm-11.845-2.363-6.934-4,.8-1.394,6.934,4ZM37.788,161.211a1.15,1.15,0,0,1,.293-.032,10.5,10.5,0,0,1,4.291,1.61c2.179,1.258,3.49,2.553,3.659,3.181a2.519,2.519,0,0,1,.035.9l-9.072-5.238A2.506,2.506,0,0,1,37.788,161.211Zm-2.909,3.206.011-.018.755-1.309c.05-.086.111-.179.18-.275l9.8,5.658a3.25,3.25,0,0,1-.148.294l-.755,1.309a.329.329,0,0,1-.449.12l-9.263-5.348a.349.349,0,0,1-.165-.212.277.277,0,0,1,.035-.219Zm-3.965,18.218c-2.18-1.258-3.49-2.553-3.659-3.181a2.5,2.5,0,0,1-.033-.9l9.072,5.238a2.519,2.519,0,0,1-.8.42,1,1,0,0,1-.205.03h-.179A10.97,10.97,0,0,1,30.914,182.635Zm19.022,6.141H24.309a6.013,6.013,0,0,1,.5-1.04,3.67,3.67,0,0,1,3.283-1.884H46.143A4.03,4.03,0,0,1,49.936,188.776ZM38.4,181.027l-.755,1.309a3.285,3.285,0,0,1-.181.275l-9.8-5.658c.049-.109.1-.208.148-.294l.755-1.309.01-.018a.276.276,0,0,1,.173-.14.32.32,0,0,1,.086-.012.361.361,0,0,1,.18.049l9.263,5.348a.329.329,0,0,1,.12.449Zm1.907-3.647a7.97,7.97,0,0,1,.686-2.156,7.964,7.964,0,0,1,1.524-1.672,2.188,2.188,0,0,1,.773.9.261.261,0,0,1-.029.228l-1.609,2.787a.261.261,0,0,1-.183.139A2.187,2.187,0,0,1,40.306,177.38Zm21.65,9.947a1.464,1.464,0,0,1-2,.535c-.778-.449-5.4-3.544-8.212-5.438l.859-1.487c3.046,1.488,8.037,3.944,8.815,4.393a1.464,1.464,0,0,1,.535,2Z" transform="translate(-22.441 -135.456)"/>
      </g>
    </g>
  </g>
</svg>
