<svg xmlns="http://www.w3.org/2000/svg" xmlns:xlink="http://www.w3.org/1999/xlink" width="93.934" height="93.934" viewBox="0 0 93.934 93.934">
  <defs>
    <filter id="Trazado_982547" x="0" y="0" width="93.934" height="93.934" filterUnits="userSpaceOnUse">
      <feOffset dy="3" input="SourceAlpha"/>
      <feGaussianBlur stdDeviation="3" result="blur"/>
      <feFlood flood-opacity="0.161"/>
      <feComposite operator="in" in2="blur"/>
      <feComposite in="SourceGraphic"/>
    </filter>
  </defs>
  <g id="Grupo_1224716" data-name="Grupo 1224716" transform="translate(-1031.066 -1130.5)">
    <g id="Grupo_1220445" data-name="Grupo 1220445" transform="translate(0 -6937.5)">
      <g id="Grupo_1219556" data-name="Grupo 1219556" transform="translate(0 -381.729)">
        <g id="Grupo_1214713" data-name="Grupo 1214713" transform="translate(-0.229 3321.729)">
          <g id="Grupo_1214434" data-name="Grupo 1214434" transform="translate(-0.771 -2738.522)">
            <g id="Grupo_1183184" data-name="Grupo 1183184" transform="translate(1 1016.523)">
              <g id="Grupo_1179612" data-name="Grupo 1179612" transform="translate(848 4723.467)">
                <g id="Grupo_1175227" data-name="Grupo 1175227" transform="translate(-5.967 140.533)">
                  <g id="Grupo_1167337" data-name="Grupo 1167337" transform="translate(198.033 1992)">
                    <g id="Grupo_1166720" data-name="Grupo 1166720">
                      <g id="Grupo_1164305" data-name="Grupo 1164305">
                        <g id="Grupo_1163948" data-name="Grupo 1163948">
                          <g id="Grupo_1158168" data-name="Grupo 1158168">
                            <g id="Grupo_1152576" data-name="Grupo 1152576">
                              <g id="Grupo_1148633" data-name="Grupo 1148633">
                                <g id="Grupo_1148525" data-name="Grupo 1148525">
                                  <g transform="matrix(1, 0, 0, 1, -9, -6)" filter="url(#Trazado_982547)">
                                    <g id="Trazado_982547-2" data-name="Trazado 982547" transform="translate(9 6)" fill="#f7f4ed">
                                      <path d="M 37.966796875 74.43359375 C 33.04315185546875 74.43359375 28.26757431030273 73.46962738037109 23.77274131774902 71.56847381591797 C 19.43047523498535 69.73184967041016 15.53040790557861 67.10224914550781 12.18087482452393 63.75271987915039 C 8.831341743469238 60.4031867980957 6.201741218566895 56.50312042236328 4.365118980407715 52.16086196899414 C 2.463963508605957 47.66601943969727 1.499996900558472 42.89044189453125 1.499996900558472 37.966796875 C 1.499996900558472 33.04315185546875 2.463963508605957 28.26757431030273 4.365118980407715 23.77274131774902 C 6.201741218566895 19.43047523498535 8.831341743469238 15.53040790557861 12.18087482452393 12.18087482452393 C 15.53040790557861 8.831341743469238 19.43047523498535 6.201741218566895 23.77274131774902 4.365118980407715 C 28.26757431030273 2.463963508605957 33.04315185546875 1.499996900558472 37.966796875 1.499996900558472 C 42.89044189453125 1.499996900558472 47.66601943969727 2.463963508605957 52.16086196899414 4.365118980407715 C 56.50312042236328 6.201741218566895 60.4031867980957 8.831341743469238 63.75271987915039 12.18087482452393 C 67.10224914550781 15.53040790557861 69.73184967041016 19.43047523498535 71.56847381591797 23.77274131774902 C 73.46962738037109 28.26757431030273 74.43359375 33.04315185546875 74.43359375 37.966796875 C 74.43359375 42.89044189453125 73.46962738037109 47.66601943969727 71.56847381591797 52.16086196899414 C 69.73184967041016 56.50313186645508 67.10224914550781 60.4031867980957 63.75271987915039 63.75271987915039 C 60.4031867980957 67.10224914550781 56.50313186645508 69.73184967041016 52.16086196899414 71.56847381591797 C 47.66601943969727 73.46962738037109 42.89044189453125 74.43359375 37.966796875 74.43359375 Z" stroke="none"/>
                                      <path d="M 37.966796875 3 C 33.2449836730957 3 28.66600799560547 3.924095153808594 24.35705947875977 5.746635437011719 C 20.19359588623047 7.507637023925781 16.45379638671875 10.02928161621094 13.24153518676758 13.24153518676758 C 10.02927398681641 16.45379638671875 7.507621765136719 20.19359588623047 5.746635437011719 24.35705947875977 C 3.924095153808594 28.66600799560547 3 33.2449836730957 3 37.966796875 C 3 42.6886100769043 3.924095153808594 47.26758575439453 5.746635437011719 51.57653427124023 C 7.507621765136719 55.73999786376953 10.02927398681641 59.47979736328125 13.24153518676758 62.69205856323242 C 16.45379638671875 65.90431976318359 20.19359588623047 68.42597198486328 24.35705947875977 70.18695831298828 C 28.66600799560547 72.00949859619141 33.2449836730957 72.93359375 37.966796875 72.93359375 C 42.6886100769043 72.93359375 47.26758575439453 72.00949859619141 51.57653427124023 70.18695831298828 C 55.73999786376953 68.42597198486328 59.47979736328125 65.90431976318359 62.69205856323242 62.69205856323242 C 65.90431976318359 59.47979736328125 68.42597198486328 55.73999786376953 70.18695831298828 51.57653427124023 C 72.00949859619141 47.26758575439453 72.93359375 42.6886100769043 72.93359375 37.966796875 C 72.93359375 33.2449836730957 72.00949859619141 28.66600799560547 70.18695831298828 24.35705947875977 C 68.42597198486328 20.19359588623047 65.90431976318359 16.45379638671875 62.69205856323242 13.24153518676758 C 59.47979736328125 10.02928161621094 55.73999786376953 7.507637023925781 51.57653427124023 5.746635437011719 C 47.26758575439453 3.924095153808594 42.6886100769043 3 37.966796875 3 M 37.966796875 0 C 58.93528366088867 0 75.93359375 16.99832153320312 75.93359375 37.966796875 C 75.93359375 58.93528366088867 58.93528366088867 75.93359375 37.966796875 75.93359375 C 16.99831008911133 75.93359375 0 58.93528366088867 0 37.966796875 C 0 16.99832153320312 16.99831008911133 0 37.966796875 0 Z" stroke="none" fill="#655531"/>
                                    </g>
                                  </g>
                                </g>
                              </g>
                            </g>
                          </g>
                        </g>
                      </g>
                    </g>
                  </g>
                </g>
              </g>
            </g>
          </g>
        </g>
      </g>
    </g>
    <g id="leyes" transform="translate(1054.5 1150.64)">
      <path id="Trazado_1177181" data-name="Trazado 1177181" d="M69.228,59.369A3.638,3.638,0,0,1,66.65,58.3l-.126-.126,1.119-1.119.126.126a2.057,2.057,0,0,0,2.384.386A12.5,12.5,0,0,1,79.977,57a10.889,10.889,0,0,0,7.431,0,12.507,12.507,0,0,1,9.827.565,2.057,2.057,0,0,0,2.384-.386l.127-.126,1.118,1.119-.126.126a3.643,3.643,0,0,1-4.209.683,10.921,10.921,0,0,0-8.579-.494,12.477,12.477,0,0,1-8.514,0,10.919,10.919,0,0,0-8.579.494,3.646,3.646,0,0,1-1.629.386Zm0,0" transform="translate(-59.946 -50.614)" fill="#ffa912"/>
      <path id="Trazado_1177182" data-name="Trazado 1177182" d="M148.926,296.215h9.493a4.747,4.747,0,0,1,4.746,4.746H144.18A4.746,4.746,0,0,1,148.926,296.215Zm0,0" transform="translate(-129.924 -266.845)" fill="#ffb531"/>
      <path id="Trazado_1177183" data-name="Trazado 1177183" d="M259.344,296.215H256.18a4.747,4.747,0,0,1,4.746,4.746h3.164A4.747,4.747,0,0,0,259.344,296.215Zm0,0" transform="translate(-230.849 -266.845)" fill="#ffa912"/>
      <g id="Grupo_1224715" data-name="Grupo 1224715" transform="translate(0.808 0.88)">
        <path id="Trazado_1177184" data-name="Trazado 1177184" d="M220.924,10.478a2.373,2.373,0,1,0-3.955,1.757V36.582h3.164V12.235a2.356,2.356,0,0,0,.791-1.757Zm0,0" transform="translate(-195.61 -8.092)" fill="#ffb531"/>
        <path id="Trazado_1177185" data-name="Trazado 1177185" d="M8.18,192.215H24a4.746,4.746,0,0,1-4.746,4.746H12.926A4.746,4.746,0,0,1,8.18,192.215Zm0,0" transform="translate(-8.18 -174.008)" fill="#ffb531"/>
        <path id="Trazado_1177186" data-name="Trazado 1177186" d="M312.18,192.215H328a4.746,4.746,0,0,1-4.746,4.746h-6.328A4.746,4.746,0,0,1,312.18,192.215Zm0,0" transform="translate(-282.12 -174.009)" fill="#ffb531"/>
      </g>
      <path id="Trazado_1177187" data-name="Trazado 1177187" d="M396.926,192.215a4.746,4.746,0,0,1-4.746,4.746h3.164a4.746,4.746,0,0,0,4.746-4.746Zm0,0" transform="translate(-353.401 -173.129)" fill="#ffa912"/>
      <path id="Trazado_1177188" data-name="Trazado 1177188" d="M9.362,72.729a.82.82,0,0,0-1.286,0L.165,83.8a.791.791,0,1,0,1.286.919L8.719,74.55l7.267,10.173a.791.791,0,1,0,1.286-.919Zm0,0" transform="translate(0 -65.177)" fill="#d6d6d4"/>
      <path id="Trazado_1177189" data-name="Trazado 1177189" d="M321.273,83.8l-7.911-11.075a.82.82,0,0,0-1.286,0L304.166,83.8a.791.791,0,1,0,1.286.919l7.267-10.173,7.267,10.173a.791.791,0,0,0,1.286-.919Zm0,0" transform="translate(-273.94 -65.177)" fill="#d6d6d4"/>
      <path id="Trazado_1177190" data-name="Trazado 1177190" d="M92.926,192.215a4.746,4.746,0,0,1-4.746,4.746h3.164a4.746,4.746,0,0,0,4.746-4.746Zm0,0" transform="translate(-79.461 -173.129)" fill="#ffa912"/>
      <path id="Trazado_1177191" data-name="Trazado 1177191" d="M71.071,350.543H48.921a7.074,7.074,0,0,1,0-6.328h22.15A7.074,7.074,0,0,0,71.071,350.543Zm0,0" transform="translate(-43.411 -310.098)" fill="#803f37"/>
      <path id="Trazado_1177192" data-name="Trazado 1177192" d="M74.572,344.584l.2-.37H73.013a7.9,7.9,0,0,0,0,6.328h1.752l-.187-.353a6.31,6.31,0,0,1-.007-5.605Zm0,0" transform="translate(-65.198 -310.098)" fill="#ffb531"/>
      <path id="Trazado_1177193" data-name="Trazado 1177193" d="M234.1,344.6l.213-.384h-1.766a7.9,7.9,0,0,0,0,6.328h1.761l-.2-.353A6.305,6.305,0,0,1,234.1,344.6Zm0,0" transform="translate(-208.96 -310.099)" fill="#ffb531"/>
      <path id="Trazado_1177194" data-name="Trazado 1177194" d="M272.921,344.215a7.074,7.074,0,0,0,0,6.328h15.03a7.074,7.074,0,0,1,0-6.328Zm0,0" transform="translate(-245.262 -310.098)" fill="#e0e0de"/>
      <path id="Trazado_1177195" data-name="Trazado 1177195" d="M111.73,368.215h9.493V369.8H111.73Zm0,0" transform="translate(-100.682 -331.725)" fill="#f98500"/>
      <path id="Trazado_1177196" data-name="Trazado 1177196" d="M287.264,368.215h-15.03a7.176,7.176,0,0,0,0,1.582h15.03A7.172,7.172,0,0,1,287.264,368.215Zm0,0" transform="translate(-245.276 -331.725)" fill="#d6d6d4"/>
      <path id="Trazado_1177197" data-name="Trazado 1177197" d="M71.071,414.543H48.921a7.074,7.074,0,0,1,0-6.328h22.15A7.074,7.074,0,0,0,71.071,414.543Zm0,0" transform="translate(-43.411 -367.77)" fill="#773730"/>
      <path id="Trazado_1177198" data-name="Trazado 1177198" d="M74.572,408.584l.2-.37H73.013a7.9,7.9,0,0,0,0,6.328h1.752l-.187-.353a6.31,6.31,0,0,1-.007-5.605Zm0,0" transform="translate(-65.198 -367.77)" fill="#ffb531"/>
      <path id="Trazado_1177199" data-name="Trazado 1177199" d="M234.1,408.6l.213-.384h-1.766a7.9,7.9,0,0,0,0,6.328h1.761l-.2-.353A6.305,6.305,0,0,1,234.1,408.6Zm0,0" transform="translate(-208.96 -367.77)" fill="#ffb531"/>
      <path id="Trazado_1177200" data-name="Trazado 1177200" d="M272.921,408.215a7.074,7.074,0,0,0,0,6.328h15.03a7.074,7.074,0,0,1,0-6.328Zm0,0" transform="translate(-245.262 -367.77)" fill="#d6d6d4"/>
      <path id="Trazado_1177201" data-name="Trazado 1177201" d="M111.73,432.215h9.493V433.8H111.73Zm0,0" transform="translate(-100.682 -389.397)" fill="#f98500"/>
      <path id="Trazado_1177202" data-name="Trazado 1177202" d="M287.264,432.215h-15.03a7.175,7.175,0,0,0,0,1.582h15.03A7.171,7.171,0,0,1,287.264,432.215Zm0,0" transform="translate(-245.276 -389.397)" fill="#c7c7c5"/>
      <path id="Trazado_1177203" data-name="Trazado 1177203" d="M111.73,432.215h9.493V433.8H111.73Zm0,0" transform="translate(-100.682 -389.397)"/>
      <path id="Trazado_1177204" data-name="Trazado 1177204" d="M111.73,368.215h9.493V369.8H111.73Zm0,0" transform="translate(-100.682 -331.725)"/>
      <path id="Trazado_1177205" data-name="Trazado 1177205" d="M47.5,18.627,40.115,8.294a3.62,3.62,0,0,0,.842-.609l.127-.126L39.965,6.44l-.127.126a2.068,2.068,0,0,1-2.387.389A12.59,12.59,0,0,0,27.63,6.39a10.664,10.664,0,0,1-1.345.381V5.346a3.164,3.164,0,1,0-4.746,0V6.77a10.616,10.616,0,0,1-1.34-.38,12.582,12.582,0,0,0-9.822.562,2.109,2.109,0,0,1-2.391-.387l-.126-.126L6.74,7.557l.126.127a3.625,3.625,0,0,0,.844.608L.328,18.627l.011.008a.774.774,0,0,0-.159.452,5.544,5.544,0,0,0,5.537,5.537h6.328a5.545,5.545,0,0,0,5.537-5.537.774.774,0,0,0-.158-.452l.011-.008L10.306,8.649a3.828,3.828,0,0,0,.768-.278,10.982,10.982,0,0,1,8.577-.5,12.353,12.353,0,0,0,1.888.5v20.2H19.166a5.543,5.543,0,0,0-5.474,4.746H5.673a.791.791,0,0,0-.707.438,7.9,7.9,0,0,0-.152,6.682,7.9,7.9,0,0,0,.152,6.682.791.791,0,0,0,.707.437h37.18a.791.791,0,0,0,.708-1.144,6.315,6.315,0,0,1,0-5.621,14.005,14.005,0,0,1,.054-.157.716.716,0,0,0,.017-.1.6.6,0,0,0,0-.2.716.716,0,0,0-.017-.1.638.638,0,0,0-.032-.092.6.6,0,0,0-.022-.064,6.315,6.315,0,0,1,0-5.621.791.791,0,0,0-.708-1.145H34.132a5.542,5.542,0,0,0-5.474-4.746H26.285V8.38a12.5,12.5,0,0,0,1.887-.5,10.983,10.983,0,0,1,8.574.5,3.693,3.693,0,0,0,.767.278l-7.126,9.977.011.008a.774.774,0,0,0-.159.452,5.544,5.544,0,0,0,5.537,5.537h6.328a5.545,5.545,0,0,0,5.537-5.537.773.773,0,0,0-.158-.452ZM8.882,9.373,15.255,18.3H2.508Zm3.164,13.668H5.718a3.962,3.962,0,0,1-3.876-3.164H15.922a3.961,3.961,0,0,1-3.876,3.164Zm29.318,15.03a7.861,7.861,0,0,0,.316,1.582H28.342c-.018-.046-.041-.091-.058-.137-.03-.079-.057-.158-.084-.238-.047-.138-.087-.277-.124-.418-.02-.079-.042-.158-.059-.237-.032-.152-.058-.306-.079-.459,0-.029-.009-.058-.013-.087Zm0,4.746H27.926a.674.674,0,0,1,.013-.087c.021-.154.047-.307.079-.459.017-.079.039-.158.059-.237.037-.14.079-.28.124-.418.027-.079.054-.158.084-.237.017-.046.04-.091.059-.137H41.683a7.843,7.843,0,0,0-.319,1.575ZM26.5,35.461l-.006.02a7.948,7.948,0,0,0-.138.791c-.008.068-.016.134-.023.2-.026.263-.044.527-.045.791v.02c0,.265.019.528.045.791.007.068.014.135.023.2a7.949,7.949,0,0,0,.138.791l.006.02q.065.281.152.554H25.135a6.307,6.307,0,0,1,0-4.746h1.517q-.086.284-.152.566ZM9.356,41.236h14.1a7.909,7.909,0,0,0,0,4.746H9.356A6.311,6.311,0,0,1,9.356,41.236Zm14.1-1.582H9.356a6.311,6.311,0,0,1,0-4.746h14.1a7.909,7.909,0,0,0,0,4.746ZM6.183,34.907h1.5a7.909,7.909,0,0,0,0,4.746h-1.5a6.322,6.322,0,0,1,0-4.746Zm0,6.328h1.5a7.909,7.909,0,0,0,0,4.746h-1.5a6.322,6.322,0,0,1,0-4.746Zm18.952,4.746a6.307,6.307,0,0,1,0-4.746h1.517q-.086.276-.152.554l-.006.02a7.95,7.95,0,0,0-.138.791c-.008.068-.016.134-.023.2-.026.263-.044.527-.045.791v.02c0,.265.019.528.045.791.007.068.014.135.023.2a7.95,7.95,0,0,0,.138.791l.006.02q.065.281.152.554Zm3.206,0c-.018-.046-.041-.091-.058-.137-.03-.079-.057-.158-.084-.238-.047-.138-.087-.277-.124-.418-.02-.079-.042-.158-.059-.237-.032-.152-.058-.306-.079-.459,0-.029-.009-.058-.013-.087H41.364a7.866,7.866,0,0,0,.316,1.582ZM41.363,36.49H27.926a.674.674,0,0,1,.013-.087c.021-.154.047-.307.079-.459.017-.079.039-.158.059-.237.037-.14.079-.28.124-.418.027-.079.054-.158.084-.237.017-.046.04-.091.059-.137H41.683a7.844,7.844,0,0,0-.319,1.575Zm-8.828-3.164H15.289a3.962,3.962,0,0,1,3.876-3.164h9.493a3.961,3.961,0,0,1,3.876,3.164Zm-9.413-4.746V5.023a.793.793,0,0,0-.261-.588,1.56,1.56,0,0,1-.53-1.17,1.582,1.582,0,1,1,3.164,0,1.562,1.562,0,0,1-.53,1.17.791.791,0,0,0-.261.588V28.579ZM45.315,18.3H32.568l6.374-8.922Zm-3.209,4.746H35.778A3.962,3.962,0,0,1,31.9,19.877H45.982a3.961,3.961,0,0,1-3.876,3.164Zm0,0" transform="translate(-0.163)"/>
    </g>
  </g>
</svg>
