<svg xmlns="http://www.w3.org/2000/svg" xmlns:xlink="http://www.w3.org/1999/xlink" width="103" height="103" viewBox="0 0 103 103">
  <defs>
    <filter id="Trazado_904820" x="0" y="0" width="103" height="103" filterUnits="userSpaceOnUse">
      <feOffset dy="3" input="SourceAlpha"/>
      <feGaussianBlur stdDeviation="3" result="blur"/>
      <feFlood flood-opacity="0.161"/>
      <feComposite operator="in" in2="blur"/>
      <feComposite in="SourceGraphic"/>
    </filter>
  </defs>
  <g id="Grupo_1225044" data-name="Grupo 1225044" transform="translate(-170 -11078.586)">
    <g id="Grupo_1223185" data-name="Grupo 1223185" transform="translate(-1 6410.586)">
      <g id="Grupo_1220650" data-name="Grupo 1220650" transform="translate(5 -5673)">
        <g id="Grupo_1219296" data-name="Grupo 1219296" transform="translate(175 10347)">
          <g id="Grupo_1218002" data-name="Grupo 1218002" transform="translate(0 0)">
            <g id="Grupo_1211578" data-name="Grupo 1211578">
              <g id="Grupo_1207774" data-name="Grupo 1207774" transform="translate(0)">
                <g id="Grupo_1206630" data-name="Grupo 1206630" transform="translate(0)">
                  <g id="Grupo_1185091" data-name="Grupo 1185091">
                    <g id="Grupo_1179560" data-name="Grupo 1179560">
                      <g id="Grupo_1173787" data-name="Grupo 1173787">
                        <g id="Grupo_1171910" data-name="Grupo 1171910">
                          <g id="Grupo_1167341" data-name="Grupo 1167341">
                            <g id="Grupo_1166792" data-name="Grupo 1166792">
                              <g transform="matrix(1, 0, 0, 1, -9, -6)" filter="url(#Trazado_904820)">
                                <g id="Trazado_904820-2" data-name="Trazado 904820" transform="translate(9 6)" fill="#e5f0f6">
                                  <path d="M 42.49999618530273 83.50018310546875 C 36.96437454223633 83.50018310546875 31.59512519836426 82.41635894775391 26.54140853881836 80.27880859375 C 21.65933799743652 78.2138671875 17.27447891235352 75.25739288330078 13.50861930847168 71.49153137207031 C 9.742773056030273 67.72567749023438 6.786314010620117 63.34079360961914 4.721360683441162 58.45870971679688 C 2.583819627761841 53.40498352050781 1.499996185302734 48.03572463989258 1.499996185302734 42.50008773803711 C 1.499996185302734 36.96445083618164 2.583819627761841 31.59519386291504 4.721360683441162 26.54146385192871 C 6.786314010620117 21.65938186645508 9.742773056030273 17.27451133728027 13.50861930847168 13.50865268707275 C 17.27447891235352 9.742794036865234 21.65933799743652 6.786323070526123 26.54140853881836 4.721381664276123 C 31.59512519836426 2.583828926086426 36.96437454223633 1.50000536441803 42.49999618530273 1.50000536441803 C 48.03561782836914 1.50000536441803 53.40486526489258 2.583828926086426 58.45858383178711 4.721381664276123 C 63.34065628051758 6.786323070526123 67.72551727294922 9.742794036865234 71.49137115478516 13.50865268707275 C 75.25721740722656 17.27451133728027 78.21367645263672 21.65938186645508 80.27863311767578 26.54146385192871 C 82.41617584228516 31.59519386291504 83.5 36.96445083618164 83.5 42.50008773803711 C 83.5 48.03572463989258 82.41617584228516 53.40498352050781 80.27863311767578 58.45870971679688 C 78.21367645263672 63.34079360961914 75.25721740722656 67.72567749023438 71.49137115478516 71.49153137207031 C 67.72551727294922 75.25739288330078 63.34065628051758 78.2138671875 58.45858383178711 80.27880859375 C 53.40486526489258 82.41635894775391 48.03561782836914 83.50018310546875 42.49999618530273 83.50018310546875 Z" stroke="none"/>
                                  <path d="M 42.49999618530273 2.999992370605469 C 37.16621017456055 2.999992370605469 31.99356842041016 4.043952941894531 27.1257438659668 6.102874755859375 C 22.42246246337891 8.092193603515625 18.19786071777344 10.94071197509766 14.56929016113281 14.56929779052734 C 10.94070434570312 18.19789123535156 8.092193603515625 22.42250061035156 6.102874755859375 27.12579345703125 C 4.043952941894531 31.99362182617188 2.999992370605469 37.16628646850586 2.999992370605469 42.50008773803711 C 2.999992370605469 47.83388900756836 4.043952941894531 53.00653839111328 6.102874755859375 57.87438201904297 C 8.092193603515625 62.57765960693359 10.94070434570312 66.80227661132812 14.56929016113281 70.43086242675781 C 18.19786071777344 74.0594482421875 22.42246246337891 76.90796661376953 27.1257438659668 78.89728546142578 C 31.99356842041016 80.95620727539062 37.16621017456055 82.00016784667969 42.49999618530273 82.00016784667969 C 47.83378219604492 82.00016784667969 53.00642395019531 80.95620727539062 57.87425231933594 78.89728546142578 C 62.57752990722656 76.90796661376953 66.80213165283203 74.0594482421875 70.43070220947266 70.43086242675781 C 74.05928802490234 66.80227661132812 76.90779876708984 62.57765960693359 78.89711761474609 57.87438201904297 C 80.95603942871094 53.00653839111328 82 47.83388900756836 82 42.50008773803711 C 82 37.16628646850586 80.95603942871094 31.99362182617188 78.89711761474609 27.12579345703125 C 76.90779876708984 22.42250061035156 74.05928802490234 18.19789123535156 70.43070220947266 14.56929779052734 C 66.80213165283203 10.94071197509766 62.57752990722656 8.092193603515625 57.87425231933594 6.102874755859375 C 53.00642395019531 4.043952941894531 47.83378219604492 2.999992370605469 42.49999618530273 2.999992370605469 M 42.49999618530273 -7.62939453125e-06 C 65.97209167480469 -7.62939453125e-06 85 19.02793884277344 85 42.50008773803711 C 85 65.97223663330078 65.97209167480469 85.00016784667969 42.49999618530273 85.00016784667969 C 19.02790069580078 85.00016784667969 -7.62939453125e-06 65.97223663330078 -7.62939453125e-06 42.50008773803711 C -7.62939453125e-06 19.02793884277344 19.02790069580078 -7.62939453125e-06 42.49999618530273 -7.62939453125e-06 Z" stroke="none" fill="#1172b3"/>
                                </g>
                              </g>
                            </g>
                          </g>
                        </g>
                      </g>
                    </g>
                  </g>
                </g>
              </g>
            </g>
          </g>
        </g>
      </g>
    </g>
    <g id="Filled_outline" data-name="Filled outline" transform="translate(175 11080.697)">
      <path id="Trazado_1177982" data-name="Trazado 1177982" d="M205.661,238.888a.91.91,0,0,1-.816-.5l-5.561-11.122-5.561,11.122a.911.911,0,1,1-1.629-.815l6.376-12.751a.948.948,0,0,1,1.629,0l6.376,12.751a.911.911,0,0,1-.813,1.318Z" transform="translate(-155.96 -184.574)" fill="#95573a"/>
      <path id="Trazado_1177983" data-name="Trazado 1177983" d="M29.664,238.888a.91.91,0,0,1-.816-.5l-5.561-11.122-5.561,11.122a.911.911,0,0,1-1.629-.815l6.376-12.751a.948.948,0,0,1,1.629,0l6.376,12.751a.911.911,0,0,1-.814,1.318Z" transform="translate(-0.001 -184.574)" fill="#95573a"/>
      <path id="Trazado_1177984" data-name="Trazado 1177984" d="M102.573,427.643A3.643,3.643,0,0,0,98.93,424H95.286a3.643,3.643,0,0,0-3.643,3.643A3.643,3.643,0,0,0,88,431.286h18.216A3.643,3.643,0,0,0,102.573,427.643Z" transform="translate(-63.803 -361.489)" fill="#ffb531"/>
      <path id="Trazado_1177985" data-name="Trazado 1177985" d="M152.2,427.643A3.643,3.643,0,0,0,148.554,424h-3.643a3.612,3.612,0,0,0-.911.129,3.635,3.635,0,0,1,2.732,3.514,3.643,3.643,0,0,1,3.643,3.643h5.465A3.643,3.643,0,0,0,152.2,427.643Z" transform="translate(-113.427 -361.489)" fill="#ffa912"/>
      <path id="Trazado_1177986" data-name="Trazado 1177986" d="M16,344H30.573a3.643,3.643,0,0,1-3.643,3.643H19.643A3.643,3.643,0,0,1,16,344Z" transform="translate(0 -290.597)" fill="#ffb531"/>
      <path id="Trazado_1177987" data-name="Trazado 1177987" d="M76.554,344c0,2.012-2.542,3.643-4.554,3.643h4.554A3.643,3.643,0,0,0,80.2,344Z" transform="translate(-49.624 -290.597)" fill="#ffa912"/>
      <path id="Trazado_1177988" data-name="Trazado 1177988" d="M66.688,211.625a5.9,5.9,0,0,1-2.437-.521l-2.055-.936a4.119,4.119,0,0,0-3.616.125,5.913,5.913,0,0,1-4.527.455l-.382-.116.53-1.743.381.116a4.076,4.076,0,0,0,3.125-.31,5.9,5.9,0,0,1,5.244-.185l2.055.936a4.109,4.109,0,0,0,3.365,0l2.053-.936a5.9,5.9,0,0,1,5.245.185,4.078,4.078,0,0,0,3.126.31l.38-.116.53,1.743-.381.116a5.913,5.913,0,0,1-4.528-.455,4.12,4.12,0,0,0-3.617-.125l-2.053.936A5.9,5.9,0,0,1,66.688,211.625Z" transform="translate(-33.383 -170.066)" fill="#f7a116"/>
      <path id="Trazado_1177989" data-name="Trazado 1177989" d="M149.464,186.626a2.732,2.732,0,1,0-4.554,2.023v22.568h3.643V188.65A2.715,2.715,0,0,0,149.464,186.626Z" transform="translate(-113.427 -148.707)" fill="#ffb531"/>
      <rect id="Rectángulo_421526" data-name="Rectángulo 421526" width="12.751" height="1.822" rx="0.911" transform="translate(26.93 65.243)" fill="#f7a116"/>
      <path id="Trazado_1177990" data-name="Trazado 1177990" d="M274.732,214.376V208h9.108v6.376l2.732,2.732-7.286,19.127L272,217.108Z" transform="translate(-226.855 -170.081)" fill="#fec9a3"/>
      <path id="Trazado_1177991" data-name="Trazado 1177991" d="M286.573,266.732l-7.286,19.127L272,266.732,274.732,264l4.554,4.554L283.84,264Z" transform="translate(-226.855 -219.705)" fill="#bfbfbd"/>
      <path id="Trazado_1177992" data-name="Trazado 1177992" d="M272,266.732l7.286,19.127,7.286-19.127L283.84,264l-4.554,4.554L274.732,264Z" transform="translate(-226.855 -219.705)" fill="#bfbfbd"/>
      <path id="Trazado_1177993" data-name="Trazado 1177993" d="M323.643,288v19.127H320V288l1.822,1.822Z" transform="translate(-269.39 -240.973)" fill="#95573a"/>
      <path id="Trazado_1177994" data-name="Trazado 1177994" d="M323.643,383.25v8.283H320v-5.051C321.242,385.468,322.457,384.4,323.643,383.25Z" transform="translate(-269.39 -325.379)" fill="#8f4d2e"/>
      <path id="Trazado_1177995" data-name="Trazado 1177995" d="M279.286,268.554l-4.564,5.325L272,266.732,274.732,264Z" transform="translate(-226.855 -219.705)" fill="#e0e0de"/>
      <path id="Trazado_1177996" data-name="Trazado 1177996" d="M343.286,266.732l-2.722,7.146L336,268.554,340.554,264Z" transform="translate(-283.568 -219.705)" fill="#e0e0de"/>
      <path id="Trazado_1177997" data-name="Trazado 1177997" d="M305.108,226.261V224H296v2.261a8.193,8.193,0,0,0,9.108,0Z" transform="translate(-248.122 -184.259)" fill="#feb784"/>
      <path id="Trazado_1177998" data-name="Trazado 1177998" d="M408,109.586h.911a2.732,2.732,0,0,1,0,5.465H408Z" transform="translate(-347.371 -82.871)" fill="#feb784"/>
      <path id="Trazado_1177999" data-name="Trazado 1177999" d="M235.643,109.586h-.911a2.732,2.732,0,0,0,0,5.465h.965" transform="translate(-191.409 -82.871)" fill="#feb784"/>
      <path id="Trazado_1178000" data-name="Trazado 1178000" d="M280.394,40.2v7.286a8.2,8.2,0,1,1-16.394,0V40.2a8.2,8.2,0,0,1,8.2-8.2h.069A8.2,8.2,0,0,1,280.394,40.2Z" transform="translate(-219.765 -14.118)" fill="#fec9a3"/>
      <path id="Trazado_1178001" data-name="Trazado 1178001" d="M323.186,40.206v7.286a8.2,8.2,0,0,1-10.9,7.742,10.022,10.022,0,0,0,7.026-9.563V40.206a10.022,10.022,0,0,0-4.258-8.2A8.2,8.2,0,0,1,323.186,40.206Z" transform="translate(-262.558 -14.127)" fill="#fec093"/>
      <circle id="Elipse_14652" data-name="Elipse 14652" cx="1.366" cy="1.366" r="1.366" transform="translate(46.967 26.99)" fill="#7a432a"/>
      <circle id="Elipse_14653" data-name="Elipse 14653" cx="1.366" cy="1.366" r="1.366" transform="translate(55.164 26.99)" fill="#7a432a"/>
      <path id="Trazado_1178002" data-name="Trazado 1178002" d="M280.393,30.1v3.643a22.127,22.127,0,0,1-3.311-5.465h0a13.678,13.678,0,0,1-1.551.477,13.973,13.973,0,0,1-8.221-.477A22.165,22.165,0,0,1,264,33.744V30.1a6.234,6.234,0,0,1,.763-3.027,4.907,4.907,0,0,1,1.97-1.98,14.156,14.156,0,0,1,4.093-1.027A13.587,13.587,0,0,1,272.2,24a14.188,14.188,0,0,1,5.466,1.095A5.588,5.588,0,0,1,280.393,30.1Z" transform="translate(-219.764 -7.029)" fill="#7a432a"/>
      <path id="Trazado_1178003" data-name="Trazado 1178003" d="M313.7,163.7H312v-1.822h1.7a6.781,6.781,0,0,0,3.311-.787l.918,1.573A8.518,8.518,0,0,1,313.7,163.7Z" transform="translate(-262.301 -128.511)" fill="#f7a468"/>
      <path id="Trazado_1178004" data-name="Trazado 1178004" d="M218.61,294.288v17.393H184V294.288a4.553,4.553,0,0,1,3.449-4.417l3.837-.96,2.732-.911,7.286,19.127L208.591,288l2.732.911,3.837.96A4.553,4.553,0,0,1,218.61,294.288Z" transform="translate(-148.873 -240.973)" fill="#3d4d63"/>
      <path id="Trazado_1178005" data-name="Trazado 1178005" d="M296.494,345.82v17.1h-24.6C280.235,360.5,290.345,355.619,296.494,345.82Z" transform="translate(-226.757 -292.21)" fill="#374559"/>
      <g id="Grupo_1225043" data-name="Grupo 1225043" transform="translate(40.591 62.511)">
        <path id="Trazado_1178006" data-name="Trazado 1178006" d="M328,456h1.822v4.554H328Z" transform="translate(-317.07 -452.357)" fill="#22303d"/>
        <path id="Trazado_1178007" data-name="Trazado 1178007" d="M296,464h1.822v1.822H296Z" transform="translate(-288.714 -459.446)" fill="#22303d"/>
        <path id="Trazado_1178008" data-name="Trazado 1178008" d="M232,424h1.822v8.2H232Z" transform="translate(-232 -424)" fill="#22303d"/>
        <path id="Trazado_1178009" data-name="Trazado 1178009" d="M424,424h1.822v8.2H424Z" transform="translate(-402.141 -424)" fill="#22303d"/>
      </g>
      <path id="Trazado_1178010" data-name="Trazado 1178010" d="M240.911,288.911,240,298.019h3.643l-.911,3.643,8.2,5.465L243.643,288Z" transform="translate(-198.498 -240.973)" fill="#4c5d72"/>
      <path id="Trazado_1178011" data-name="Trazado 1178011" d="M346.019,288.911l.911,9.108h-3.643l.911,3.643-8.2,5.465L343.286,288Z" transform="translate(-283.568 -240.973)" fill="#4c5d72"/>
      <path id="Trazado_1178012" data-name="Trazado 1178012" d="M333.519,30.1v3.643a22.126,22.126,0,0,1-3.311-5.465h0a13.676,13.676,0,0,1-1.551.477,10.067,10.067,0,0,0-4.707-4.689A13.586,13.586,0,0,1,325.322,24a14.188,14.188,0,0,1,5.466,1.095A5.588,5.588,0,0,1,333.519,30.1Z" transform="translate(-272.89 -7.029)" fill="#743b20"/>
      <path id="Trazado_1178013" data-name="Trazado 1178013" d="M66.508,48.014l-6.3-1.782L57.9,43.918V40.651a9.1,9.1,0,0,0,3.643-7.285v-.275a3.643,3.643,0,0,0,0-7.286V23.072a6.512,6.512,0,0,0-3.22-5.813q-.036-.019-.073-.034a15.2,15.2,0,0,0-11.631,0q-.037.015-.073.034a6.512,6.512,0,0,0-3.22,5.814V25.8a3.643,3.643,0,1,0,0,7.286v.275a9.093,9.093,0,0,0,1.937,5.615,4.07,4.07,0,0,1-2.976-.352,5.913,5.913,0,0,0-5.243-.184l-.144.066a3.57,3.57,0,0,0,.05-.59,3.643,3.643,0,1,0-7.286,0,3.57,3.57,0,0,0,.05.59l-.144-.066a5.894,5.894,0,0,0-5.243.185,4.111,4.111,0,0,1-3.127.309l-.381-.115-.526,1.744.379.114a5.9,5.9,0,0,0,1.458.249L16.1,53h0a.905.905,0,0,0-.1.407,4.559,4.559,0,0,0,4.554,4.554h5.465A4.559,4.559,0,0,0,30.573,53.4a.905.905,0,0,0-.1-.407h0L24.29,40.623a5.717,5.717,0,0,0,.908-.4,4.119,4.119,0,0,1,3.615-.125l1.76.8V61.691a4.556,4.556,0,0,0-3.566,3.629,4.553,4.553,0,0,0-3.72,4.477.911.911,0,0,0,.911.911h11.84V53.315a3.638,3.638,0,0,1,2.76-3.534l2.581-.645L40.6,56.955a.911.911,0,0,0,.906,1h2.477l-.628,2.512a.911.911,0,0,0,.378.979l7.792,5.194v4.067h1.822V66.641l7.792-5.194a.911.911,0,0,0,.378-.979l-.628-2.511h2.477a.911.911,0,0,0,.906-1l-.782-7.82,2.581.645a3.638,3.638,0,0,1,2.76,3.535V70.708h1.822V53.315a5.457,5.457,0,0,0-4.139-5.3Zm-40.49,8.122H20.554a2.737,2.737,0,0,1-2.576-1.822H28.6a2.737,2.737,0,0,1-2.576,1.822Zm-7.634-3.643,4.9-9.8,4.9,9.8Zm22.606-5.137,2.333-4.666,1.624,3.248-.295.295Zm10.53,3.956.911-1.063.911,1.063V61.2L52.432,63.6,51.521,61.2ZM49.7,56.423l-.788-2.068.788-.919Zm5.465,0V53.436l.788.919Zm-6.99-4.006-1.967-5.163,1.671-1.671L51.191,48.9Zm8.517,0L53.673,48.9l3.313-3.313,1.671,1.671Zm-.615-8.5-3.643,3.643-3.643-3.643v-2.2a9.12,9.12,0,0,0,7.286,0Zm-9.108-3.267v3.267l-.661.661-1.824-3.648a5.9,5.9,0,0,0,1.456-.249l.782-.223q.122.1.247.192Zm16.394-11.2a1.824,1.824,0,0,1-1.822,1.822V27.626A1.824,1.824,0,0,1,63.361,29.447ZM45.145,23.072a4.694,4.694,0,0,1,2.211-4.182,13.372,13.372,0,0,1,10.151,0,4.7,4.7,0,0,1,2.211,4.183V23.9a22.217,22.217,0,0,1-1.563-3.007A.911.911,0,0,0,57,20.4a13.076,13.076,0,0,1-9.135,0,.911.911,0,0,0-1.156.5A22.208,22.208,0,0,1,45.145,23.9ZM41.5,29.447a1.824,1.824,0,0,1,1.822-1.822v3.643A1.824,1.824,0,0,1,41.5,29.447Zm3.643-2.411a22.835,22.835,0,0,0,2.893-4.656,14.9,14.9,0,0,0,8.788,0,22.833,22.833,0,0,0,2.892,4.656v6.329a7.286,7.286,0,0,1-14.573,0ZM33.305,36.1a1.824,1.824,0,0,1,1.822,1.822,1.8,1.8,0,0,1-.61,1.347.911.911,0,0,0-.3.677V61.6H32.394V39.943a.911.911,0,0,0-.3-.677,1.8,1.8,0,0,1-.61-1.347A1.824,1.824,0,0,1,33.305,36.1ZM29.551,64.222a2.715,2.715,0,0,1,1.932-.8h2.732v1.822h-5.31A2.722,2.722,0,0,1,29.551,64.222Zm-4.289,4.665a2.737,2.737,0,0,1,2.578-1.822h6.376v1.822ZM36.037,49.241V40.9l1.76-.8a4.087,4.087,0,0,1,1.682-.361,4.039,4.039,0,0,1,1.932.486,5.727,5.727,0,0,0,.908.4l-3.657,7.313-.307.077a5.457,5.457,0,0,0-2.318,1.227Zm9.236,11.047.755-3.021a.911.911,0,0,0-.884-1.132H42.509l.751-7.52,1.345-.448,5.961,15.648Zm14.444-4.152a.911.911,0,0,0-.884,1.132l.755,3.021L54.3,63.816l5.961-15.648,1.345.448.752,7.52Z" transform="translate(0)"/>
      <path id="Trazado_1178014" data-name="Trazado 1178014" d="M289.366,114.732A1.366,1.366,0,1,0,288,113.366,1.366,1.366,0,0,0,289.366,114.732Z" transform="translate(-241.033 -85.01)"/>
      <path id="Trazado_1178015" data-name="Trazado 1178015" d="M361.366,114.732A1.366,1.366,0,1,0,360,113.366,1.366,1.366,0,0,0,361.366,114.732Z" transform="translate(-304.836 -85.01)"/>
      <path id="Trazado_1178016" data-name="Trazado 1178016" d="M312,163.7h1.7a8.518,8.518,0,0,0,4.228-1.035l-.918-1.573a6.781,6.781,0,0,1-3.311.787H312Z" transform="translate(-262.301 -128.511)"/>
      <path id="Trazado_1178017" data-name="Trazado 1178017" d="M296,464h1.822v1.822H296Z" transform="translate(-248.122 -396.935)"/>
      <path id="Trazado_1178018" data-name="Trazado 1178018" d="M232,424h1.822v8.2H232Z" transform="translate(-191.409 -361.489)"/>
      <path id="Trazado_1178019" data-name="Trazado 1178019" d="M424,424h1.822v8.2H424Z" transform="translate(-361.549 -361.489)"/>
    </g>
  </g>
</svg>
