<svg xmlns="http://www.w3.org/2000/svg" xmlns:xlink="http://www.w3.org/1999/xlink" width="93.934" height="93.934" viewBox="0 0 93.934 93.934">
  <defs>
    <filter id="Trazado_982547" x="0" y="-0.001" width="93.934" height="93.934" filterUnits="userSpaceOnUse">
      <feOffset dy="3" input="SourceAlpha"/>
      <feGaussianBlur stdDeviation="3" result="blur"/>
      <feFlood flood-opacity="0.161"/>
      <feComposite operator="in" in2="blur"/>
      <feComposite in="SourceGraphic"/>
    </filter>
  </defs>
  <g id="Grupo_1224719" data-name="Grupo 1224719" transform="translate(-611.066 -1276.968)">
    <g id="Grupo_1220444" data-name="Grupo 1220444" transform="translate(0 -6930.033)">
      <g id="Grupo_1219554" data-name="Grupo 1219554" transform="translate(0 -394.578)">
        <g id="Grupo_1214715" data-name="Grupo 1214715" transform="translate(-0.229 3473.578)">
          <g id="Grupo_1214433" data-name="Grupo 1214433" transform="translate(-0.771 -2738.674)">
            <g id="Grupo_1183190" data-name="Grupo 1183190" transform="translate(1 1016.674)">
              <g id="Grupo_1179611" data-name="Grupo 1179611" transform="translate(428 4723.467)">
                <g id="Grupo_1175227" data-name="Grupo 1175227" transform="translate(-5.967 140.533)">
                  <g id="Grupo_1167337" data-name="Grupo 1167337" transform="translate(198.033 1992)">
                    <g id="Grupo_1166720" data-name="Grupo 1166720">
                      <g id="Grupo_1164305" data-name="Grupo 1164305">
                        <g id="Grupo_1163948" data-name="Grupo 1163948">
                          <g id="Grupo_1158168" data-name="Grupo 1158168">
                            <g id="Grupo_1152576" data-name="Grupo 1152576">
                              <g id="Grupo_1148633" data-name="Grupo 1148633">
                                <g id="Grupo_1148525" data-name="Grupo 1148525">
                                  <g transform="matrix(1, 0, 0, 1, -9, -6)" filter="url(#Trazado_982547)">
                                    <g id="Trazado_982547-2" data-name="Trazado 982547" transform="translate(9 6)" fill="#f7f4ed">
                                      <path d="M 37.966796875 74.43359375 C 33.04315185546875 74.43359375 28.26757431030273 73.46962738037109 23.77274131774902 71.56847381591797 C 19.43047523498535 69.73184967041016 15.53040790557861 67.10224914550781 12.18087482452393 63.75271987915039 C 8.831341743469238 60.4031867980957 6.201741218566895 56.50312042236328 4.365118980407715 52.16086196899414 C 2.463963508605957 47.66601943969727 1.499996900558472 42.89044189453125 1.499996900558472 37.966796875 C 1.499996900558472 33.04315185546875 2.463963508605957 28.26757431030273 4.365118980407715 23.77274131774902 C 6.201741218566895 19.43047523498535 8.831341743469238 15.53040790557861 12.18087482452393 12.18087482452393 C 15.53040790557861 8.831341743469238 19.43047523498535 6.201741218566895 23.77274131774902 4.365118980407715 C 28.26757431030273 2.463963508605957 33.04315185546875 1.499996900558472 37.966796875 1.499996900558472 C 42.89044189453125 1.499996900558472 47.66601943969727 2.463963508605957 52.16086196899414 4.365118980407715 C 56.50312042236328 6.201741218566895 60.4031867980957 8.831341743469238 63.75271987915039 12.18087482452393 C 67.10224914550781 15.53040790557861 69.73184967041016 19.43047523498535 71.56847381591797 23.77274131774902 C 73.46962738037109 28.26757431030273 74.43359375 33.04315185546875 74.43359375 37.966796875 C 74.43359375 42.89044189453125 73.46962738037109 47.66601943969727 71.56847381591797 52.16086196899414 C 69.73184967041016 56.50313186645508 67.10224914550781 60.4031867980957 63.75271987915039 63.75271987915039 C 60.4031867980957 67.10224914550781 56.50313186645508 69.73184967041016 52.16086196899414 71.56847381591797 C 47.66601943969727 73.46962738037109 42.89044189453125 74.43359375 37.966796875 74.43359375 Z" stroke="none"/>
                                      <path d="M 37.966796875 3 C 33.2449836730957 3 28.66600799560547 3.924095153808594 24.35705947875977 5.746635437011719 C 20.19359588623047 7.507637023925781 16.45379638671875 10.02928161621094 13.24153518676758 13.24153518676758 C 10.02927398681641 16.45379638671875 7.507621765136719 20.19359588623047 5.746635437011719 24.35705947875977 C 3.924095153808594 28.66600799560547 3 33.2449836730957 3 37.966796875 C 3 42.6886100769043 3.924095153808594 47.26758575439453 5.746635437011719 51.57653427124023 C 7.507621765136719 55.73999786376953 10.02927398681641 59.47979736328125 13.24153518676758 62.69205856323242 C 16.45379638671875 65.90431976318359 20.19359588623047 68.42597198486328 24.35705947875977 70.18695831298828 C 28.66600799560547 72.00949859619141 33.2449836730957 72.93359375 37.966796875 72.93359375 C 42.6886100769043 72.93359375 47.26758575439453 72.00949859619141 51.57653427124023 70.18695831298828 C 55.73999786376953 68.42597198486328 59.47979736328125 65.90431976318359 62.69205856323242 62.69205856323242 C 65.90431976318359 59.47979736328125 68.42597198486328 55.73999786376953 70.18695831298828 51.57653427124023 C 72.00949859619141 47.26758575439453 72.93359375 42.6886100769043 72.93359375 37.966796875 C 72.93359375 33.2449836730957 72.00949859619141 28.66600799560547 70.18695831298828 24.35705947875977 C 68.42597198486328 20.19359588623047 65.90431976318359 16.45379638671875 62.69205856323242 13.24153518676758 C 59.47979736328125 10.02928161621094 55.73999786376953 7.507637023925781 51.57653427124023 5.746635437011719 C 47.26758575439453 3.924095153808594 42.6886100769043 3 37.966796875 3 M 37.966796875 0 C 58.93528366088867 0 75.93359375 16.99832153320312 75.93359375 37.966796875 C 75.93359375 58.93528366088867 58.93528366088867 75.93359375 37.966796875 75.93359375 C 16.99831008911133 75.93359375 0 58.93528366088867 0 37.966796875 C 0 16.99832153320312 16.99831008911133 0 37.966796875 0 Z" stroke="none" fill="#655531"/>
                                    </g>
                                  </g>
                                </g>
                              </g>
                            </g>
                          </g>
                        </g>
                      </g>
                    </g>
                  </g>
                </g>
              </g>
            </g>
          </g>
        </g>
      </g>
    </g>
    <g id="Page-1" transform="translate(635.893 1298.794)">
      <g id="_035---Balance-Browser" data-name="035---Balance-Browser">
        <path id="Shape" d="M3.214,1H41.59A2.214,2.214,0,0,1,43.8,3.214V6.9H1V3.214A2.214,2.214,0,0,1,3.214,1Z" transform="translate(-0.262 -0.262)" fill="#02a9f4"/>
        <path id="Shape-2" data-name="Shape" d="M55.214,1H53a2.214,2.214,0,0,1,2.214,2.214V6.9h2.214V3.214A2.214,2.214,0,0,0,55.214,1Z" transform="translate(-13.886 -0.262)" fill="#0377bc"/>
        <path id="Shape-3" data-name="Shape" d="M43.8,15.642V9H1V39.258a1.476,1.476,0,0,0,1.476,1.476H42.328A1.476,1.476,0,0,0,43.8,39.258Z" transform="translate(-0.262 -2.358)" fill="#f5f5f5"/>
        <path id="Shape-4" data-name="Shape" d="M55.476,9V39.258A1.476,1.476,0,0,1,54,40.734h2.214a1.476,1.476,0,0,0,1.476-1.476V9Z" transform="translate(-14.148 -2.358)" fill="#cfd8dc"/>
        <circle id="Oval" cx="0.5" cy="0.5" r="0.5" transform="translate(3 3)" fill="#ffdc00"/>
        <circle id="Oval-2" data-name="Oval" cx="0.5" cy="0.5" r="0.5" transform="translate(6 3)" fill="#e91e63"/>
        <circle id="Oval-3" data-name="Oval" cx="0.5" cy="0.5" r="0.5" transform="translate(9 3)" fill="#ff5722"/>
        <path id="Shape-5" data-name="Shape" d="M26.214,53H42.45a2.214,2.214,0,0,1,2.214,2.214V56.69a.738.738,0,0,1-.738.738H24.738A.738.738,0,0,1,24,56.69V55.214A2.214,2.214,0,0,1,26.214,53Z" transform="translate(-6.288 -13.886)" fill="#ff9801"/>
        <path id="Shape-6" data-name="Shape" d="M48.214,53H46a2.214,2.214,0,0,1,2.214,2.214V56.69a.738.738,0,0,1-.738.738H49.69a.738.738,0,0,0,.738-.738V55.214A2.214,2.214,0,0,0,48.214,53Z" transform="translate(-12.052 -13.886)" fill="#f57c00"/>
        <path id="Shape-7" data-name="Shape" d="M31.214,47H40.07a2.214,2.214,0,0,1,2.214,2.214v2.214H29V49.214A2.214,2.214,0,0,1,31.214,47Z" transform="translate(-7.598 -12.314)" fill="#ffdc00"/>
        <path id="Shape-8" data-name="Shape" d="M43.214,47H41a2.214,2.214,0,0,1,2.214,2.214v2.214h2.214V49.214A2.214,2.214,0,0,0,43.214,47Z" transform="translate(-10.742 -12.314)" fill="#fec108"/>
        <path id="Shape-9" data-name="Shape" d="M37.214,17a2.214,2.214,0,0,1,2.214,2.214V39.14H35V19.214A2.214,2.214,0,0,1,37.214,17Z" transform="translate(-9.17 -4.454)" fill="#ff9801"/>
        <path id="Shape-10" data-name="Shape" d="M37.607,17a2.17,2.17,0,0,0-1.107.31,2.214,2.214,0,0,1,1.107,1.9V39.14h2.214V19.214A2.214,2.214,0,0,0,37.607,17Z" transform="translate(-9.563 -4.454)" fill="#f57c00"/>
        <path id="Shape-11" data-name="Shape" d="M18.476,23H30.284v2.952H18.476a1.476,1.476,0,0,1,0-2.952Z" transform="translate(-4.454 -6.026)" fill="#ffdc00"/>
        <path id="Rectangle-path" d="M32,23h2.214v2.952H32Z" transform="translate(-8.384 -6.026)" fill="#fec108"/>
        <path id="Shape-12" data-name="Shape" d="M41,23H52.808a1.476,1.476,0,1,1,0,2.952H41Z" transform="translate(-10.742 -6.026)" fill="#ffdc00"/>
        <path id="Shape-13" data-name="Shape" d="M56.214,23H54a1.476,1.476,0,1,1,0,2.952h2.214a1.476,1.476,0,1,0,0-2.952Z" transform="translate(-14.148 -6.026)" fill="#fec108"/>
        <path id="Shape-14" data-name="Shape" d="M19.738,36h7.38a.738.738,0,0,1,.738.738v1.476a4.428,4.428,0,1,1-8.856,0V36.738A.738.738,0,0,1,19.738,36Z" transform="translate(-4.978 -9.432)" fill="#ff9801"/>
        <path id="Shape-15" data-name="Shape" d="M28.3,36H26.083a.738.738,0,0,1,.738.738v1.476a4.428,4.428,0,0,1-3.321,4.28,4.214,4.214,0,0,0,1.107.148,4.428,4.428,0,0,0,4.428-4.428V36.738A.738.738,0,0,0,28.3,36Z" transform="translate(-6.157 -9.432)" fill="#f57c00"/>
        <path id="Shape-16" data-name="Shape" d="M45.738,36h7.38a.738.738,0,0,1,.738.738v1.476a4.428,4.428,0,1,1-8.856,0V36.738A.738.738,0,0,1,45.738,36Z" transform="translate(-11.79 -9.432)" fill="#ff9801"/>
        <path id="Shape-17" data-name="Shape" d="M54.3,36H52.083a.738.738,0,0,1,.738.738v1.476a4.428,4.428,0,0,1-3.321,4.28,4.214,4.214,0,0,0,1.107.148,4.428,4.428,0,0,0,4.428-4.428V36.738A.738.738,0,0,0,54.3,36Z" transform="translate(-12.969 -9.432)" fill="#f57c00"/>
        <g id="Grupo_1224718" data-name="Grupo 1224718">
          <path id="Shape-18" data-name="Shape" d="M41.328,0H2.952A2.952,2.952,0,0,0,0,2.952V36.9a2.214,2.214,0,0,0,2.214,2.214H14.76a.738.738,0,0,0,0-1.476H2.214a.738.738,0,0,1-.738-.738V7.38H42.8v6.642a.738.738,0,1,0,1.476,0V2.952A2.952,2.952,0,0,0,41.328,0ZM1.476,5.9V2.952A1.476,1.476,0,0,1,2.952,1.476H41.328A1.476,1.476,0,0,1,42.8,2.952V5.9Z"/>
          <circle id="Oval-4" data-name="Oval" cx="0.5" cy="0.5" r="0.5" transform="translate(3 3)"/>
          <circle id="Oval-5" data-name="Oval" cx="0.5" cy="0.5" r="0.5" transform="translate(6 3)"/>
          <circle id="Oval-6" data-name="Oval" cx="0.5" cy="0.5" r="0.5" transform="translate(9 3)"/>
          <path id="Shape-19" data-name="Shape" d="M46.258,20.428H35.188V18.952a2.952,2.952,0,1,0-5.9,0v1.476H18.214a2.214,2.214,0,0,0,0,4.428h3.173l-2.915,5.255a1.476,1.476,0,0,0-1,1.387v1.476a5.166,5.166,0,0,0,10.332,0V31.5a1.476,1.476,0,0,0-1-1.387L23.9,24.856h5.387V38.14H27.808a2.952,2.952,0,0,0-2.952,2.952v1.476h-.738a2.952,2.952,0,0,0-2.952,2.952V47a1.476,1.476,0,0,0,1.476,1.476H41.83A1.476,1.476,0,0,0,43.306,47V45.52a2.952,2.952,0,0,0-2.952-2.952h-.738V41.092a2.952,2.952,0,0,0-2.952-2.952H35.188V24.856h5.387L37.66,30.111a1.476,1.476,0,0,0-1,1.387v1.476a5.166,5.166,0,0,0,10.332,0V31.5a1.476,1.476,0,0,0-1-1.387l-2.915-5.255h3.173a2.214,2.214,0,1,0,0-4.428Zm-23.616,5.21,2.435,4.384H20.207Zm3.69,7.336a3.69,3.69,0,0,1-7.38,0V31.5h7.38ZM18.214,23.38a.738.738,0,0,1,0-1.476h11.07V23.38ZM41.83,45.52V47H22.642V45.52a1.476,1.476,0,0,1,1.476-1.476H40.354A1.476,1.476,0,0,1,41.83,45.52Zm-3.69-4.428v1.476H26.332V41.092a1.476,1.476,0,0,1,1.476-1.476h8.856A1.476,1.476,0,0,1,38.14,41.092ZM30.76,38.14V18.952a1.476,1.476,0,0,1,2.952,0V38.14Zm11.07-12.5,2.435,4.384H39.395Zm3.69,7.336a3.69,3.69,0,0,1-7.38,0V31.5h7.38Zm.738-9.594H35.188V21.9h11.07a.738.738,0,0,1,0,1.476Z" transform="translate(-4.192 -4.192)"/>
          <path id="Shape-20" data-name="Shape" d="M9.428,14H5.738a.738.738,0,1,0,0,1.476h3.69a.738.738,0,1,0,0-1.476Z" transform="translate(-1.31 -3.668)"/>
          <path id="Shape-21" data-name="Shape" d="M14.738,15.476h11.07a.738.738,0,0,0,0-1.476H14.738a.738.738,0,1,0,0,1.476Z" transform="translate(-3.668 -3.668)"/>
          <path id="Shape-22" data-name="Shape" d="M10.214,18H8.738a.738.738,0,1,0,0,1.476h1.476a.738.738,0,1,0,0-1.476Z" transform="translate(-2.096 -4.716)"/>
          <path id="Shape-23" data-name="Shape" d="M14.738,19.476h8.856a.738.738,0,1,0,0-1.476H14.738a.738.738,0,1,0,0,1.476Z" transform="translate(-3.668 -4.716)"/>
          <path id="Shape-24" data-name="Shape" d="M5.738,31.476H7.952a.738.738,0,1,0,0-1.476H5.738a.738.738,0,1,0,0,1.476Z" transform="translate(-1.31 -7.86)"/>
          <path id="Shape-25" data-name="Shape" d="M16.428,30.738A.738.738,0,0,0,15.69,30H12.738a.738.738,0,1,0,0,1.476H15.69A.738.738,0,0,0,16.428,30.738Z" transform="translate(-3.144 -7.86)"/>
          <path id="Shape-26" data-name="Shape" d="M10.9,38H5.738a.738.738,0,0,0,0,1.476H10.9A.738.738,0,0,0,10.9,38Z" transform="translate(-1.31 -9.956)"/>
          <path id="Shape-27" data-name="Shape" d="M10.9,42H5.738a.738.738,0,0,0,0,1.476H10.9A.738.738,0,0,0,10.9,42Z" transform="translate(-1.31 -11.004)"/>
          <path id="Shape-28" data-name="Shape" d="M10.214,34H8.738a.738.738,0,0,0,0,1.476h1.476a.738.738,0,0,0,0-1.476Z" transform="translate(-2.096 -8.908)"/>
        </g>
      </g>
    </g>
  </g>
</svg>
